<svg xmlns="http://www.w3.org/2000/svg">
<defs>
<font id="UniversLTPro-75Black" horiz-adv-x="667" >
  <font-face 
    font-family="Univers LT Pro"
    font-weight="850"
    font-stretch="normal"
    units-per-em="1000"
    panose-1="2 11 8 4 3 5 2 2 2 4"
    ascent="724"
    descent="-276"
    x-height="501"
    cap-height="722"
    bbox="-153 -250 999 1056"
    underline-thickness="50"
    underline-position="-100"
    stemh="102"
    stemv="190"
    unicode-range="U+000D-FB04"
  />
<missing-glyph horiz-adv-x="512" 
d="M0 718h512v-718h-512v718zM50 50h412v617h-412v-617zM383 478c0 -78 -50 -102 -91 -147c-13 -15 -20 -29 -20 -66v-32h-49v39c0 104 109 128 109 202c0 48 -35 85 -76 85s-74 -27 -82 -95l-50 8c9 96 64 137 135 137c72 0 124 -51 124 -131zM217 117v67h61v-67h-61z" />
    <glyph glyph-name="napostrophe" unicode="&#x22;n" 
d="M27 721h164l-120 -158h-93zM416 513c150 0 184 -89 184 -200v-313h-188v299c0 64 -25 95 -77 95c-54 0 -84 -37 -84 -104v-290h-187v386c0 11 -1 29 -2 53l-3 63h188c1 -28 2 -52 2 -77c37 63 92 88 167 88z" />
    <glyph glyph-name="IJ" unicode="IJ" horiz-adv-x="927" 
d="M55 722h206v-722h-206v722zM660 722h203v-481c0 -84 -23 -148 -63 -186c-51 -48 -125 -71 -208 -71c-108 0 -208 31 -251 121c-14 30 -20 67 -20 111v15h199v-6c0 -64 20 -96 67 -96c48 0 73 27 73 104v489z" />
    <glyph glyph-name="ij" unicode="ij" horiz-adv-x="648" 
d="M67 720h192v-134h-192v134zM69 502h188v-502h-188v502zM383 720h192v-134h-192v134zM384 502h190v-541c0 -38 -7 -71 -21 -96c-22 -38 -65 -61 -176 -61c-17 0 -37 1 -60 2v123c5 -1 11 -1 16 -1c50 0 51 40 51 74v500z" />
    <glyph glyph-name="fi" unicode="fi" horiz-adv-x="722" 
d="M316 734c47 0 86 -7 111 -12v-119c-9 3 -30 11 -54 11c-50 0 -69 -35 -69 -91v-21h117v-120h-117v-382h-190v382h-94v120h96v15c0 123 15 217 200 217zM459 720h192v-134h-192v134zM461 502h190v-502h-190v502z" />
    <glyph glyph-name="fl" unicode="fl" horiz-adv-x="722" 
d="M316 734c47 0 86 -7 111 -12v-119c-9 3 -30 11 -54 11c-50 0 -69 -35 -69 -91v-21h117v-120h-117v-382h-190v382h-94v120h96v15c0 123 15 217 200 217zM461 722h190v-722h-190v722z" />
    <glyph glyph-name="f_f" unicode="ff" horiz-adv-x="789" 
d="M662 725c47 0 85 -3 110 -6v-121c-8 3 -28 6 -51 6c-51 0 -75 -23 -75 -79v-23h121v-120h-121v-382h-184v382h-57v120h60v56c0 64 16 117 73 145c29 15 70 21 124 22zM314 734c47 0 88 -6 113 -12v-119c-8 3 -32 11 -54 11c-51 0 -69 -38 -69 -91v-21h77v-120h-77v-382
h-190v382h-94v120h96v52c0 32 8 100 48 137c31 28 81 42 150 43z" />
    <glyph glyph-name="f_f_i" unicode="ffi" horiz-adv-x="1069" 
d="M313 734c48 0 89 -6 114 -12v-119c-8 2 -33 11 -55 11c-49 0 -68 -38 -68 -91v-21h77v-120h-77v-382h-190v382h-94v120h96v40c0 74 18 126 55 155c33 26 80 36 142 37zM803 722h192v-134h-192v134zM804 502h190v-502h-190v502zM656 734c48 0 89 -6 114 -12v-119
c-8 2 -33 11 -55 11c-49 0 -68 -38 -68 -91v-21h117v-120h-117v-382h-190v382h-52v120h54v40c0 74 18 126 55 155c33 26 80 36 142 37z" />
    <glyph glyph-name="f_f_l" unicode="ffl" horiz-adv-x="1075" 
d="M313 734c48 0 89 -6 114 -12v-119c-8 2 -33 11 -55 11c-49 0 -68 -38 -68 -91v-21h77v-120h-77v-382h-190v382h-94v120h96v40c0 74 18 126 55 155c33 26 80 36 142 37zM661 734c48 0 89 -6 114 -12v-119c-8 2 -33 11 -55 11c-49 0 -68 -38 -68 -91v-21h117v-120h-117
v-382h-190v382h-57v120h59v40c0 74 18 126 55 155c33 26 80 36 142 37zM809 722h190v-722h-190v722z" />
    <glyph glyph-name=".notdef" horiz-adv-x="512" 
d="M0 718h512v-718h-512v718zM50 50h412v617h-412v-617zM383 478c0 -78 -50 -102 -91 -147c-13 -15 -20 -29 -20 -66v-32h-49v39c0 104 109 128 109 202c0 48 -35 85 -76 85s-74 -27 -82 -95l-50 8c9 96 64 137 135 137c72 0 124 -51 124 -131zM217 117v67h61v-67h-61z" />
    <glyph glyph-name=".null" horiz-adv-x="0" 
 />
    <glyph glyph-name="CR" unicode="&#xd;" horiz-adv-x="333" 
 />
    <glyph glyph-name="space" unicode=" " horiz-adv-x="333" 
 />
    <glyph glyph-name="exclam" unicode="!" horiz-adv-x="444" 
d="M111 722h216l-35 -507h-144zM133 149h176v-149h-176v149z" />
    <glyph glyph-name="quotedbl" unicode="&#x22;" horiz-adv-x="500" 
d="M80 693h157l-29 -266h-99zM278 693h156l-29 -266h-98z" />
    <glyph glyph-name="numbersign" unicode="#" 
d="M215 693h139l-32 -174h89l32 174h139l-32 -174h81v-119h-103l-21 -115h80v-119h-102l-31 -166h-139l30 166h-89l-30 -166h-140l31 166h-81v119h103l22 115h-81v119h103zM300 400l-22 -115h89l22 115h-89z" />
    <glyph glyph-name="dollar" unicode="$" 
d="M295 665v90h59v-90c161 -8 237 -64 237 -205h-182c0 48 -18 79 -55 85v-143c83 -17 139 -34 169 -51c60 -33 92 -87 92 -155c0 -100 -70 -202 -261 -209v-89h-59v89c-159 5 -253 80 -253 220h180c0 -56 29 -87 73 -97v153l-62 17c-60 16 -81 25 -107 42
c-57 37 -73 89 -73 141c0 118 92 198 242 202zM295 418v128c-39 -9 -57 -35 -57 -64c0 -31 24 -56 57 -64zM354 250v-142c51 8 74 38 74 73c0 32 -15 55 -74 69z" />
    <glyph glyph-name="percent" unicode="%" horiz-adv-x="1000" 
d="M649 750h107l-375 -762h-111zM412 539c0 -50 -5 -89 -20 -120c-31 -66 -94 -91 -153 -91c-56 0 -108 21 -140 70c-21 33 -32 78 -32 138c0 137 61 202 172 202c37 0 83 -9 113 -34c35 -29 60 -70 60 -165zM239 418c33 0 46 28 46 115c0 56 0 119 -46 119
c-40 0 -46 -53 -46 -129c0 -60 7 -105 46 -105zM962 212c0 -48 -7 -89 -20 -119c-31 -70 -97 -93 -151 -93c-66 0 -117 28 -145 75c-21 36 -29 82 -29 134c0 137 61 202 172 202c41 0 80 -10 110 -33c38 -29 63 -76 63 -166zM789 90c33 0 46 29 46 116c0 39 0 92 -23 112
c-6 5 -15 6 -25 6c-40 0 -44 -63 -44 -125c0 -16 0 -45 6 -69c5 -22 13 -40 40 -40z" />
    <glyph glyph-name="ampersand" unicode="&#x26;" horiz-adv-x="889" 
d="M648 562c0 -83 -49 -137 -136 -193l103 -102c31 37 52 87 52 131h173c-5 -108 -40 -174 -107 -243l146 -155h-243l-43 47c-72 -44 -148 -61 -245 -61c-147 0 -242 45 -280 120c-14 27 -24 58 -24 92c0 64 27 125 125 174l45 20c-65 53 -100 109 -100 172
c0 109 103 176 270 176c166 0 264 -62 264 -178zM383 476c43 23 78 60 78 95c0 39 -35 59 -75 59c-43 0 -75 -24 -75 -59c0 -29 23 -53 72 -95zM369 109c39 0 82 12 109 44l-134 132c-61 -26 -90 -57 -90 -92c0 -45 44 -84 115 -84z" />
    <glyph glyph-name="quotesingle" unicode="'" horiz-adv-x="333" 
d="M88 693h157l-29 -266h-99z" />
    <glyph glyph-name="parenleft" unicode="(" horiz-adv-x="333" 
d="M166 753h130c-71 -246 -88 -308 -88 -436c0 -144 25 -243 89 -439h-132c-81 173 -118 310 -118 434c0 118 32 240 119 441z" />
    <glyph glyph-name="parenright" unicode=")" horiz-adv-x="333" 
d="M36 753h132c80 -166 118 -306 118 -433c0 -121 -34 -244 -119 -442h-130c80 271 88 329 88 437c0 143 -26 248 -89 438z" />
    <glyph glyph-name="asterisk" unicode="*" horiz-adv-x="556" 
d="M275 597l42 138l109 -68l-93 -102l137 30v-129l-134 31l95 -110l-114 -61l-43 135l-44 -136l-107 63l93 109l-137 -29v127l139 -30l-94 105l107 64z" />
    <glyph glyph-name="plus" unicode="+" horiz-adv-x="660" 
d="M259 538h143v-199h197v-140h-197v-199h-143v199h-198v140h198v199z" />
    <glyph glyph-name="comma" unicode="," horiz-adv-x="333" 
d="M89 149h188l-118 -268h-136z" />
    <glyph glyph-name="hyphen" unicode="-" horiz-adv-x="333" 
d="M22 323h284v-119h-284v119z" />
    <glyph glyph-name="period" unicode="." horiz-adv-x="333" 
d="M72 149h176v-149h-176v149z" />
    <glyph glyph-name="slash" unicode="/" horiz-adv-x="278" 
d="M189 727h125l-219 -743h-126z" />
    <glyph glyph-name="zero" unicode="0" 
d="M629 352c0 -239 -107 -366 -299 -366c-135 0 -210 59 -255 148c-31 60 -45 133 -45 216c0 131 39 250 126 314c44 32 100 49 171 49c116 0 188 -40 236 -111c42 -62 66 -135 66 -250zM328 118c31 0 57 14 73 35c35 47 34 180 34 191c0 38 -1 168 -39 211
c-16 18 -39 26 -65 26c-52 0 -74 -28 -87 -70c-14 -45 -18 -106 -18 -164c0 -171 30 -229 102 -229z" />
    <glyph glyph-name="one" unicode="1" 
d="M308 694h162v-694h-193v515c-40 -34 -129 -76 -169 -86v154c84 26 129 50 200 111z" />
    <glyph glyph-name="two" unicode="2" 
d="M600 518c0 -147 -147 -249 -328 -380h330v-138h-567v144c158 115 255 196 300 241c43 43 66 80 66 127c0 45 -27 70 -75 70c-47 0 -77 -24 -82 -81h-195c0 63 30 133 96 172c46 27 108 42 193 42c172 0 262 -81 262 -197z" />
    <glyph glyph-name="three" unicode="3" 
d="M608 532c0 -82 -64 -155 -161 -165v-5c115 -12 175 -70 175 -169c0 -65 -24 -107 -63 -139c-56 -46 -127 -67 -237 -67c-99 0 -180 17 -234 70c-34 33 -61 73 -63 143h194c3 -48 29 -84 101 -84c69 0 108 36 108 92c0 57 -38 89 -148 89c-17 0 -38 -1 -53 -2v124
c21 -1 39 -1 53 -1c43 0 74 6 96 18c31 18 42 46 42 74c0 48 -38 78 -93 78c-59 0 -89 -32 -90 -80h-193c5 133 113 208 289 208c170 0 277 -73 277 -184z" />
    <glyph glyph-name="four" unicode="4" 
d="M310 697h222v-432h112v-127h-112v-138h-180v138h-335v163zM355 265v285l-209 -285h209z" />
    <glyph glyph-name="five" unicode="5" 
d="M74 693h500v-136h-326l-12 -170c32 59 103 86 165 86c125 0 215 -85 215 -228c0 -151 -89 -260 -280 -260c-177 0 -287 78 -287 213h191c3 -53 38 -79 86 -79c66 0 95 48 95 118c0 68 -31 108 -90 108c-48 0 -74 -29 -79 -61l-192 2z" />
    <glyph glyph-name="six" unicode="6" 
d="M596 522h-183c-3 45 -35 73 -80 73c-55 0 -88 -42 -103 -94c-11 -38 -11 -82 -11 -120c37 59 97 87 178 87c71 0 127 -21 168 -63s62 -97 62 -164c0 -80 -27 -143 -81 -188c-53 -45 -126 -67 -204 -67c-101 0 -178 33 -229 98s-76 153 -76 264c0 232 110 365 309 365
c156 0 245 -71 250 -191zM341 115c71 0 110 47 110 116s-34 118 -107 118c-69 0 -110 -47 -110 -120c0 -75 42 -114 107 -114z" />
    <glyph glyph-name="seven" unicode="7" 
d="M46 691h566v-140l-276 -551h-223l292 550h-359v141z" />
    <glyph glyph-name="eight" unicode="8" 
d="M601 529c0 -80 -56 -146 -151 -162v-5c115 -12 176 -76 176 -169c0 -128 -101 -207 -289 -207c-195 0 -306 75 -306 202c0 85 55 156 183 177v3c-99 11 -156 73 -156 158c0 109 87 186 273 186c63 0 115 -8 155 -25c78 -33 115 -93 115 -158zM330 426c63 0 94 37 94 86
c0 44 -32 84 -95 84c-49 0 -94 -27 -94 -84c0 -48 27 -86 95 -86zM329 111c75 0 116 39 116 96c0 52 -35 99 -119 99c-72 0 -112 -42 -112 -98c0 -55 38 -97 115 -97z" />
    <glyph glyph-name="nine" unicode="9" 
d="M623 345c0 -152 -49 -269 -149 -325c-45 -25 -100 -36 -167 -36c-77 0 -144 14 -197 51c-43 30 -72 74 -74 143h184c1 -39 36 -69 92 -69c78 0 121 41 121 212c-45 -52 -95 -71 -162 -71c-44 0 -86 6 -118 21c-86 39 -122 129 -122 202c0 141 115 241 289 241
c145 0 227 -61 269 -168c22 -56 34 -124 34 -201zM317 369c76 0 110 45 110 108s-36 110 -109 110c-72 0 -107 -49 -107 -108c0 -65 39 -110 106 -110z" />
    <glyph glyph-name="colon" unicode=":" horiz-adv-x="333" 
d="M79 501h176v-149h-176v149zM79 149h176v-149h-176v149z" />
    <glyph glyph-name="semicolon" unicode=";" horiz-adv-x="333" 
d="M79 501h174v-149h-174v149zM89 149h188l-118 -268h-136z" />
    <glyph glyph-name="less" unicode="&#x3c;" horiz-adv-x="660" 
d="M599 551v-150l-371 -132l371 -131v-152l-538 210v146z" />
    <glyph glyph-name="equal" unicode="=" horiz-adv-x="660" 
d="M61 458h538v-141h-538v141zM61 221h538v-141h-538v141z" />
    <glyph glyph-name="greater" unicode="&#x3e;" horiz-adv-x="660" 
d="M62 401v150l537 -209v-146l-537 -210v152l370 131z" />
    <glyph glyph-name="question" unicode="?" horiz-adv-x="556" 
d="M518 549c0 -69 -16 -104 -137 -192c-51 -37 -65 -58 -65 -99v-65h-157v110c0 21 10 31 114 138c24 24 43 45 43 80c0 51 -40 91 -132 91c-46 0 -55 -2 -110 -17v130c54 10 108 15 159 15c188 0 285 -70 285 -191zM148 149h176v-149h-176v149z" />
    <glyph glyph-name="at" unicode="@" horiz-adv-x="740" 
d="M761 438c0 -142 -94 -263 -217 -263c-49 0 -90 33 -90 80c-36 -65 -90 -86 -135 -86c-85 0 -141 64 -141 159c0 124 92 245 207 245c45 0 88 -21 107 -62l12 45h109l-59 -202c-10 -34 -16 -61 -16 -69c0 -25 17 -38 37 -38c51 0 115 89 115 196c0 147 -118 238 -276 238
c-200 0 -339 -144 -339 -329c0 -178 132 -307 329 -307c100 0 193 38 272 99l37 -49c-17 -13 -90 -66 -185 -95c-40 -12 -84 -17 -129 -17c-238 0 -396 168 -396 372c0 220 182 388 410 388c197 0 348 -122 348 -305zM355 248c39 0 61 44 77 91c17 48 27 91 27 110
c0 32 -25 45 -44 45c-62 0 -108 -108 -108 -178c0 -52 25 -68 48 -68z" />
    <glyph glyph-name="A" unicode="A" horiz-adv-x="833" 
d="M293 722h244l285 -722h-226l-50 145h-289l-49 -145h-200zM407 581h-3l-100 -303h196z" />
    <glyph glyph-name="B" unicode="B" horiz-adv-x="722" 
d="M61 722h314c65 0 118 -5 159 -20c83 -31 121 -93 121 -163c0 -84 -50 -141 -154 -164v-2c119 -20 174 -82 174 -179c0 -55 -19 -97 -50 -128c-56 -56 -130 -66 -216 -66h-348v722zM255 431h106c41 0 62 6 77 24c10 12 19 30 19 55c0 43 -25 81 -85 81h-117v-160zM256 132
h114c64 0 100 28 100 84c0 60 -38 87 -107 87h-107v-171z" />
    <glyph glyph-name="C" unicode="C" horiz-adv-x="778" 
d="M732 495h-206c-9 72 -60 100 -117 100c-103 0 -158 -81 -158 -242c0 -149 54 -227 156 -227c71 0 112 34 121 105h208c-1 -160 -121 -245 -326 -245c-242 0 -366 137 -366 370c0 171 71 305 213 358c44 16 95 23 153 23c209 0 321 -97 322 -242z" />
    <glyph glyph-name="D" unicode="D" horiz-adv-x="833" 
d="M73 722h312c94 0 182 -13 242 -45c116 -61 162 -178 162 -315c0 -95 -19 -181 -69 -243c-56 -69 -139 -119 -326 -119h-321v722zM278 139h90c137 0 214 69 214 226c0 81 -22 164 -106 200c-46 19 -77 19 -198 20v-446z" />
    <glyph glyph-name="E" unicode="E" 
d="M69 720h542v-138h-344v-150h324v-138h-324v-154h352v-140h-550v720z" />
    <glyph glyph-name="F" unicode="F" horiz-adv-x="611" 
d="M71 720h511v-139h-312v-168h290v-139h-290v-274h-199v720z" />
    <glyph glyph-name="G" unicode="G" horiz-adv-x="833" 
d="M764 506h-203c-8 60 -53 96 -125 96c-121 0 -187 -97 -187 -241c0 -149 74 -240 214 -240c43 0 74 5 111 12v140h-153v137h341v-386c-109 -25 -207 -40 -318 -40c-110 0 -201 24 -265 71c-96 70 -140 181 -140 302c0 119 43 244 141 314c64 46 162 69 266 69
c209 0 318 -82 318 -234z" />
    <glyph glyph-name="H" unicode="H" horiz-adv-x="778" 
d="M65 722h202v-282h241v282h203v-722h-203v292h-242v-292h-201v722z" />
    <glyph glyph-name="I" unicode="I" horiz-adv-x="333" 
d="M60 722h206v-722h-206v722z" />
    <glyph glyph-name="J" unicode="J" horiz-adv-x="611" 
d="M344 722h203v-481c0 -84 -23 -148 -63 -186c-51 -48 -125 -71 -208 -71c-108 0 -208 31 -251 121c-14 30 -20 67 -20 111v15h199v-6c0 -64 20 -96 67 -96c48 0 73 27 73 104v489z" />
    <glyph glyph-name="K" unicode="K" horiz-adv-x="778" 
d="M76 722h203v-317l231 317h237l-249 -318l269 -404h-248l-240 384v-384h-203v722z" />
    <glyph glyph-name="L" unicode="L" horiz-adv-x="611" 
d="M67 722h203v-580h324v-142h-527v722z" />
    <glyph glyph-name="M" unicode="M" horiz-adv-x="1000" 
d="M612 722l314 1v-723h-188l9 606l-171 -606h-180l-165 611l5 -611h-173v722h315l120 -489z" />
    <glyph glyph-name="N" unicode="N" horiz-adv-x="833" 
d="M67 722h276l244 -538l-2 538h175v-722h-270l-249 561l2 -561h-176v722z" />
    <glyph glyph-name="O" unicode="O" horiz-adv-x="833" 
d="M423 742c233 0 364 -147 364 -384c0 -238 -152 -375 -376 -375c-222 0 -371 134 -371 374c0 124 38 231 111 297c65 59 172 88 272 88zM246 359c0 -149 56 -229 167 -229c112 0 167 83 167 232c0 143 -46 235 -167 235c-108 0 -167 -79 -167 -238z" />
    <glyph glyph-name="P" unicode="P" horiz-adv-x="722" 
d="M73 722h345c55 0 99 -4 136 -18c98 -37 141 -120 141 -215c0 -79 -35 -157 -109 -197c-55 -30 -122 -31 -214 -31c-33 0 -66 -1 -98 -1v-260h-201v722zM274 398h94c64 0 89 14 106 35c13 16 17 39 17 62c0 60 -33 93 -117 93h-100v-190z" />
    <glyph glyph-name="Q" unicode="Q" horiz-adv-x="833" 
d="M421 741c51 0 97 -6 137 -18c147 -46 229 -178 229 -335c0 -119 -43 -213 -140 -275c25 7 64 18 142 18c9 0 20 -1 31 -1v-129h-210c-21 0 -220 -10 -230 -10c-199 0 -338 142 -338 354c0 245 129 396 379 396zM246 359c0 -149 56 -229 167 -229c109 0 167 79 167 231
c0 80 -18 172 -73 211c-24 17 -56 25 -94 25c-108 0 -167 -79 -167 -238z" />
    <glyph glyph-name="R" unicode="R" horiz-adv-x="722" 
d="M65 722h344c80 0 133 -5 162 -18c60 -27 100 -81 100 -174c0 -36 -6 -66 -20 -89c-32 -52 -98 -74 -156 -82v-4c138 -5 149 -65 163 -168c7 -50 13 -113 35 -187h-217c-7 25 -13 58 -17 98l-9 88c-8 77 -26 96 -100 96h-84v-282h-201v722zM266 589v-177h110
c39 0 66 8 83 30c10 13 18 33 18 58c0 59 -30 89 -123 89h-88z" />
    <glyph glyph-name="S" unicode="S" horiz-adv-x="722" 
d="M358 740c197 0 295 -73 295 -226v-4h-203v4c0 65 -34 96 -96 96c-57 0 -94 -33 -94 -76c0 -37 19 -60 76 -75l133 -34c48 -12 89 -25 120 -43c60 -34 89 -87 89 -165c0 -150 -122 -233 -319 -233c-205 0 -317 83 -317 246h201c0 -74 42 -112 121 -112c65 0 108 26 108 82
c0 36 -19 58 -59 69l-183 48c-89 23 -127 57 -150 95c-19 31 -26 66 -26 102c0 136 112 226 304 226z" />
    <glyph glyph-name="T" unicode="T" 
d="M10 722h647v-143h-225v-579h-202v579h-220v143z" />
    <glyph glyph-name="U" unicode="U" horiz-adv-x="833" 
d="M72 722h202v-432c0 -37 3 -66 14 -89c26 -56 80 -76 132 -76c96 0 144 58 144 173v424h195v-419c0 -124 -23 -212 -111 -267c-53 -33 -130 -55 -235 -55c-141 0 -260 34 -313 147c-20 42 -29 96 -29 162z" />
    <glyph glyph-name="V" unicode="V" horiz-adv-x="778" 
d="M9 722h221l164 -523l173 523h199l-263 -722h-239z" />
    <glyph glyph-name="W" unicode="W" horiz-adv-x="1000" 
d="M8 722h199l67 -526l118 524l1 2h244l107 -522l67 522h181l-124 -722h-240l-125 535l-133 -535h-239z" />
    <glyph glyph-name="X" unicode="X" horiz-adv-x="833" 
d="M28 722h258l141 -224l146 224h230l-257 -342l270 -380h-256l-158 257l-160 -257h-234l274 376z" />
    <glyph glyph-name="Y" unicode="Y" horiz-adv-x="778" 
d="M6 722h232l158 -303l163 303h206l-282 -467v-255h-202v264z" />
    <glyph glyph-name="Z" unicode="Z" 
d="M37 720h588v-154l-372 -426h380v-140h-616v159l360 422h-340v139z" />
    <glyph glyph-name="bracketleft" unicode="[" horiz-adv-x="333" 
d="M59 755h278v-102h-137v-672h137v-104h-278v878z" />
    <glyph glyph-name="backslash" unicode="\" horiz-adv-x="278" 
d="M-31 727h125l220 -743h-126z" />
    <glyph glyph-name="bracketright" unicode="]" horiz-adv-x="333" 
d="M-14 755h278v-878h-278v104h136v672h-136v102z" />
    <glyph glyph-name="asciicircum" unicode="^" horiz-adv-x="660" 
d="M266 722h128l182 -436h-150l-97 265l-95 -265h-150z" />
    <glyph glyph-name="underscore" unicode="_" horiz-adv-x="500" 
d="M0 -75h500v-50h-500v50z" />
    <glyph glyph-name="grave" unicode="`" horiz-adv-x="333" 
d="M-50 726h208l107 -145h-129z" />
    <glyph glyph-name="a" unicode="a" horiz-adv-x="611" 
d="M305 520c48 0 97 -6 137 -20c64 -22 108 -68 108 -166v-244c0 -22 3 -52 10 -90h-180c-4 19 -6 37 -6 72c-41 -64 -98 -82 -165 -82c-115 0 -177 60 -177 156c0 116 90 179 301 179c7 0 21 0 42 -1v10c0 71 -22 94 -63 94c-35 0 -67 -20 -67 -72v-4h-180
c0 58 19 87 49 114c45 40 133 54 191 54zM217 163c0 -37 24 -68 69 -68c42 0 70 27 82 69c6 21 6 46 6 73h-17c-111 0 -140 -27 -140 -74z" />
    <glyph glyph-name="b" unicode="b" 
d="M61 722h189v-273c35 43 91 66 160 66s161 -32 200 -138c12 -34 17 -77 17 -128c0 -89 -24 -151 -67 -195c-39 -40 -86 -65 -156 -65c-72 0 -126 30 -167 85l-6 -74h-176c1 13 6 97 6 109v613zM244 254c0 -89 32 -152 95 -152c61 0 94 50 94 153c0 100 -30 151 -91 151
c-64 0 -98 -58 -98 -152z" />
    <glyph glyph-name="c" unicode="c" horiz-adv-x="611" 
d="M321 519c151 0 247 -70 253 -193h-186c0 47 -18 86 -67 86c-57 0 -85 -46 -85 -159c0 -99 19 -159 83 -159c48 0 68 35 68 102h190c0 -130 -103 -208 -253 -208c-173 0 -282 97 -282 266c0 172 109 265 279 265z" />
    <glyph glyph-name="d" unicode="d" 
d="M415 722h188v-605c0 -13 0 -37 5 -117h-178l-4 74c-40 -61 -95 -86 -170 -86c-143 0 -222 100 -222 263c0 51 7 104 28 145c34 65 100 117 200 117c63 0 105 -17 153 -70v279zM229 250c0 -92 32 -151 93 -151c64 0 95 63 95 154c0 87 -29 150 -94 150
c-60 0 -94 -60 -94 -153z" />
    <glyph glyph-name="e" unicode="e" horiz-adv-x="611" 
d="M304 520c76 0 131 -15 176 -49c48 -37 91 -97 91 -235v-23h-360v-5c0 -76 34 -117 96 -117c51 0 81 27 86 73h175c-11 -109 -109 -175 -262 -175c-176 0 -269 88 -269 254c0 181 94 277 267 277zM213 315h181c-4 73 -36 105 -90 105c-53 0 -86 -34 -91 -105z" />
    <glyph glyph-name="f" unicode="f" horiz-adv-x="444" 
d="M317 725c47 0 85 -2 110 -6v-121c-9 3 -27 6 -51 6c-50 0 -75 -25 -75 -81v-23h121v-122h-121v-378h-184v378h-97v122h100c0 12 -1 23 -1 35c0 52 6 114 46 149c33 28 77 40 152 41z" />
    <glyph glyph-name="g" unicode="g" 
d="M262 514c75 0 129 -26 166 -85v76h177v-473c0 -95 -36 -147 -95 -184c-49 -30 -113 -46 -186 -46c-164 0 -261 57 -261 166v5h177c1 -37 27 -64 82 -64c67 0 100 33 100 113v75c-32 -49 -91 -81 -163 -81c-126 0 -222 87 -222 249c0 152 86 249 225 249zM231 267
c0 -93 34 -140 95 -140c63 0 93 51 93 142c0 89 -31 140 -91 140c-63 0 -97 -57 -97 -142z" />
    <glyph glyph-name="h" unicode="h" 
d="M65 722h190v-275c44 45 96 66 157 66c77 0 148 -37 175 -99c13 -31 15 -69 15 -109v-305h-187v280c0 99 -42 114 -78 114c-68 0 -84 -63 -84 -122v-272h-188v722z" />
    <glyph glyph-name="i" unicode="i" horiz-adv-x="333" 
d="M67 720h192v-134h-192v134zM69 502h188v-502h-188v502z" />
    <glyph glyph-name="j" unicode="j" horiz-adv-x="333" 
d="M71 720h192v-134h-192v134zM72 502h190v-541c0 -38 -7 -71 -21 -96c-22 -38 -65 -61 -176 -61c-17 0 -37 1 -60 2v123c5 -1 11 -1 16 -1c50 0 51 40 51 74v500z" />
    <glyph glyph-name="k" unicode="k" 
d="M74 722h184v-442l172 222h208l-171 -212l196 -290h-226l-179 279v-279h-184v722z" />
    <glyph glyph-name="l" unicode="l" horiz-adv-x="333" 
d="M69 722h188v-722h-188v722z" />
    <glyph glyph-name="m" unicode="m" horiz-adv-x="1000" 
d="M750 515c45 0 82 -11 111 -31c60 -41 74 -87 74 -195v-289h-188v296c0 80 -29 99 -75 99c-45 0 -80 -28 -80 -97v-298h-188v297c0 77 -29 98 -75 98c-53 0 -80 -38 -80 -105v-290h-188v390c0 7 -4 102 -4 112h186c1 -27 2 -55 2 -83c36 65 95 95 170 95
c79 0 139 -37 158 -93c33 57 97 94 177 94z" />
    <glyph glyph-name="n" unicode="n" 
d="M416 513c150 0 184 -89 184 -200v-313h-188v299c0 64 -25 95 -77 95c-54 0 -84 -37 -84 -104v-290h-187v386c0 11 -1 29 -2 53l-3 63h188c1 -28 2 -52 2 -77c37 63 92 88 167 88z" />
    <glyph glyph-name="o" unicode="o" 
d="M622 259c0 -151 -83 -271 -282 -271s-302 97 -302 265c0 164 106 266 294 266c167 0 290 -86 290 -260zM331 93c64 0 97 59 97 159c0 105 -31 160 -97 160c-65 0 -98 -55 -98 -160c0 -42 5 -76 16 -103c14 -35 39 -56 82 -56z" />
    <glyph glyph-name="p" unicode="p" 
d="M404 515c132 0 219 -92 219 -254c0 -174 -91 -271 -224 -271c-60 0 -111 20 -151 70v-250h-188v610c0 13 -1 41 -4 82h184c1 -35 2 -59 2 -71c46 67 107 84 162 84zM244 253c0 -97 32 -151 91 -151c64 0 95 57 95 160c0 85 -27 145 -91 145c-61 0 -95 -53 -95 -154z" />
    <glyph glyph-name="q" unicode="q" 
d="M250 513c71 0 123 -24 168 -84c0 13 1 37 2 73h182c-3 -39 -5 -64 -5 -76v-616h-187v254c-52 -65 -112 -74 -158 -74c-85 0 -149 41 -185 104c-24 42 -35 95 -35 152c0 73 19 144 58 193s93 74 160 74zM227 250c0 -89 29 -152 88 -152c61 0 97 55 97 155
c0 103 -36 151 -93 151c-60 0 -92 -50 -92 -154z" />
    <glyph glyph-name="r" unicode="r" horiz-adv-x="444" 
d="M425 506v-161c-23 3 -27 3 -40 3c-92 0 -131 -53 -131 -132v-216h-187v382c0 32 -3 82 -5 120h183c2 -52 3 -87 3 -104c26 69 75 108 159 108h18z" />
    <glyph glyph-name="s" unicode="s" horiz-adv-x="556" 
d="M277 516c157 0 226 -65 230 -169h-178v6c0 49 -18 70 -58 70c-31 0 -57 -13 -57 -44c0 -29 20 -40 57 -50l122 -33c59 -16 88 -38 104 -63c15 -23 20 -48 20 -77c0 -107 -79 -170 -242 -170c-82 0 -136 12 -176 36c-50 30 -70 80 -70 133v8h186v-4c0 -44 19 -72 63 -72
c43 0 57 28 57 51c0 36 -29 44 -78 58l-80 23c-64 14 -93 36 -112 60c-16 21 -25 50 -25 80c0 89 75 157 237 157z" />
    <glyph glyph-name="t" unicode="t" horiz-adv-x="444" 
d="M292 650v-150h119v-120h-121v-180c0 -30 2 -49 10 -62c11 -18 33 -22 63 -22c17 0 27 0 47 3v-118c-49 -7 -68 -9 -120 -9c-131 0 -182 33 -182 143v245h-95v120h98v78z" />
    <glyph glyph-name="u" unicode="u" 
d="M405 502h188v-404c0 -11 1 -44 3 -98h-185l-4 78c-32 -50 -73 -87 -158 -87c-125 0 -185 66 -185 217v294h187v-296c0 -69 28 -95 75 -95c53 0 79 29 79 97v294z" />
    <glyph glyph-name="v" unicode="v" horiz-adv-x="611" 
d="M9 502h202l100 -352l107 352h177l-190 -502h-205z" />
    <glyph glyph-name="w" unicode="w" horiz-adv-x="944" 
d="M7 502h192l82 -356l89 356h210l88 -354l89 354h168l-158 -502h-210l-92 350l-99 -350h-206z" />
    <glyph glyph-name="x" unicode="x" horiz-adv-x="611" 
d="M32 502h219l64 -154l67 154h192l-154 -240l170 -262h-222l-79 186l-83 -186h-194l169 262z" />
    <glyph glyph-name="y" unicode="y" horiz-adv-x="611" 
d="M8 502h203l100 -349l109 349h175l-273 -692h-175l71 174z" />
    <glyph glyph-name="z" unicode="z" horiz-adv-x="556" 
d="M51 501h444v-124l-244 -258h256v-119h-467v127l241 253h-230v121z" />
    <glyph glyph-name="braceleft" unicode="{" horiz-adv-x="333" 
d="M351 755v-90c-79 -5 -110 -47 -110 -125v-46c0 -116 -61 -173 -163 -178c114 -11 163 -66 163 -173v-39c0 -91 28 -134 110 -137v-90c-67 3 -119 14 -155 32c-69 35 -100 76 -100 195v35c0 72 -15 110 -114 130v94c76 12 114 48 114 132v29c0 53 6 99 24 132
c34 64 115 92 231 99z" />
    <glyph glyph-name="bar" unicode="|" horiz-adv-x="278" 
d="M68 750h142v-1000h-142v1000z" />
    <glyph glyph-name="braceright" unicode="}" horiz-adv-x="333" 
d="M-18 -123v90c41 3 69 16 86 37c19 24 24 62 24 88v46c0 70 17 101 46 132c27 29 67 44 118 46c-65 6 -115 25 -142 73c-15 26 -22 57 -22 105v34c0 36 -4 63 -11 79c-13 32 -43 57 -99 58v90c67 -3 118 -14 153 -31c36 -17 63 -40 78 -67c16 -27 24 -73 24 -129v-35
c0 -32 3 -50 8 -63c11 -29 41 -56 106 -67v-94c-72 -11 -114 -45 -114 -130v-31c0 -60 -8 -104 -25 -132c-32 -57 -101 -92 -230 -99z" />
    <glyph glyph-name="asciitilde" unicode="~" horiz-adv-x="660" 
d="M207 371c26 0 82 -17 135 -33c47 -14 92 -27 116 -27c33 0 51 15 58 57h92c-12 -128 -70 -201 -155 -201c-33 0 -88 17 -139 33c-47 15 -91 29 -115 29c-33 0 -51 -25 -56 -57h-91c9 128 79 199 155 199z" />
    <glyph glyph-name="uni00A0" unicode="&#xa0;" horiz-adv-x="333" 
 />
    <glyph glyph-name="Agrave" unicode="&#xc0;" horiz-adv-x="833" 
d="M293 722h244l285 -722h-226l-50 145h-289l-49 -145h-200zM407 581h-3l-100 -303h196zM200 946h208l107 -145h-129z" />
    <glyph glyph-name="Aacute" unicode="&#xc1;" horiz-adv-x="833" 
d="M293 722h244l285 -722h-226l-50 145h-289l-49 -145h-200zM407 581h-3l-100 -303h196zM412 946h204l-183 -145h-132z" />
    <glyph glyph-name="Acircumflex" unicode="&#xc2;" horiz-adv-x="833" 
d="M293 722h244l285 -722h-226l-50 145h-289l-49 -145h-200zM407 581h-3l-100 -303h196zM328 946h169l120 -145h-130l-74 77l-74 -77h-130z" />
    <glyph glyph-name="Atilde" unicode="&#xc3;" horiz-adv-x="833" 
d="M293 722h244l285 -722h-226l-50 145h-289l-49 -145h-200zM407 581h-3l-100 -303h196zM542 944h81c-10 -87 -69 -144 -140 -144c-19 0 -41 6 -54 10l-78 23c-23 7 -30 8 -43 8c-24 0 -41 -13 -48 -40h-78c5 84 67 146 146 146c27 0 40 -4 73 -14l77 -22c13 -4 20 -6 31 -6
c23 0 31 16 33 39z" />
    <glyph glyph-name="Adieresis" unicode="&#xc4;" horiz-adv-x="833" 
d="M293 722h244l285 -722h-226l-50 145h-289l-49 -145h-200zM407 581h-3l-100 -303h196zM199 946h171v-145h-171v145zM462 946h171v-145h-171v145z" />
    <glyph glyph-name="Amacron" unicode="&#x100;" horiz-adv-x="833" 
d="M293 722h244l285 -722h-226l-50 145h-289l-49 -145h-200zM407 581h-3l-100 -303h196zM216 910h382v-76h-382v76z" />
    <glyph glyph-name="Abreve" unicode="&#x102;" horiz-adv-x="833" 
d="M293 722h244l285 -722h-226l-50 145h-289l-49 -145h-200zM407 581h-3l-100 -303h196zM212 946h82c7 -44 46 -69 113 -69c61 0 97 18 115 69h77c-13 -102 -84 -154 -193 -154c-106 0 -187 46 -194 154z" />
    <glyph glyph-name="Aring" unicode="&#xc5;" horiz-adv-x="833" 
d="M293 722h244l285 -722h-226l-50 145h-289l-49 -145h-200zM407 581h-3l-100 -303h196zM529 873c0 -61 -51 -112 -112 -112c-59 0 -112 50 -112 112c0 63 49 113 112 113c62 0 112 -54 112 -113zM417 820c29 0 53 24 53 53c0 31 -24 54 -53 54c-31 0 -53 -23 -53 -54
c0 -29 22 -53 53 -53z" />
    <glyph glyph-name="Aringacute" unicode="&#x1fa;" horiz-adv-x="833" 
d="M447 1056h204l-183 -145h-132zM530 783c0 -23 -6 -43 -19 -61h26l285 -722h-226l-50 145h-289l-49 -145h-200l285 722h31c-11 17 -18 38 -18 61c0 63 49 113 112 113c61 0 112 -53 112 -113zM418 730c29 0 53 24 53 53c0 31 -23 54 -54 54c-29 0 -52 -23 -52 -54
c0 -29 22 -53 53 -53zM407 581h-3l-100 -303h196z" />
    <glyph glyph-name="Aogonek" unicode="&#x104;" horiz-adv-x="833" 
d="M293 722h244l285 -722h-172c-53 -41 -66 -64 -66 -96c0 -39 19 -59 56 -59c16 0 26 4 39 12v-48c-36 -18 -54 -26 -91 -26c-63 0 -98 32 -98 75c0 51 43 107 115 142h-9l-50 145h-289l-49 -145h-200zM407 581h-3l-100 -303h196z" />
    <glyph glyph-name="AE" unicode="&#xc6;" horiz-adv-x="1000" 
d="M324 722h628v-140h-318l16 -149h273v-140h-258l15 -153h272v-140h-450l-16 143h-226l-55 -143h-198zM440 597h-5l-124 -314h162z" />
    <glyph glyph-name="AEacute" unicode="&#x1fc;" horiz-adv-x="1000" 
d="M324 722h628v-140h-318l16 -149h273v-140h-258l15 -153h272v-140h-450l-16 143h-226l-55 -143h-198zM440 597h-5l-124 -314h162zM613 946h204l-183 -145h-132z" />
    <glyph glyph-name="Cacute" unicode="&#x106;" horiz-adv-x="778" 
d="M732 495h-206c-9 72 -60 100 -117 100c-103 0 -158 -81 -158 -242c0 -149 54 -227 156 -227c71 0 112 34 121 105h208c-1 -160 -121 -245 -326 -245c-242 0 -366 137 -366 370c0 171 71 305 213 358c44 16 95 23 153 23c209 0 321 -97 322 -242zM422 946h204l-183 -145
h-132z" />
    <glyph glyph-name="Ccircumflex" unicode="&#x108;" horiz-adv-x="778" 
d="M732 495h-206c-9 72 -60 100 -117 100c-103 0 -158 -81 -158 -242c0 -149 54 -227 156 -227c71 0 112 34 121 105h208c-1 -160 -121 -245 -326 -245c-242 0 -366 137 -366 370c0 171 71 305 213 358c44 16 95 23 153 23c209 0 321 -97 322 -242zM319 946h169l120 -145
h-130l-74 77l-74 -77h-130z" />
    <glyph glyph-name="Ccaron" unicode="&#x10c;" horiz-adv-x="778" 
d="M732 495h-206c-9 72 -60 100 -117 100c-103 0 -158 -81 -158 -242c0 -149 54 -227 156 -227c71 0 112 34 121 105h208c-1 -160 -121 -245 -326 -245c-242 0 -366 137 -366 370c0 171 71 305 213 358c44 16 95 23 153 23c209 0 321 -97 322 -242zM208 946h126l77 -79
l76 79h127l-120 -145h-167z" />
    <glyph glyph-name="Cdotaccent" unicode="&#x10a;" horiz-adv-x="778" 
d="M732 495h-206c-9 72 -60 100 -117 100c-103 0 -158 -81 -158 -242c0 -149 54 -227 156 -227c71 0 112 34 121 105h208c-1 -160 -121 -245 -326 -245c-242 0 -366 137 -366 370c0 171 71 305 213 358c44 16 95 23 153 23c209 0 321 -97 322 -242zM321 946h171v-145h-171
v145z" />
    <glyph glyph-name="Ccedilla" unicode="&#xc7;" horiz-adv-x="778" 
d="M411 737c207 0 319 -96 321 -242h-206c-9 72 -60 100 -117 100c-101 0 -158 -81 -158 -242c0 -149 54 -227 156 -227c68 0 112 32 121 105h208v-5c0 -147 -110 -236 -318 -240l-26 -48c11 1 22 3 34 3c69 0 98 -37 98 -74c0 -49 -46 -85 -134 -85c-40 0 -79 5 -115 20
l13 45c25 -12 53 -22 92 -22s54 15 54 39c0 27 -27 37 -50 37c-15 0 -26 -4 -38 -9l-23 20l45 76c-225 14 -324 162 -324 368c0 178 79 318 231 364c40 12 85 17 136 17z" />
    <glyph glyph-name="Dcaron" unicode="&#x10e;" horiz-adv-x="833" 
d="M73 722h312c94 0 182 -13 242 -45c116 -61 162 -178 162 -315c0 -95 -19 -181 -69 -243c-56 -69 -139 -119 -326 -119h-321v722zM278 139h90c137 0 214 69 214 226c0 81 -22 164 -106 200c-46 19 -77 19 -198 20v-446zM166 946h126l77 -79l76 79h127l-120 -145h-167z" />
    <glyph glyph-name="Dcroat" unicode="&#x110;" horiz-adv-x="833" 
d="M67 722h311c270 0 405 -120 405 -361c0 -243 -137 -361 -405 -361h-311v350h-62v86h62v286zM267 436h157v-86h-157v-210h97c115 0 209 82 209 221c0 138 -93 221 -209 221h-97v-146z" />
    <glyph glyph-name="Eth" unicode="&#xd0;" horiz-adv-x="833" 
d="M67 722h311c270 0 405 -120 405 -361c0 -243 -137 -361 -405 -361h-311v350h-62v86h62v286zM267 436h157v-86h-157v-210h97c115 0 209 82 209 221c0 138 -93 221 -209 221h-97v-146z" />
    <glyph glyph-name="Egrave" unicode="&#xc8;" 
d="M69 720h542v-138h-344v-150h324v-138h-324v-154h352v-140h-550v720zM117 946h208l107 -145h-129z" />
    <glyph glyph-name="Eacute" unicode="&#xc9;" 
d="M69 720h542v-138h-344v-150h324v-138h-324v-154h352v-140h-550v720zM347 946h204l-183 -145h-132z" />
    <glyph glyph-name="Ecircumflex" unicode="&#xca;" 
d="M69 720h542v-138h-344v-150h324v-138h-324v-154h352v-140h-550v720zM245 946h169l120 -145h-130l-74 77l-74 -77h-130z" />
    <glyph glyph-name="Ecaron" unicode="&#x11a;" 
d="M69 720h542v-138h-344v-150h324v-138h-324v-154h352v-140h-550v720zM144 946h126l77 -79l76 79h127l-120 -145h-167z" />
    <glyph glyph-name="Edieresis" unicode="&#xcb;" 
d="M69 720h542v-138h-344v-150h324v-138h-324v-154h352v-140h-550v720zM116 946h171v-145h-171v145zM379 946h171v-145h-171v145z" />
    <glyph glyph-name="Emacron" unicode="&#x112;" 
d="M69 720h542v-138h-344v-150h324v-138h-324v-154h352v-140h-550v720zM151 910h382v-76h-382v76z" />
    <glyph glyph-name="Ebreve" unicode="&#x114;" 
d="M69 720h542v-138h-344v-150h324v-138h-324v-154h352v-140h-550v720zM151 946h82c7 -44 46 -69 113 -69c61 0 97 18 115 69h77c-13 -102 -84 -154 -193 -154c-106 0 -187 46 -194 154z" />
    <glyph glyph-name="Edotaccent" unicode="&#x116;" 
d="M69 720h542v-138h-344v-150h324v-138h-324v-154h352v-140h-550v720zM273 946h171v-145h-171v145z" />
    <glyph glyph-name="Eogonek" unicode="&#x118;" 
d="M69 722h542v-140h-344v-150h324v-138h-324v-154h352v-140h-38c-52 -40 -66 -64 -66 -96c0 -39 20 -59 55 -59c17 0 27 4 40 12v-48c-36 -18 -55 -26 -91 -26c-64 0 -98 34 -98 75c0 51 43 106 115 142h-467v722z" />
    <glyph glyph-name="Gcircumflex" unicode="&#x11c;" horiz-adv-x="833" 
d="M764 506h-203c-8 60 -53 96 -125 96c-121 0 -187 -97 -187 -241c0 -149 74 -240 214 -240c43 0 74 5 111 12v140h-153v137h341v-386c-109 -25 -207 -40 -318 -40c-110 0 -201 24 -265 71c-96 70 -140 181 -140 302c0 119 43 244 141 314c64 46 162 69 266 69
c209 0 318 -82 318 -234zM347 946h169l120 -145h-130l-74 77l-74 -77h-130z" />
    <glyph glyph-name="Gbreve" unicode="&#x11e;" horiz-adv-x="833" 
d="M764 506h-203c-8 60 -53 96 -125 96c-121 0 -187 -97 -187 -241c0 -149 74 -240 214 -240c43 0 74 5 111 12v140h-153v137h341v-386c-109 -25 -207 -40 -318 -40c-110 0 -201 24 -265 71c-96 70 -140 181 -140 302c0 119 43 244 141 314c64 46 162 69 266 69
c209 0 318 -82 318 -234zM244 946h82c7 -44 46 -69 113 -69c61 0 97 18 115 69h77c-13 -102 -84 -154 -193 -154c-106 0 -187 46 -194 154z" />
    <glyph glyph-name="Gdotaccent" unicode="&#x120;" horiz-adv-x="833" 
d="M764 506h-203c-8 60 -53 96 -125 96c-121 0 -187 -97 -187 -241c0 -149 74 -240 214 -240c43 0 74 5 111 12v140h-153v137h341v-386c-109 -25 -207 -40 -318 -40c-110 0 -201 24 -265 71c-96 70 -140 181 -140 302c0 119 43 244 141 314c64 46 162 69 266 69
c209 0 318 -82 318 -234zM351 946h171v-145h-171v145z" />
    <glyph glyph-name="Gcommaaccent" unicode="&#x122;" horiz-adv-x="833" 
d="M764 506h-203c-8 60 -53 96 -125 96c-121 0 -187 -97 -187 -241c0 -149 74 -240 214 -240c43 0 74 5 111 12v140h-153v137h341v-386c-109 -25 -207 -40 -318 -40c-110 0 -201 24 -265 71c-96 70 -140 181 -140 302c0 119 43 244 141 314c64 46 162 69 266 69
c209 0 318 -82 318 -234zM374 -65h164l-120 -158h-92z" />
    <glyph glyph-name="Hcircumflex" unicode="&#x124;" horiz-adv-x="778" 
d="M65 722h202v-282h241v282h203v-722h-203v292h-242v-292h-201v722zM307 946h169l120 -145h-130l-74 77l-74 -77h-130z" />
    <glyph glyph-name="Hbar" unicode="&#x126;" horiz-adv-x="778" 
d="M65 722h202v-116h241v116h203v-722h-203v292h-242v-292h-201v722zM267 440h241v90h-241v-90z" />
    <glyph glyph-name="Igrave" unicode="&#xcc;" horiz-adv-x="333" 
d="M60 722h206v-722h-206v722zM-50 946h208l107 -145h-129z" />
    <glyph glyph-name="Iacute" unicode="&#xcd;" horiz-adv-x="333" 
d="M60 722h206v-722h-206v722zM168 946h204l-183 -145h-132z" />
    <glyph glyph-name="Ibreve" unicode="&#x12c;" horiz-adv-x="333" 
d="M60 722h206v-722h-206v722zM-27 946h82c7 -44 46 -69 113 -69c61 0 97 18 115 69h77c-13 -102 -84 -154 -193 -154c-106 0 -187 46 -194 154z" />
    <glyph glyph-name="Icircumflex" unicode="&#xce;" horiz-adv-x="333" 
d="M67 722h206v-722h-206v722zM85 946h169l120 -145h-130l-74 77l-74 -77h-130z" />
    <glyph glyph-name="Itilde" unicode="&#x128;" horiz-adv-x="333" 
d="M60 722h206v-722h-206v722zM309 944h81c-10 -87 -69 -144 -140 -144c-19 0 -41 6 -54 10l-78 23c-23 7 -30 8 -43 8c-24 0 -41 -13 -48 -40h-78c5 84 67 146 146 146c27 0 40 -4 73 -14l77 -22c13 -4 20 -6 31 -6c23 0 31 16 33 39z" />
    <glyph glyph-name="Idieresis" unicode="&#xcf;" horiz-adv-x="333" 
d="M60 722h206v-722h-206v722zM-51 946h171v-145h-171v145zM212 946h171v-145h-171v145z" />
    <glyph glyph-name="Imacron" unicode="&#x12a;" horiz-adv-x="333" 
d="M60 722h206v-722h-206v722zM-25 910h382v-76h-382v76z" />
    <glyph glyph-name="Idotaccent" unicode="&#x130;" horiz-adv-x="333" 
d="M60 722h206v-722h-206v722zM84 946h171v-145h-171v145z" />
    <glyph glyph-name="Iogonek" unicode="&#x12e;" horiz-adv-x="333" 
d="M60 722h206v-722h-96c-52 -40 -66 -63 -66 -96c0 -39 17 -59 56 -59c16 0 26 5 39 12v-48c-36 -19 -54 -26 -91 -26c-64 0 -98 34 -98 75c0 51 43 107 115 142h-65v722z" />
    <glyph glyph-name="Jcircumflex" unicode="&#x134;" horiz-adv-x="611" 
d="M344 722h203v-481c0 -84 -23 -148 -63 -186c-51 -48 -125 -71 -208 -71c-108 0 -208 31 -251 121c-14 30 -20 67 -20 111v15h199v-6c0 -64 20 -96 67 -96c48 0 73 27 73 104v489zM355 946h169l120 -145h-130l-74 77l-74 -77h-130z" />
    <glyph glyph-name="Kcommaaccent" unicode="&#x136;" horiz-adv-x="778" 
d="M76 722h203v-317l231 317h237l-249 -318l269 -404h-248l-240 384v-384h-203v722zM287 -65h164l-120 -158h-92z" />
    <glyph glyph-name="Lacute" unicode="&#x139;" horiz-adv-x="611" 
d="M67 722h203v-580h324v-142h-527v722zM214 946h204l-183 -145h-132z" />
    <glyph glyph-name="Lcaron" unicode="&#x13d;" horiz-adv-x="611" 
d="M67 722h203v-580h324v-142h-527v722zM443 721h164l-120 -158h-92z" />
    <glyph glyph-name="Lcommaaccent" unicode="&#x13b;" horiz-adv-x="611" 
d="M67 722h203v-580h324v-142h-527v722zM240 -65h164l-120 -158h-92z" />
    <glyph glyph-name="Lslash" unicode="&#x141;" horiz-adv-x="611" 
d="M66 722h204v-234l181 104v-97l-181 -104v-249h324v-142h-527v274l-79 -45v97l78 46v350z" />
    <glyph glyph-name="Ldot" unicode="&#x13f;" horiz-adv-x="611" 
d="M67 722h203v-580h324v-142h-527v722zM388 521h171v-145h-171v145z" />
    <glyph glyph-name="Nacute" unicode="&#x143;" horiz-adv-x="833" 
d="M67 722h276l244 -538l-2 538h175v-722h-270l-249 561l2 -561h-176v722zM430 946h204l-183 -145h-132z" />
    <glyph glyph-name="Ncaron" unicode="&#x147;" horiz-adv-x="833" 
d="M67 722h276l244 -538l-2 538h175v-722h-270l-249 561l2 -561h-176v722zM213 946h126l77 -79l76 79h127l-120 -145h-167z" />
    <glyph glyph-name="Ntilde" unicode="&#xd1;" horiz-adv-x="833" 
d="M67 722h276l244 -538l-2 538h175v-722h-270l-249 561l2 -561h-176v722zM554 944h81c-10 -87 -69 -144 -140 -144c-19 0 -41 6 -54 10l-78 23c-23 7 -30 8 -43 8c-24 0 -41 -13 -48 -40h-78c5 84 67 146 146 146c27 0 40 -4 73 -14l77 -22c13 -4 20 -6 31 -6
c23 0 31 16 33 39z" />
    <glyph glyph-name="Ncommaaccent" unicode="&#x145;" horiz-adv-x="833" 
d="M67 722h276l244 -538l-2 538h175v-722h-270l-249 561l2 -561h-176v722zM367 -65h164l-120 -158h-92z" />
    <glyph glyph-name="Ograve" unicode="&#xd2;" horiz-adv-x="833" 
d="M423 742c233 0 364 -147 364 -384c0 -238 -152 -375 -376 -375c-222 0 -371 134 -371 374c0 124 38 231 111 297c65 59 172 88 272 88zM246 359c0 -149 56 -229 167 -229c112 0 167 83 167 232c0 143 -46 235 -167 235c-108 0 -167 -79 -167 -238zM200 946h208l107 -145
h-129z" />
    <glyph glyph-name="Oacute" unicode="&#xd3;" horiz-adv-x="833" 
d="M423 742c233 0 364 -147 364 -384c0 -238 -152 -375 -376 -375c-222 0 -371 134 -371 374c0 124 38 231 111 297c65 59 172 88 272 88zM246 359c0 -149 56 -229 167 -229c112 0 167 83 167 232c0 143 -46 235 -167 235c-108 0 -167 -79 -167 -238zM430 946h204l-183 -145
h-132z" />
    <glyph glyph-name="Ocircumflex" unicode="&#xd4;" horiz-adv-x="833" 
d="M423 742c233 0 364 -147 364 -384c0 -238 -152 -375 -376 -375c-222 0 -371 134 -371 374c0 124 38 231 111 297c65 59 172 88 272 88zM246 359c0 -149 56 -229 167 -229c112 0 167 83 167 232c0 143 -46 235 -167 235c-108 0 -167 -79 -167 -238zM328 946h169l120 -145
h-130l-74 77l-74 -77h-130z" />
    <glyph glyph-name="Otilde" unicode="&#xd5;" horiz-adv-x="833" 
d="M423 742c233 0 364 -147 364 -384c0 -238 -152 -375 -376 -375c-222 0 -371 134 -371 374c0 124 38 231 111 297c65 59 172 88 272 88zM246 359c0 -149 56 -229 167 -229c112 0 167 83 167 232c0 143 -46 235 -167 235c-108 0 -167 -79 -167 -238zM542 944h81
c-10 -87 -69 -144 -140 -144c-19 0 -41 6 -54 10l-78 23c-23 7 -30 8 -43 8c-24 0 -41 -13 -48 -40h-78c5 84 67 146 146 146c27 0 40 -4 73 -14l77 -22c13 -4 20 -6 31 -6c23 0 31 16 33 39z" />
    <glyph glyph-name="Odieresis" unicode="&#xd6;" horiz-adv-x="833" 
d="M423 742c233 0 364 -147 364 -384c0 -238 -152 -375 -376 -375c-222 0 -371 134 -371 374c0 124 38 231 111 297c65 59 172 88 272 88zM246 359c0 -149 56 -229 167 -229c112 0 167 83 167 232c0 143 -46 235 -167 235c-108 0 -167 -79 -167 -238zM199 946h171v-145h-171
v145zM462 946h171v-145h-171v145z" />
    <glyph glyph-name="Omacron" unicode="&#x14c;" horiz-adv-x="833" 
d="M423 742c233 0 364 -147 364 -384c0 -238 -152 -375 -376 -375c-222 0 -371 134 -371 374c0 124 38 231 111 297c65 59 172 88 272 88zM246 359c0 -149 56 -229 167 -229c112 0 167 83 167 232c0 143 -46 235 -167 235c-108 0 -167 -79 -167 -238zM223 910h382v-76h-382
v76z" />
    <glyph glyph-name="Obreve" unicode="&#x14e;" horiz-adv-x="833" 
d="M423 742c233 0 364 -147 364 -384c0 -238 -152 -375 -376 -375c-222 0 -371 134 -371 374c0 124 38 231 111 297c65 59 172 88 272 88zM246 359c0 -149 56 -229 167 -229c112 0 167 83 167 232c0 143 -46 235 -167 235c-108 0 -167 -79 -167 -238zM219 946h82
c7 -44 46 -69 113 -69c61 0 97 18 115 69h77c-13 -102 -84 -154 -193 -154c-106 0 -187 46 -194 154z" />
    <glyph glyph-name="Ohungarumlaut" unicode="&#x150;" horiz-adv-x="833" 
d="M423 742c233 0 364 -147 364 -384c0 -238 -152 -375 -376 -375c-222 0 -371 134 -371 374c0 124 38 231 111 297c65 59 172 88 272 88zM246 359c0 -149 56 -229 167 -229c112 0 167 83 167 232c0 143 -46 235 -167 235c-108 0 -167 -79 -167 -238zM347 946h164l-156 -145
h-112zM578 946h164l-163 -145h-112z" />
    <glyph glyph-name="Oslash" unicode="&#xd8;" horiz-adv-x="833" 
d="M668 661l96 98l65 -71l-97 -98c40 -61 59 -138 59 -229c0 -119 -33 -212 -99 -278c-65 -65 -157 -98 -275 -98c-91 0 -166 19 -226 58l-98 -99l-66 69l93 94c-51 64 -77 149 -77 254c0 119 33 212 98 277c65 66 157 99 276 99c105 0 190 -25 251 -76zM265 253l276 280
c-24 39 -62 64 -125 64c-107 0 -163 -79 -163 -239c0 -35 3 -70 12 -105zM575 432l-264 -267c25 -25 59 -40 106 -40c108 0 164 81 164 233c0 25 -1 50 -6 74z" />
    <glyph glyph-name="Oslashacute" unicode="&#x1fe;" horiz-adv-x="833" 
d="M668 661l96 98l65 -71l-97 -98c40 -61 59 -138 59 -229c0 -119 -33 -212 -99 -278c-65 -65 -157 -98 -275 -98c-91 0 -166 19 -226 58l-98 -99l-66 69l93 94c-51 64 -77 149 -77 254c0 119 33 212 98 277c65 66 157 99 276 99c105 0 190 -25 251 -76zM265 253l276 280
c-24 39 -62 64 -125 64c-107 0 -163 -79 -163 -239c0 -35 3 -70 12 -105zM575 432l-264 -267c25 -25 59 -40 106 -40c108 0 164 81 164 233c0 25 -1 50 -6 74zM433 946h204l-183 -145h-132z" />
    <glyph glyph-name="OE" unicode="&#x152;" horiz-adv-x="1000" 
d="M406 722h536v-140h-269v-149h248v-140h-248v-153h278v-140h-549c-113 0 -203 33 -271 99s-102 155 -102 267c0 105 41 206 106 267c33 31 69 53 110 67c41 15 94 22 161 22zM239 362c0 -143 67 -234 176 -234c13 0 33 2 58 6v457c-27 4 -46 6 -59 6
c-111 0 -175 -78 -175 -235z" />
    <glyph glyph-name="Racute" unicode="&#x154;" horiz-adv-x="722" 
d="M65 722h344c80 0 133 -5 162 -18c60 -27 100 -81 100 -174c0 -36 -6 -66 -20 -89c-32 -52 -98 -74 -156 -82v-4c138 -5 149 -65 163 -168c7 -50 13 -113 35 -187h-217c-7 25 -13 58 -17 98l-9 88c-8 77 -26 96 -100 96h-84v-282h-201v722zM266 589v-177h110
c39 0 66 8 83 30c10 13 18 33 18 58c0 59 -30 89 -123 89h-88zM373 946h204l-183 -145h-132z" />
    <glyph glyph-name="Rcaron" unicode="&#x158;" horiz-adv-x="722" 
d="M65 722h344c80 0 133 -5 162 -18c60 -27 100 -81 100 -174c0 -36 -6 -66 -20 -89c-32 -52 -98 -74 -156 -82v-4c138 -5 149 -65 163 -168c7 -50 13 -113 35 -187h-217c-7 25 -13 58 -17 98l-9 88c-8 77 -26 96 -100 96h-84v-282h-201v722zM266 589v-177h110
c39 0 66 8 83 30c10 13 18 33 18 58c0 59 -30 89 -123 89h-88zM163 946h126l77 -79l76 79h127l-120 -145h-167z" />
    <glyph glyph-name="Rcommaaccent" unicode="&#x156;" horiz-adv-x="722" 
d="M65 722h344c80 0 133 -5 162 -18c60 -27 100 -81 100 -174c0 -36 -6 -66 -20 -89c-32 -52 -98 -74 -156 -82v-4c138 -5 149 -65 163 -168c7 -50 13 -113 35 -187h-217c-7 25 -13 58 -17 98l-9 88c-8 77 -26 96 -100 96h-84v-282h-201v722zM266 589v-177h110
c39 0 66 8 83 30c10 13 18 33 18 58c0 59 -30 89 -123 89h-88zM291 -65h164l-120 -158h-92z" />
    <glyph glyph-name="Sacute" unicode="&#x15a;" horiz-adv-x="722" 
d="M358 740c197 0 295 -73 295 -226v-4h-203v4c0 65 -34 96 -96 96c-57 0 -94 -33 -94 -76c0 -37 19 -60 76 -75l133 -34c48 -12 89 -25 120 -43c60 -34 89 -87 89 -165c0 -150 -122 -233 -319 -233c-205 0 -317 83 -317 246h201c0 -74 42 -112 121 -112c65 0 108 26 108 82
c0 36 -19 58 -59 69l-183 48c-89 23 -127 57 -150 95c-19 31 -26 66 -26 102c0 136 112 226 304 226zM382 946h204l-183 -145h-132z" />
    <glyph glyph-name="Scircumflex" unicode="&#x15c;" horiz-adv-x="722" 
d="M358 740c197 0 295 -73 295 -226v-4h-203v4c0 65 -34 96 -96 96c-57 0 -94 -33 -94 -76c0 -37 19 -60 76 -75l133 -34c48 -12 89 -25 120 -43c60 -34 89 -87 89 -165c0 -150 -122 -233 -319 -233c-205 0 -317 83 -317 246h201c0 -74 42 -112 121 -112c65 0 108 26 108 82
c0 36 -19 58 -59 69l-183 48c-89 23 -127 57 -150 95c-19 31 -26 66 -26 102c0 136 112 226 304 226zM279 946h169l120 -145h-130l-74 77l-74 -77h-130z" />
    <glyph glyph-name="Scaron" unicode="&#x160;" horiz-adv-x="722" 
d="M358 740c197 0 295 -73 295 -226v-4h-203v4c0 65 -34 96 -96 96c-57 0 -94 -33 -94 -76c0 -37 19 -60 76 -75l133 -34c48 -12 89 -25 120 -43c60 -34 89 -87 89 -165c0 -150 -122 -233 -319 -233c-205 0 -317 83 -317 246h201c0 -74 42 -112 121 -112c65 0 108 26 108 82
c0 36 -19 58 -59 69l-183 48c-89 23 -127 57 -150 95c-19 31 -26 66 -26 102c0 136 112 226 304 226zM158 946h126l77 -79l76 79h127l-120 -145h-167z" />
    <glyph glyph-name="Scedilla" unicode="&#x15e;" horiz-adv-x="722" 
d="M653 515v-5h-203c0 67 -31 100 -95 100c-60 0 -95 -33 -95 -76c0 -37 22 -61 65 -72l143 -37c55 -13 96 -28 121 -43c51 -29 89 -78 89 -165c0 -143 -111 -228 -304 -233l-24 -46c12 1 21 3 34 3c68 0 98 -37 98 -74c0 -49 -46 -85 -135 -85c-28 0 -71 4 -114 20l13 45
c27 -12 53 -22 92 -22s54 15 54 39c0 27 -27 37 -50 37c-15 0 -26 -4 -38 -9l-23 20l43 73c-184 8 -282 92 -282 245h201c1 -79 45 -112 121 -112c65 0 108 27 108 82c0 37 -20 58 -61 70l-178 46c-123 28 -179 97 -179 198c0 69 27 123 81 164c55 41 129 62 223 62
c189 0 295 -70 295 -225z" />
    <glyph glyph-name="Scommaaccent" unicode="&#x218;" horiz-adv-x="722" 
d="M358 740c197 0 295 -73 295 -226v-4h-203v4c0 65 -34 96 -96 96c-57 0 -94 -33 -94 -76c0 -37 19 -60 76 -75l133 -34c48 -12 89 -25 120 -43c60 -34 89 -87 89 -165c0 -150 -122 -233 -319 -233c-205 0 -317 83 -317 246h201c0 -74 42 -112 121 -112c65 0 108 26 108 82
c0 36 -19 58 -59 69l-183 48c-89 23 -127 57 -150 95c-19 31 -26 66 -26 102c0 136 112 226 304 226zM280 -65h164l-120 -158h-92z" />
    <glyph glyph-name="Tcaron" unicode="&#x164;" 
d="M10 722h647v-143h-225v-579h-202v579h-220v143zM130 946h126l77 -79l76 79h127l-120 -145h-167z" />
    <glyph glyph-name="Tcommaaccent" unicode="&#x162;" 
d="M10 722h647v-143h-225v-579h-202v579h-220v143zM255 -65h164l-120 -158h-92z" />
    <glyph glyph-name="uni021A" unicode="&#x21a;" 
d="M10 722h647v-143h-225v-579h-202v579h-220v143zM255 -65h164l-120 -158h-92z" />
    <glyph glyph-name="Tbar" unicode="&#x166;" 
d="M10 722h647v-143h-225v-147h111v-79h-111v-353h-202v353h-115v79h115v147h-220v143z" />
    <glyph glyph-name="Thorn" unicode="&#xde;" horiz-adv-x="722" 
d="M73 722h200v-102h133c203 0 292 -77 292 -232c0 -157 -95 -232 -287 -232h-138v-156h-200v722zM273 296h107c73 0 108 37 108 92s-35 92 -108 92h-107v-184z" />
    <glyph glyph-name="Ugrave" unicode="&#xd9;" horiz-adv-x="833" 
d="M72 722h202v-432c0 -37 3 -66 14 -89c26 -56 80 -76 132 -76c96 0 144 58 144 173v424h195v-419c0 -124 -23 -212 -111 -267c-53 -33 -130 -55 -235 -55c-141 0 -260 34 -313 147c-20 42 -29 96 -29 162zM200 946h208l107 -145h-129z" />
    <glyph glyph-name="Uacute" unicode="&#xda;" horiz-adv-x="833" 
d="M72 722h202v-432c0 -37 3 -66 14 -89c26 -56 80 -76 132 -76c96 0 144 58 144 173v424h195v-419c0 -124 -23 -212 -111 -267c-53 -33 -130 -55 -235 -55c-141 0 -260 34 -313 147c-20 42 -29 96 -29 162zM430 946h204l-183 -145h-132z" />
    <glyph glyph-name="Ucircumflex" unicode="&#xdb;" horiz-adv-x="833" 
d="M72 722h202v-432c0 -37 3 -66 14 -89c26 -56 80 -76 132 -76c96 0 144 58 144 173v424h195v-419c0 -124 -23 -212 -111 -267c-53 -33 -130 -55 -235 -55c-141 0 -260 34 -313 147c-20 42 -29 96 -29 162zM328 946h169l120 -145h-130l-74 77l-74 -77h-130z" />
    <glyph glyph-name="Utilde" unicode="&#x168;" horiz-adv-x="833" 
d="M72 722h202v-432c0 -37 3 -66 14 -89c26 -56 80 -76 132 -76c96 0 144 58 144 173v424h195v-419c0 -124 -23 -212 -111 -267c-53 -33 -130 -55 -235 -55c-141 0 -260 34 -313 147c-20 42 -29 96 -29 162zM573 944h81c-10 -87 -69 -144 -140 -144c-19 0 -41 6 -54 10
l-78 23c-23 7 -30 8 -43 8c-24 0 -41 -13 -48 -40h-78c5 84 67 146 146 146c27 0 40 -4 73 -14l77 -22c13 -4 20 -6 31 -6c23 0 31 16 33 39z" />
    <glyph glyph-name="Udieresis" unicode="&#xdc;" horiz-adv-x="844" 
d="M72 722h202v-432c0 -37 3 -66 14 -89c26 -56 80 -76 132 -76c96 0 144 58 144 173v424h195v-419c0 -124 -23 -212 -111 -267c-53 -33 -130 -55 -235 -55c-141 0 -260 34 -313 147c-20 42 -29 96 -29 162zM199 946h171v-145h-171v145zM462 946h171v-145h-171v145z" />
    <glyph glyph-name="Umacron" unicode="&#x16a;" horiz-adv-x="833" 
d="M72 722h202v-432c0 -37 3 -66 14 -89c26 -56 80 -76 132 -76c96 0 144 58 144 173v424h195v-419c0 -124 -23 -212 -111 -267c-53 -33 -130 -55 -235 -55c-141 0 -260 34 -313 147c-20 42 -29 96 -29 162zM218 910h382v-76h-382v76z" />
    <glyph glyph-name="Ubreve" unicode="&#x16c;" horiz-adv-x="833" 
d="M72 722h202v-432c0 -37 3 -66 14 -89c26 -56 80 -76 132 -76c96 0 144 58 144 173v424h195v-419c0 -124 -23 -212 -111 -267c-53 -33 -130 -55 -235 -55c-141 0 -260 34 -313 147c-20 42 -29 96 -29 162zM220 946h82c7 -44 46 -69 113 -69c61 0 97 18 115 69h77
c-13 -102 -84 -154 -193 -154c-106 0 -187 46 -194 154z" />
    <glyph glyph-name="Uring" unicode="&#x16e;" horiz-adv-x="833" 
d="M72 722h202v-432c0 -37 3 -66 14 -89c26 -56 80 -76 132 -76c96 0 144 58 144 173v424h195v-419c0 -124 -23 -212 -111 -267c-53 -33 -130 -55 -235 -55c-141 0 -260 34 -313 147c-20 42 -29 96 -29 162zM527 873c0 -61 -51 -112 -112 -112c-59 0 -112 50 -112 112
c0 63 49 113 112 113c62 0 112 -54 112 -113zM415 820c29 0 53 24 53 53c0 31 -24 54 -53 54c-31 0 -53 -23 -53 -54c0 -29 22 -53 53 -53z" />
    <glyph glyph-name="Uhungarumlaut" unicode="&#x170;" horiz-adv-x="833" 
d="M72 722h202v-432c0 -37 3 -66 14 -89c26 -56 80 -76 132 -76c96 0 144 58 144 173v424h195v-419c0 -124 -23 -212 -111 -267c-53 -33 -130 -55 -235 -55c-141 0 -260 34 -313 147c-20 42 -29 96 -29 162zM342 946h164l-156 -145h-112zM573 946h164l-163 -145h-112z" />
    <glyph glyph-name="Uogonek" unicode="&#x172;" horiz-adv-x="833" 
d="M71 722h203v-433c0 -61 14 -104 42 -128s63 -36 104 -36c96 0 144 58 144 171v426h195v-418c0 -84 -11 -147 -34 -188c-44 -81 -139 -125 -264 -133c-24 -20 -45 -44 -45 -79c0 -39 17 -59 56 -59c16 0 26 4 39 12v-48c-36 -19 -54 -26 -91 -26c-64 0 -98 34 -98 75
c0 43 31 88 82 123c-234 2 -333 102 -333 310v431z" />
    <glyph glyph-name="Wacute" unicode="&#x1e82;" horiz-adv-x="1000" 
d="M8 722h199l67 -526l118 524l1 2h244l107 -522l67 522h181l-124 -722h-240l-125 535l-133 -535h-239zM543 946h204l-183 -145h-132z" />
    <glyph glyph-name="Wcircumflex" unicode="&#x174;" horiz-adv-x="1000" 
d="M8 722h199l67 -526l118 524l1 2h244l107 -522l67 522h181l-124 -722h-240l-125 535l-133 -535h-239zM425 946h169l120 -145h-130l-74 77l-74 -77h-130z" />
    <glyph glyph-name="Wdieresis" unicode="&#x1e84;" horiz-adv-x="1000" 
d="M8 722h199l67 -526l118 524l1 2h244l107 -522l67 522h181l-124 -722h-240l-125 535l-133 -535h-239zM294 946h171v-145h-171v145zM557 946h171v-145h-171v145z" />
    <glyph glyph-name="Wgrave" unicode="&#x1e80;" horiz-adv-x="1000" 
d="M8 722h199l67 -526l118 524l1 2h244l107 -522l67 522h181l-124 -722h-240l-125 535l-133 -535h-239zM272 946h208l107 -145h-129z" />
    <glyph glyph-name="Yacute" unicode="&#xdd;" horiz-adv-x="778" 
d="M6 722h232l158 -303l163 303h206l-282 -467v-255h-202v264zM423 946h204l-183 -145h-132z" />
    <glyph glyph-name="Ycircumflex" unicode="&#x176;" horiz-adv-x="778" 
d="M6 722h232l158 -303l163 303h206l-282 -467v-255h-202v264zM316 946h169l120 -145h-130l-74 77l-74 -77h-130z" />
    <glyph glyph-name="Ydieresis" unicode="&#x178;" horiz-adv-x="778" 
d="M6 722h232l158 -303l163 303h206l-282 -467v-255h-202v264zM172 946h171v-145h-171v145zM435 946h171v-145h-171v145z" />
    <glyph glyph-name="Ygrave" unicode="&#x1ef2;" horiz-adv-x="778" 
d="M6 722h232l158 -303l163 303h206l-282 -467v-255h-202v264zM165 946h208l107 -145h-129z" />
    <glyph glyph-name="Zacute" unicode="&#x179;" 
d="M37 720h588v-154l-372 -426h380v-140h-616v159l360 422h-340v139zM377 946h204l-183 -145h-132z" />
    <glyph glyph-name="Zcaron" unicode="&#x17d;" 
d="M37 720h588v-154l-372 -426h380v-140h-616v159l360 422h-340v139zM135 946h126l77 -79l76 79h127l-120 -145h-167z" />
    <glyph glyph-name="Zdotaccent" unicode="&#x17b;" 
d="M37 720h588v-154l-372 -426h380v-140h-616v159l360 422h-340v139zM267 946h171v-145h-171v145z" />
    <glyph glyph-name="agrave" unicode="&#xe0;" horiz-adv-x="611" 
d="M305 520c48 0 97 -6 137 -20c64 -22 108 -68 108 -166v-244c0 -22 3 -52 10 -90h-180c-4 19 -6 37 -6 72c-41 -64 -98 -82 -165 -82c-115 0 -177 60 -177 156c0 116 90 179 301 179c7 0 21 0 42 -1v10c0 71 -22 94 -63 94c-35 0 -67 -20 -67 -72v-4h-180
c0 58 19 87 49 114c45 40 133 54 191 54zM217 163c0 -37 24 -68 69 -68c42 0 70 27 82 69c6 21 6 46 6 73h-17c-111 0 -140 -27 -140 -74zM107 726h208l107 -145h-129z" />
    <glyph glyph-name="aacute" unicode="&#xe1;" horiz-adv-x="611" 
d="M305 520c48 0 97 -6 137 -20c64 -22 108 -68 108 -166v-244c0 -22 3 -52 10 -90h-180c-4 19 -6 37 -6 72c-41 -64 -98 -82 -165 -82c-115 0 -177 60 -177 156c0 116 90 179 301 179c7 0 21 0 42 -1v10c0 71 -22 94 -63 94c-35 0 -67 -20 -67 -72v-4h-180
c0 58 19 87 49 114c45 40 133 54 191 54zM217 163c0 -37 24 -68 69 -68c42 0 70 27 82 69c6 21 6 46 6 73h-17c-111 0 -140 -27 -140 -74zM295 726h204l-183 -145h-132z" />
    <glyph glyph-name="acircumflex" unicode="&#xe2;" horiz-adv-x="611" 
d="M305 520c48 0 97 -6 137 -20c64 -22 108 -68 108 -166v-244c0 -22 3 -52 10 -90h-180c-4 19 -6 37 -6 72c-41 -64 -98 -82 -165 -82c-115 0 -177 60 -177 156c0 116 90 179 301 179c7 0 21 0 42 -1v10c0 71 -22 94 -63 94c-35 0 -67 -20 -67 -72v-4h-180
c0 58 19 87 49 114c45 40 133 54 191 54zM217 163c0 -37 24 -68 69 -68c42 0 70 27 82 69c6 21 6 46 6 73h-17c-111 0 -140 -27 -140 -74zM217 726h169l120 -145h-130l-74 77l-74 -77h-130z" />
    <glyph glyph-name="atilde" unicode="&#xe3;" horiz-adv-x="611" 
d="M305 520c48 0 97 -6 137 -20c64 -22 108 -68 108 -166v-244c0 -22 3 -52 10 -90h-180c-4 19 -6 37 -6 72c-41 -64 -98 -82 -165 -82c-115 0 -177 60 -177 156c0 116 90 179 301 179c7 0 21 0 42 -1v10c0 71 -22 94 -63 94c-35 0 -67 -20 -67 -72v-4h-180
c0 58 19 87 49 114c45 40 133 54 191 54zM217 163c0 -37 24 -68 69 -68c42 0 70 27 82 69c6 21 6 46 6 73h-17c-111 0 -140 -27 -140 -74zM468 724h81c-10 -87 -69 -144 -140 -144c-19 0 -41 6 -54 10l-78 23c-23 7 -30 8 -43 8c-24 0 -41 -13 -48 -40h-78
c6 84 67 146 146 146c27 0 40 -4 73 -14l77 -22c13 -4 20 -6 31 -6c23 0 30 16 33 39z" />
    <glyph glyph-name="adieresis" unicode="&#xe4;" horiz-adv-x="611" 
d="M305 520c48 0 97 -6 137 -20c64 -22 108 -68 108 -166v-244c0 -22 3 -52 10 -90h-180c-4 19 -6 37 -6 72c-41 -64 -98 -82 -165 -82c-115 0 -177 60 -177 156c0 116 90 179 301 179c7 0 21 0 42 -1v10c0 71 -22 94 -63 94c-35 0 -67 -20 -67 -72v-4h-180
c0 58 19 87 49 114c45 40 133 54 191 54zM217 163c0 -37 24 -68 69 -68c42 0 70 27 82 69c6 21 6 46 6 73h-17c-111 0 -140 -27 -140 -74zM88 726h171v-145h-171v145zM351 726h171v-145h-171v145z" />
    <glyph glyph-name="amacron" unicode="&#x101;" horiz-adv-x="611" 
d="M305 520c48 0 97 -6 137 -20c64 -22 108 -68 108 -166v-244c0 -22 3 -52 10 -90h-180c-4 19 -6 37 -6 72c-41 -64 -98 -82 -165 -82c-115 0 -177 60 -177 156c0 116 90 179 301 179c7 0 21 0 42 -1v10c0 71 -22 94 -63 94c-35 0 -67 -20 -67 -72v-4h-180
c0 58 19 87 49 114c45 40 133 54 191 54zM217 163c0 -37 24 -68 69 -68c42 0 70 27 82 69c6 21 6 46 6 73h-17c-111 0 -140 -27 -140 -74zM123 690h382v-76h-382v76z" />
    <glyph glyph-name="abreve" unicode="&#x103;" horiz-adv-x="611" 
d="M305 520c48 0 97 -6 137 -20c64 -22 108 -68 108 -166v-244c0 -22 3 -52 10 -90h-180c-4 19 -6 37 -6 72c-41 -64 -98 -82 -165 -82c-115 0 -177 60 -177 156c0 116 90 179 301 179c7 0 21 0 42 -1v10c0 71 -22 94 -63 94c-35 0 -67 -20 -67 -72v-4h-180
c0 58 19 87 49 114c45 40 133 54 191 54zM217 163c0 -37 24 -68 69 -68c42 0 70 27 82 69c6 21 6 46 6 73h-17c-111 0 -140 -27 -140 -74zM121 726h82c7 -44 46 -69 113 -69c61 0 97 18 115 69h77c-13 -102 -84 -154 -193 -154c-106 0 -187 46 -194 154z" />
    <glyph glyph-name="aring" unicode="&#xe5;" horiz-adv-x="611" 
d="M305 520c48 0 97 -6 137 -20c64 -22 108 -68 108 -166v-244c0 -22 3 -52 10 -90h-180c-4 19 -6 37 -6 72c-41 -64 -98 -82 -165 -82c-115 0 -177 60 -177 156c0 116 90 179 301 179c7 0 21 0 42 -1v10c0 71 -22 94 -63 94c-35 0 -67 -20 -67 -72v-4h-180
c0 58 19 87 49 114c45 40 133 54 191 54zM217 163c0 -37 24 -68 69 -68c42 0 70 27 82 69c6 21 6 46 6 73h-17c-111 0 -140 -27 -140 -74zM418 653c0 -61 -51 -112 -112 -112c-59 0 -112 50 -112 112c0 63 49 113 112 113c62 0 112 -54 112 -113zM306 600c29 0 53 24 53 53
c0 31 -24 54 -53 54c-31 0 -53 -23 -53 -54c0 -29 22 -53 53 -53z" />
    <glyph glyph-name="aringacute" unicode="&#x1fb;" horiz-adv-x="611" 
d="M305 520c48 0 97 -6 137 -20c64 -22 108 -68 108 -166v-244c0 -22 3 -52 10 -90h-180c-4 19 -6 37 -6 72c-41 -64 -98 -82 -165 -82c-115 0 -177 60 -177 156c0 116 90 179 301 179c7 0 21 0 42 -1v10c0 71 -22 94 -63 94c-35 0 -67 -20 -67 -72v-4h-180
c0 58 19 87 49 114c45 40 133 54 191 54zM217 163c0 -37 24 -68 69 -68c42 0 70 27 82 69c6 21 6 46 6 73h-17c-111 0 -140 -27 -140 -74zM417 653c0 -61 -51 -112 -112 -112c-59 0 -112 50 -112 112c0 63 49 113 112 113c62 0 112 -54 112 -113zM305 600c29 0 53 24 53 53
c0 31 -24 54 -53 54c-31 0 -53 -23 -53 -54c0 -29 22 -53 53 -53zM349 946h204l-183 -145h-132z" />
    <glyph glyph-name="aogonek" unicode="&#x105;" horiz-adv-x="611" 
d="M311 520c66 0 156 -14 200 -63c26 -28 39 -69 39 -123v-244c0 -22 3 -52 10 -90h-88c-52 -40 -66 -63 -66 -96c0 -39 20 -59 55 -59c17 0 27 4 40 12v-48c-37 -18 -55 -26 -91 -26c-63 0 -98 33 -98 75c0 51 43 106 115 142h-47c-4 19 -6 37 -6 72
c-42 -64 -98 -82 -165 -82c-113 0 -177 60 -177 156c0 116 90 179 301 179c7 0 21 0 42 -1v10c0 71 -22 94 -63 94c-35 0 -67 -20 -67 -72v-4h-180c0 74 36 117 96 142c40 17 90 26 150 26zM217 163c0 -37 24 -68 69 -68c38 0 70 24 82 69c5 20 6 45 6 73h-17
c-111 0 -140 -27 -140 -74z" />
    <glyph glyph-name="ae" unicode="&#xe6;" horiz-adv-x="944" 
d="M483 448c32 40 85 69 152 69c183 0 268 -92 268 -304h-360c0 -83 29 -118 89 -118c53 0 84 22 91 69h180c-6 -102 -113 -179 -257 -179c-99 0 -166 42 -196 108c-36 -71 -109 -108 -226 -108c-123 0 -203 59 -203 164c0 50 24 89 68 119c49 33 115 56 220 56h61
c0 14 1 28 1 42c0 36 -12 64 -58 64c-39 0 -66 -28 -69 -68h-179c0 99 94 155 252 155c71 0 131 -27 166 -69zM547 315h176c0 60 -35 107 -82 107c-56 0 -87 -27 -94 -107zM283 95c45 0 79 24 86 106c1 12 1 24 1 38h-39c-47 0 -67 -9 -88 -25c-17 -13 -27 -29 -27 -53
c0 -36 28 -66 67 -66z" />
    <glyph glyph-name="aeacute" unicode="&#x1fd;" horiz-adv-x="944" 
d="M483 448c32 40 85 69 152 69c183 0 268 -92 268 -304h-360c0 -83 29 -118 89 -118c53 0 84 22 91 69h180c-6 -102 -113 -179 -257 -179c-99 0 -166 42 -196 108c-36 -71 -109 -108 -226 -108c-123 0 -203 59 -203 164c0 50 24 89 68 119c49 33 115 56 220 56h61
c0 14 1 28 1 42c0 36 -12 64 -58 64c-39 0 -66 -28 -69 -68h-179c0 99 94 155 252 155c71 0 131 -27 166 -69zM547 315h176c0 60 -35 107 -82 107c-56 0 -87 -27 -94 -107zM283 95c45 0 79 24 86 106c1 12 1 24 1 38h-39c-47 0 -67 -9 -88 -25c-17 -13 -27 -29 -27 -53
c0 -36 28 -66 67 -66zM529 726h204l-183 -145h-132z" />
    <glyph glyph-name="cacute" unicode="&#x107;" horiz-adv-x="611" 
d="M321 519c151 0 247 -70 253 -193h-186c0 47 -18 86 -67 86c-57 0 -85 -46 -85 -159c0 -99 19 -159 83 -159c48 0 68 35 68 102h190c0 -130 -103 -208 -253 -208c-173 0 -282 97 -282 266c0 172 109 265 279 265zM311 726h204l-183 -145h-132z" />
    <glyph glyph-name="ccircumflex" unicode="&#x109;" horiz-adv-x="611" 
d="M321 519c151 0 247 -70 253 -193h-186c0 47 -18 86 -67 86c-57 0 -85 -46 -85 -159c0 -99 19 -159 83 -159c48 0 68 35 68 102h190c0 -130 -103 -208 -253 -208c-173 0 -282 97 -282 266c0 172 109 265 279 265zM232 726h169l120 -145h-130l-74 77l-74 -77h-130z" />
    <glyph glyph-name="ccaron" unicode="&#x10d;" horiz-adv-x="611" 
d="M321 519c151 0 247 -70 253 -193h-186c0 47 -18 86 -67 86c-57 0 -85 -46 -85 -159c0 -99 19 -159 83 -159c48 0 68 35 68 102h190c0 -130 -103 -208 -253 -208c-173 0 -282 97 -282 266c0 172 109 265 279 265zM124 726h126l77 -79l76 79h127l-120 -145h-167z" />
    <glyph glyph-name="cdotaccent" unicode="&#x10b;" horiz-adv-x="611" 
d="M321 519c151 0 247 -70 253 -193h-186c0 47 -18 86 -67 86c-57 0 -85 -46 -85 -159c0 -99 19 -159 83 -159c48 0 68 35 68 102h190c0 -130 -103 -208 -253 -208c-173 0 -282 97 -282 266c0 172 109 265 279 265zM236 726h171v-145h-171v145z" />
    <glyph glyph-name="ccedilla" unicode="&#xe7;" horiz-adv-x="611" 
d="M574 326h-186c0 47 -18 86 -67 86c-57 0 -85 -46 -85 -159c0 -99 19 -159 83 -159c47 0 69 33 69 102h189c-3 -125 -88 -200 -243 -208l-27 -50c11 1 22 3 34 3c69 0 99 -37 99 -74c0 -49 -46 -85 -135 -85c-39 0 -73 4 -114 20l12 45c27 -13 55 -22 92 -22
c40 0 54 15 54 39c0 27 -27 37 -50 37c-15 0 -25 -4 -38 -9l-23 20l46 78c-156 16 -242 113 -242 264c0 171 108 265 279 265c152 0 245 -70 253 -193z" />
    <glyph glyph-name="dcaron" unicode="&#x10f;" 
d="M415 722h188v-605c0 -13 0 -37 5 -117h-178l-4 74c-40 -61 -95 -86 -170 -86c-143 0 -222 100 -222 263c0 51 7 104 28 145c34 65 100 117 200 117c63 0 105 -17 153 -70v279zM229 250c0 -92 32 -151 93 -151c64 0 95 63 95 154c0 87 -29 150 -94 150
c-60 0 -94 -60 -94 -153zM671 721h164l-120 -158h-92z" />
    <glyph glyph-name="dcroat" unicode="&#x111;" 
d="M415 722h188v-86h57v-68h-57v-451c0 -13 0 -37 5 -117h-178l-4 74c-40 -60 -95 -86 -170 -86c-143 0 -222 102 -222 263c0 57 9 109 29 147c39 73 110 115 199 115c61 0 106 -17 153 -70v125h-119v68h119v86zM322 99c64 0 95 63 95 154c0 87 -28 150 -94 150
c-60 0 -94 -60 -94 -153c0 -92 32 -151 93 -151z" />
    <glyph glyph-name="eth" unicode="&#xf0;" 
d="M322 705l54 45l46 -36l-39 -32c156 -80 243 -213 243 -406c0 -189 -105 -291 -292 -291c-172 0 -292 86 -292 247c0 151 99 248 249 248c59 0 85 -9 117 -27v4c-33 42 -73 77 -156 115l-64 -55l-58 28l57 48c-27 9 -55 16 -82 23l74 130c40 -9 100 -24 143 -41zM334 87
c65 0 97 53 97 145s-31 146 -98 146c-63 0 -96 -51 -96 -146c0 -91 32 -145 97 -145z" />
    <glyph glyph-name="egrave" unicode="&#xe8;" horiz-adv-x="611" 
d="M304 520c76 0 131 -15 176 -49c48 -37 91 -97 91 -235v-23h-360v-5c0 -76 34 -117 96 -117c51 0 81 27 86 73h175c-11 -109 -109 -175 -262 -175c-176 0 -269 88 -269 254c0 181 94 277 267 277zM213 315h181c-4 73 -36 105 -90 105c-53 0 -86 -34 -91 -105zM107 726h208
l107 -145h-129z" />
    <glyph glyph-name="eacute" unicode="&#xe9;" horiz-adv-x="611" 
d="M304 520c76 0 131 -15 176 -49c48 -37 91 -97 91 -235v-23h-360v-5c0 -76 34 -117 96 -117c51 0 81 27 86 73h175c-11 -109 -109 -175 -262 -175c-176 0 -269 88 -269 254c0 181 94 277 267 277zM213 315h181c-4 73 -36 105 -90 105c-53 0 -86 -34 -91 -105zM295 726h204
l-183 -145h-132z" />
    <glyph glyph-name="ecircumflex" unicode="&#xea;" horiz-adv-x="611" 
d="M304 520c76 0 131 -15 176 -49c48 -37 91 -97 91 -235v-23h-360v-5c0 -76 34 -117 96 -117c51 0 81 27 86 73h175c-11 -109 -109 -175 -262 -175c-176 0 -269 88 -269 254c0 181 94 277 267 277zM213 315h181c-4 73 -36 105 -90 105c-53 0 -86 -34 -91 -105zM217 726h169
l120 -145h-130l-74 77l-74 -77h-130z" />
    <glyph glyph-name="ecaron" unicode="&#x11b;" horiz-adv-x="611" 
d="M304 520c76 0 131 -15 176 -49c48 -37 91 -97 91 -235v-23h-360v-5c0 -76 34 -117 96 -117c51 0 81 27 86 73h175c-11 -109 -109 -175 -262 -175c-176 0 -269 88 -269 254c0 181 94 277 267 277zM213 315h181c-4 73 -36 105 -90 105c-53 0 -86 -34 -91 -105zM105 726h126
l77 -79l76 79h127l-120 -145h-167z" />
    <glyph glyph-name="edieresis" unicode="&#xeb;" horiz-adv-x="611" 
d="M304 520c76 0 131 -15 176 -49c48 -37 91 -97 91 -235v-23h-360v-5c0 -76 34 -117 96 -117c51 0 81 27 86 73h175c-11 -109 -109 -175 -262 -175c-176 0 -269 88 -269 254c0 181 94 277 267 277zM213 315h181c-4 73 -36 105 -90 105c-53 0 -86 -34 -91 -105zM88 726h171
v-145h-171v145zM351 726h171v-145h-171v145z" />
    <glyph glyph-name="emacron" unicode="&#x113;" horiz-adv-x="611" 
d="M304 520c76 0 131 -15 176 -49c48 -37 91 -97 91 -235v-23h-360v-5c0 -76 34 -117 96 -117c51 0 81 27 86 73h175c-11 -109 -109 -175 -262 -175c-176 0 -269 88 -269 254c0 181 94 277 267 277zM213 315h181c-4 73 -36 105 -90 105c-53 0 -86 -34 -91 -105zM117 690h382
v-76h-382v76z" />
    <glyph glyph-name="ebreve" unicode="&#x115;" horiz-adv-x="611" 
d="M304 520c76 0 131 -15 176 -49c48 -37 91 -97 91 -235v-23h-360v-5c0 -76 34 -117 96 -117c51 0 81 27 86 73h175c-11 -109 -109 -175 -262 -175c-176 0 -269 88 -269 254c0 181 94 277 267 277zM213 315h181c-4 73 -36 105 -90 105c-53 0 -86 -34 -91 -105zM111 726h82
c7 -44 46 -69 113 -69c61 0 97 18 115 69h77c-13 -102 -84 -154 -193 -154c-106 0 -187 46 -194 154z" />
    <glyph glyph-name="edotaccent" unicode="&#x117;" horiz-adv-x="611" 
d="M304 520c76 0 131 -15 176 -49c48 -37 91 -97 91 -235v-23h-360v-5c0 -76 34 -117 96 -117c51 0 81 27 86 73h175c-11 -109 -109 -175 -262 -175c-176 0 -269 88 -269 254c0 181 94 277 267 277zM213 315h181c-4 73 -36 105 -90 105c-53 0 -86 -34 -91 -105zM226 726h171
v-145h-171v145z" />
    <glyph glyph-name="eogonek" unicode="&#x119;" horiz-adv-x="611" 
d="M571 236v-23h-360v-5c0 -76 35 -117 96 -117c52 0 81 25 86 73h175c-12 -97 -90 -158 -202 -171c-29 -24 -57 -48 -57 -89c0 -39 19 -59 55 -59c16 0 27 4 40 12v-48c-37 -19 -55 -26 -91 -26c-64 0 -98 34 -98 75c0 47 35 95 95 131c-183 0 -273 87 -273 254
c0 181 94 277 267 277c62 0 112 -11 149 -32c76 -41 118 -115 118 -252zM213 315h181c-4 73 -35 105 -90 105c-53 0 -84 -34 -91 -105z" />
    <glyph glyph-name="gcircumflex" unicode="&#x11d;" 
d="M262 514c75 0 129 -26 166 -85v76h177v-473c0 -95 -36 -147 -95 -184c-49 -30 -113 -46 -186 -46c-164 0 -261 57 -261 166v5h177c1 -37 27 -64 82 -64c67 0 100 33 100 113v75c-32 -49 -91 -81 -163 -81c-126 0 -222 87 -222 249c0 152 86 249 225 249zM231 267
c0 -93 34 -140 95 -140c63 0 93 51 93 142c0 89 -31 140 -91 140c-63 0 -97 -57 -97 -142zM263 726h169l120 -145h-130l-74 77l-74 -77h-130z" />
    <glyph glyph-name="gbreve" unicode="&#x11f;" 
d="M262 514c75 0 129 -26 166 -85v76h177v-473c0 -95 -36 -147 -95 -184c-49 -30 -113 -46 -186 -46c-164 0 -261 57 -261 166v5h177c1 -37 27 -64 82 -64c67 0 100 33 100 113v75c-32 -49 -91 -81 -163 -81c-126 0 -222 87 -222 249c0 152 86 249 225 249zM231 267
c0 -93 34 -140 95 -140c63 0 93 51 93 142c0 89 -31 140 -91 140c-63 0 -97 -57 -97 -142zM159 726h82c7 -44 46 -69 113 -69c61 0 97 18 115 69h77c-13 -102 -84 -154 -193 -154c-106 0 -187 46 -194 154z" />
    <glyph glyph-name="gdotaccent" unicode="&#x121;" 
d="M262 514c75 0 129 -26 166 -85v76h177v-473c0 -95 -36 -147 -95 -184c-49 -30 -113 -46 -186 -46c-164 0 -261 57 -261 166v5h177c1 -37 27 -64 82 -64c67 0 100 33 100 113v75c-32 -49 -91 -81 -163 -81c-126 0 -222 87 -222 249c0 152 86 249 225 249zM231 267
c0 -93 34 -140 95 -140c63 0 93 51 93 142c0 89 -31 140 -91 140c-63 0 -97 -57 -97 -142zM260 726h171v-145h-171v145z" />
    <glyph glyph-name="gcommaaccent" unicode="&#x123;" 
d="M262 514c75 0 129 -26 166 -85v76h177v-473c0 -95 -36 -147 -95 -184c-49 -30 -113 -46 -186 -46c-164 0 -261 57 -261 166v5h177c1 -37 27 -64 82 -64c67 0 100 33 100 113v75c-32 -49 -91 -81 -163 -81c-126 0 -222 87 -222 249c0 152 86 249 225 249zM231 267
c0 -93 34 -140 95 -140c63 0 93 51 93 142c0 89 -31 140 -91 140c-63 0 -97 -57 -97 -142zM368 744h92l-48 -158h-164z" />
    <glyph glyph-name="hcircumflex" unicode="&#x125;" 
d="M65 722h190v-275c44 45 96 66 157 66c77 0 148 -37 175 -99c13 -31 15 -69 15 -109v-305h-187v280c0 99 -42 114 -78 114c-68 0 -84 -63 -84 -122v-272h-188v722zM99 906h169l120 -145h-130l-74 77l-74 -77h-130z" />
    <glyph glyph-name="hbar" unicode="&#x127;" 
d="M65 722h190v-86h118v-68h-118v-121c44 46 96 66 157 66c79 0 149 -36 177 -104c12 -29 13 -64 13 -104v-305h-187v280c0 96 -40 114 -78 114c-67 0 -84 -63 -84 -122v-272h-188v568h-56v68h56v86z" />
    <glyph glyph-name="dotlessi" unicode="&#x131;" horiz-adv-x="331" 
d="M67 502h188v-502h-188v502z" />
    <glyph glyph-name="igrave" unicode="&#xec;" horiz-adv-x="333" 
d="M71 502h188v-502h-188v502zM-50 726h208l107 -145h-129z" />
    <glyph glyph-name="iacute" unicode="&#xed;" horiz-adv-x="333" 
d="M71 502h188v-502h-188v502zM180 726h204l-183 -145h-132z" />
    <glyph glyph-name="ibreve" unicode="&#x12d;" horiz-adv-x="333" 
d="M71 502h188v-502h-188v502zM-27 726h82c7 -44 46 -69 113 -69c61 0 97 18 115 69h77c-13 -102 -84 -154 -193 -154c-106 0 -187 46 -194 154z" />
    <glyph glyph-name="icircumflex" unicode="&#xee;" horiz-adv-x="333" 
d="M71 502h188v-502h-188v502zM78 726h169l120 -145h-130l-74 77l-74 -77h-130z" />
    <glyph glyph-name="itilde" unicode="&#x129;" horiz-adv-x="333" 
d="M71 502h188v-502h-188v502zM309 724h81c-10 -87 -69 -144 -140 -144c-19 0 -41 6 -54 10l-78 23c-23 7 -30 8 -43 8c-24 0 -41 -13 -48 -40h-78c6 84 67 146 146 146c27 0 40 -4 73 -14l77 -22c13 -4 20 -6 31 -6c23 0 30 16 33 39z" />
    <glyph glyph-name="idieresis" unicode="&#xef;" horiz-adv-x="333" 
d="M71 502h188v-502h-188v502zM-51 726h171v-145h-171v145zM212 726h171v-145h-171v145z" />
    <glyph glyph-name="imacron" unicode="&#x12b;" horiz-adv-x="333" 
d="M8 690h314v-76h-314v76zM69 502h188v-502h-188v502z" />
    <glyph glyph-name="iogonek" unicode="&#x12f;" horiz-adv-x="333" 
d="M69 720h192v-134h-192v134zM71 502h188v-502h-64c-53 -41 -66 -64 -66 -96c0 -39 19 -59 56 -59c16 0 26 4 39 12v-48c-36 -18 -55 -26 -91 -26c-64 0 -98 34 -98 75c0 51 43 107 115 142h-79v502z" />
    <glyph glyph-name="dotlessj" unicode="&#x237;" horiz-adv-x="333" 
d="M72 502h190v-541c0 -38 -7 -71 -21 -96c-22 -38 -65 -61 -176 -61c-17 0 -37 1 -60 2v123c5 -1 11 -1 16 -1c50 0 51 40 51 74v500z" />
    <glyph glyph-name="jcircumflex" unicode="&#x135;" horiz-adv-x="333" 
d="M72 502h190v-541c0 -38 -7 -71 -21 -96c-22 -38 -65 -61 -176 -61c-17 0 -37 1 -60 2v123c5 -1 11 -1 16 -1c50 0 51 40 51 74v500zM79 726h169l120 -145h-130l-74 77l-74 -77h-130z" />
    <glyph glyph-name="kcommaaccent" unicode="&#x137;" 
d="M74 722h184v-442l172 222h208l-171 -212l196 -290h-226l-179 279v-279h-184v722zM248 -65h164l-120 -158h-92z" />
    <glyph glyph-name="kgreenlandic" unicode="&#x138;" 
d="M74 502h184v-222l172 222h208l-171 -212l196 -290h-226l-179 279v-279h-184v502z" />
    <glyph glyph-name="lacute" unicode="&#x13a;" horiz-adv-x="333" 
d="M69 722h188v-722h-188v722zM180 901h204l-183 -145h-132z" />
    <glyph glyph-name="lcaron" unicode="&#x13e;" horiz-adv-x="333" 
d="M69 722h188v-722h-188v722zM331 721h164l-120 -158h-92z" />
    <glyph glyph-name="lcommaaccent" unicode="&#x13c;" horiz-adv-x="333" 
d="M69 722h188v-722h-188v722zM85 -65h164l-120 -158h-92z" />
    <glyph glyph-name="lslash" unicode="&#x142;" horiz-adv-x="333" 
d="M69 722h188v-220l88 55v-104l-88 -56v-397h-188v278l-87 -58v104l87 58v340z" />
    <glyph glyph-name="ldot" unicode="&#x140;" horiz-adv-x="466" 
d="M69 722h188v-722h-188v722zM311 459h171v-145h-171v145z" />
    <glyph glyph-name="nacute" unicode="&#x144;" 
d="M416 513c150 0 184 -89 184 -200v-313h-188v299c0 64 -25 95 -77 95c-54 0 -84 -37 -84 -104v-290h-187v386c0 11 -1 29 -2 53l-3 63h188c1 -28 2 -52 2 -77c37 63 92 88 167 88zM357 726h204l-183 -145h-132z" />
    <glyph glyph-name="ncaron" unicode="&#x148;" 
d="M416 513c150 0 184 -89 184 -200v-313h-188v299c0 64 -25 95 -77 95c-54 0 -84 -37 -84 -104v-290h-187v386c0 11 -1 29 -2 53l-3 63h188c1 -28 2 -52 2 -77c37 63 92 88 167 88zM132 726h126l77 -79l76 79h127l-120 -145h-167z" />
    <glyph glyph-name="ntilde" unicode="&#xf1;" 
d="M416 513c150 0 184 -89 184 -200v-313h-188v299c0 64 -25 95 -77 95c-54 0 -84 -37 -84 -104v-290h-187v386c0 11 -1 29 -2 53l-3 63h188c1 -28 2 -52 2 -77c37 63 92 88 167 88zM490 724h81c-10 -87 -69 -144 -140 -144c-19 0 -41 6 -54 10l-78 23c-23 7 -30 8 -43 8
c-24 0 -41 -13 -48 -40h-78c6 84 67 146 146 146c27 0 40 -4 73 -14l77 -22c13 -4 20 -6 31 -6c23 0 30 16 33 39z" />
    <glyph glyph-name="ncommaaccent" unicode="&#x146;" 
d="M416 513c150 0 184 -89 184 -200v-313h-188v299c0 64 -25 95 -77 95c-54 0 -84 -37 -84 -104v-290h-187v386c0 11 -1 29 -2 53l-3 63h188c1 -28 2 -52 2 -77c37 63 92 88 167 88zM247 -65h164l-120 -158h-92z" />
    <glyph glyph-name="ograve" unicode="&#xf2;" 
d="M622 259c0 -151 -83 -271 -282 -271s-302 97 -302 265c0 164 106 266 294 266c167 0 290 -86 290 -260zM331 93c64 0 97 59 97 159c0 105 -31 160 -97 160c-65 0 -98 -55 -98 -160c0 -42 5 -76 16 -103c14 -35 39 -56 82 -56zM117 726h208l107 -145h-129z" />
    <glyph glyph-name="oacute" unicode="&#xf3;" 
d="M622 259c0 -151 -83 -271 -282 -271s-302 97 -302 265c0 164 106 266 294 266c167 0 290 -86 290 -260zM331 93c64 0 97 59 97 159c0 105 -31 160 -97 160c-65 0 -98 -55 -98 -160c0 -42 5 -76 16 -103c14 -35 39 -56 82 -56zM347 726h204l-183 -145h-132z" />
    <glyph glyph-name="ocircumflex" unicode="&#xf4;" 
d="M622 259c0 -151 -83 -271 -282 -271s-302 97 -302 265c0 164 106 266 294 266c167 0 290 -86 290 -260zM331 93c64 0 97 59 97 159c0 105 -31 160 -97 160c-65 0 -98 -55 -98 -160c0 -42 5 -76 16 -103c14 -35 39 -56 82 -56zM257 726h169l120 -145h-130l-74 77l-74 -77
h-130z" />
    <glyph glyph-name="otilde" unicode="&#xf5;" 
d="M622 259c0 -151 -83 -271 -282 -271s-302 97 -302 265c0 164 106 266 294 266c167 0 290 -86 290 -260zM331 93c64 0 97 59 97 159c0 105 -31 160 -97 160c-65 0 -98 -55 -98 -160c0 -42 5 -76 16 -103c14 -35 39 -56 82 -56zM490 724h81c-10 -87 -69 -144 -140 -144
c-19 0 -41 6 -54 10l-78 23c-23 7 -30 8 -43 8c-24 0 -41 -13 -48 -40h-78c6 84 67 146 146 146c27 0 40 -4 73 -14l77 -22c13 -4 20 -6 31 -6c23 0 30 16 33 39z" />
    <glyph glyph-name="odieresis" unicode="&#xf6;" 
d="M622 259c0 -151 -83 -271 -282 -271s-302 97 -302 265c0 164 106 266 294 266c167 0 290 -86 290 -260zM331 93c64 0 97 59 97 159c0 105 -31 160 -97 160c-65 0 -98 -55 -98 -160c0 -42 5 -76 16 -103c14 -35 39 -56 82 -56zM116 726h171v-145h-171v145zM379 726h171
v-145h-171v145z" />
    <glyph glyph-name="omacron" unicode="&#x14d;" 
d="M622 259c0 -151 -83 -271 -282 -271s-302 97 -302 265c0 164 106 266 294 266c167 0 290 -86 290 -260zM331 93c64 0 97 59 97 159c0 105 -31 160 -97 160c-65 0 -98 -55 -98 -160c0 -42 5 -76 16 -103c14 -35 39 -56 82 -56zM141 690h382v-76h-382v76z" />
    <glyph glyph-name="obreve" unicode="&#x14f;" 
d="M622 259c0 -151 -83 -271 -282 -271s-302 97 -302 265c0 164 106 266 294 266c167 0 290 -86 290 -260zM331 93c64 0 97 59 97 159c0 105 -31 160 -97 160c-65 0 -98 -55 -98 -160c0 -42 5 -76 16 -103c14 -35 39 -56 82 -56zM138 726h82c7 -44 46 -69 113 -69
c61 0 97 18 115 69h77c-13 -102 -84 -154 -193 -154c-106 0 -187 46 -194 154z" />
    <glyph glyph-name="ohungarumlaut" unicode="&#x151;" 
d="M622 259c0 -151 -83 -271 -282 -271s-302 97 -302 265c0 164 106 266 294 266c167 0 290 -86 290 -260zM331 93c64 0 97 59 97 159c0 105 -31 160 -97 160c-65 0 -98 -55 -98 -160c0 -42 5 -76 16 -103c14 -35 39 -56 82 -56zM237 726h164l-156 -145h-112zM468 726h164
l-163 -145h-112z" />
    <glyph glyph-name="oslash" unicode="&#xf8;" 
d="M495 481l62 75l48 -37l-59 -72c51 -45 80 -108 80 -196c0 -169 -116 -266 -292 -266c-53 0 -102 9 -146 30l-72 -87l-47 36l67 81c-59 44 -94 111 -94 206c0 169 117 266 292 266c59 0 113 -11 161 -36zM245 178l159 192c-13 21 -36 37 -71 37c-61 0 -96 -53 -96 -157
c0 -24 2 -51 8 -72zM427 304l-152 -184c13 -16 32 -25 59 -25c64 0 97 57 97 156c0 19 -1 40 -4 53z" />
    <glyph glyph-name="oslashacute" unicode="&#x1ff;" 
d="M495 481l62 75l48 -37l-59 -72c51 -45 80 -108 80 -196c0 -169 -116 -266 -292 -266c-53 0 -102 9 -146 30l-72 -87l-47 36l67 81c-59 44 -94 111 -94 206c0 169 117 266 292 266c59 0 113 -11 161 -36zM245 178l159 192c-13 21 -36 37 -71 37c-61 0 -96 -53 -96 -157
c0 -24 2 -51 8 -72zM427 304l-152 -184c13 -16 32 -25 59 -25c64 0 97 57 97 156c0 19 -1 40 -4 53zM350 726h204l-183 -145h-132z" />
    <glyph glyph-name="oe" unicode="&#x153;" horiz-adv-x="1000" 
d="M536 435c40 55 100 82 163 82c182 0 268 -92 268 -304h-360c0 -84 30 -118 89 -118c53 0 84 22 91 69h180c-11 -123 -135 -179 -258 -179c-88 0 -154 35 -187 90c-45 -54 -106 -90 -192 -90c-168 0 -292 91 -292 266c0 176 124 266 292 266c72 0 146 -18 206 -82z
M611 315h176c0 59 -35 107 -82 107c-55 0 -87 -25 -94 -107zM330 95c63 0 97 55 97 156s-33 156 -98 156c-61 0 -96 -53 -96 -156c0 -97 32 -156 97 -156z" />
    <glyph glyph-name="racute" unicode="&#x155;" horiz-adv-x="444" 
d="M425 506v-161c-23 3 -27 3 -40 3c-92 0 -131 -53 -131 -132v-216h-187v382c0 32 -3 82 -5 120h183c2 -52 3 -87 3 -104c26 69 75 108 159 108h18zM199 726h204l-183 -145h-132z" />
    <glyph glyph-name="rcaron" unicode="&#x159;" horiz-adv-x="444" 
d="M425 506v-161c-23 3 -27 3 -40 3c-92 0 -131 -53 -131 -132v-216h-187v382c0 32 -3 82 -5 120h183c2 -52 3 -87 3 -104c26 69 75 108 159 108h18zM2 726h126l77 -79l76 79h127l-120 -145h-167z" />
    <glyph glyph-name="rcommaaccent" unicode="&#x157;" horiz-adv-x="444" 
d="M425 506v-161c-23 3 -27 3 -40 3c-92 0 -131 -53 -131 -132v-216h-187v382c0 32 -3 82 -5 120h183c2 -52 3 -87 3 -104c26 69 75 108 159 108h18zM92 -65h164l-120 -158h-92z" />
    <glyph glyph-name="sacute" unicode="&#x15b;" horiz-adv-x="556" 
d="M277 516c157 0 226 -65 230 -169h-178v6c0 49 -18 70 -58 70c-31 0 -57 -13 -57 -44c0 -29 20 -40 57 -50l122 -33c59 -16 88 -38 104 -63c15 -23 20 -48 20 -77c0 -107 -79 -170 -242 -170c-82 0 -136 12 -176 36c-50 30 -70 80 -70 133v8h186v-4c0 -44 19 -72 63 -72
c43 0 57 28 57 51c0 36 -29 44 -78 58l-80 23c-64 14 -93 36 -112 60c-16 21 -25 50 -25 80c0 89 75 157 237 157zM280 726h204l-183 -145h-132z" />
    <glyph glyph-name="scircumflex" unicode="&#x15d;" horiz-adv-x="556" 
d="M277 516c157 0 226 -65 230 -169h-178v6c0 49 -18 70 -58 70c-31 0 -57 -13 -57 -44c0 -29 20 -40 57 -50l122 -33c59 -16 88 -38 104 -63c15 -23 20 -48 20 -77c0 -107 -79 -170 -242 -170c-82 0 -136 12 -176 36c-50 30 -70 80 -70 133v8h186v-4c0 -44 19 -72 63 -72
c43 0 57 28 57 51c0 36 -29 44 -78 58l-80 23c-64 14 -93 36 -112 60c-16 21 -25 50 -25 80c0 89 75 157 237 157zM192 726h169l120 -145h-130l-74 77l-74 -77h-130z" />
    <glyph glyph-name="scaron" unicode="&#x161;" horiz-adv-x="556" 
d="M277 516c157 0 226 -65 230 -169h-178v6c0 49 -18 70 -58 70c-31 0 -57 -13 -57 -44c0 -29 20 -40 57 -50l122 -33c59 -16 88 -38 104 -63c15 -23 20 -48 20 -77c0 -107 -79 -170 -242 -170c-82 0 -136 12 -176 36c-50 30 -70 80 -70 133v8h186v-4c0 -44 19 -72 63 -72
c43 0 57 28 57 51c0 36 -29 44 -78 58l-80 23c-64 14 -93 36 -112 60c-16 21 -25 50 -25 80c0 89 75 157 237 157zM77 726h126l77 -79l76 79h127l-120 -145h-167z" />
    <glyph glyph-name="scedilla" unicode="&#x15f;" horiz-adv-x="556" 
d="M507 347h-178c1 53 -15 76 -58 76c-31 0 -57 -13 -57 -44c0 -27 12 -37 52 -48l143 -41c72 -20 108 -65 108 -134c0 -111 -85 -169 -226 -170l-25 -48c12 1 21 3 34 3c68 0 98 -37 98 -74c0 -49 -47 -85 -135 -85c-28 0 -71 4 -114 20l13 45c27 -12 53 -22 92 -22
s54 15 54 39c0 27 -27 37 -50 37c-15 0 -25 -4 -38 -9l-23 20l44 75c-148 5 -212 69 -212 166v10h186c-1 -45 18 -76 63 -76c41 0 57 26 57 51c0 22 -13 37 -38 45c-25 9 -50 16 -74 23l-45 13c-32 8 -57 17 -75 26c-35 20 -63 57 -63 114c0 92 77 157 237 157
c157 0 226 -65 230 -169z" />
    <glyph glyph-name="scommaaccent" unicode="&#x219;" horiz-adv-x="556" 
d="M277 516c157 0 226 -65 230 -169h-178v6c0 49 -18 70 -58 70c-31 0 -57 -13 -57 -44c0 -29 20 -40 57 -50l122 -33c59 -16 88 -38 104 -63c15 -23 20 -48 20 -77c0 -107 -79 -170 -242 -170c-82 0 -136 12 -176 36c-50 30 -70 80 -70 133v8h186v-4c0 -44 19 -72 63 -72
c43 0 57 28 57 51c0 36 -29 44 -78 58l-80 23c-64 14 -93 36 -112 60c-16 21 -25 50 -25 80c0 89 75 157 237 157zM206 -65h164l-120 -158h-92z" />
    <glyph glyph-name="germandbls" unicode="&#xdf;" horiz-adv-x="778" 
d="M632 571c0 -57 -25 -77 -72 -105c-34 -20 -43 -32 -43 -55c0 -35 24 -44 53 -63c20 -13 63 -34 86 -48c40 -24 80 -54 80 -134c0 -109 -88 -179 -229 -179c-132 0 -220 47 -220 161h166c1 -39 24 -60 52 -60c35 0 54 27 54 70c0 42 -9 55 -100 102l-25 13
c-52 27 -102 53 -102 120c0 36 14 69 79 106c29 17 39 30 39 61c0 40 -25 75 -89 75c-77 0 -112 -48 -112 -127v-508h-184v516c0 137 95 222 302 222c171 0 265 -59 265 -167z" />
    <glyph glyph-name="tcaron" unicode="&#x165;" horiz-adv-x="444" 
d="M292 650v-150h119v-120h-121v-180c0 -30 2 -49 10 -62c11 -18 33 -22 63 -22c17 0 27 0 47 3v-118c-49 -7 -68 -9 -120 -9c-131 0 -182 33 -182 143v245h-95v120h98v78zM414 721h164l-120 -158h-92z" />
    <glyph glyph-name="tcommaaccent" unicode="&#x163;" horiz-adv-x="444" 
d="M292 650v-150h119v-120h-121v-180c0 -30 2 -49 10 -62c11 -18 33 -22 63 -22c17 0 27 0 47 3v-118c-49 -7 -68 -9 -120 -9c-131 0 -182 33 -182 143v245h-95v120h98v78zM161 -65h164l-120 -158h-92z" />
    <glyph glyph-name="uni021B" unicode="&#x21b;" horiz-adv-x="444" 
d="M292 650v-150h119v-120h-121v-180c0 -30 2 -49 10 -62c11 -18 33 -22 63 -22c17 0 27 0 47 3v-118c-49 -7 -68 -9 -120 -9c-131 0 -182 33 -182 143v245h-95v120h98v78zM161 -65h164l-120 -158h-92z" />
    <glyph glyph-name="tbar" unicode="&#x167;" horiz-adv-x="444" 
d="M292 650v-150h119v-120h-121v-75h105v-68h-105v-38c0 -19 0 -36 4 -48c8 -27 29 -35 69 -35c17 0 27 1 47 3v-118c-23 -3 -43 -6 -59 -7s-36 -2 -61 -2c-129 0 -182 32 -182 143v102h-77v68h77v75h-95v120h98v78z" />
    <glyph glyph-name="thorn" unicode="&#xfe;" 
d="M56 722h190v-291h2c39 60 88 86 163 86c144 0 214 -122 214 -259c0 -151 -77 -273 -234 -273c-57 0 -109 31 -143 75h-2v-252h-190v914zM338 95c60 0 92 53 92 156s-32 156 -91 156c-60 0 -93 -48 -93 -156c0 -107 33 -156 92 -156z" />
    <glyph glyph-name="ugrave" unicode="&#xf9;" 
d="M405 502h188v-404c0 -11 1 -44 3 -98h-185l-4 78c-32 -50 -73 -87 -158 -87c-125 0 -185 66 -185 217v294h187v-296c0 -69 28 -95 75 -95c53 0 79 29 79 97v294zM117 726h208l107 -145h-129z" />
    <glyph glyph-name="uacute" unicode="&#xfa;" 
d="M405 502h188v-404c0 -11 1 -44 3 -98h-185l-4 78c-32 -50 -73 -87 -158 -87c-125 0 -185 66 -185 217v294h187v-296c0 -69 28 -95 75 -95c53 0 79 29 79 97v294zM347 726h204l-183 -145h-132z" />
    <glyph glyph-name="ucircumflex" unicode="&#xfb;" 
d="M405 502h188v-404c0 -11 1 -44 3 -98h-185l-4 78c-32 -50 -73 -87 -158 -87c-125 0 -185 66 -185 217v294h187v-296c0 -69 28 -95 75 -95c53 0 79 29 79 97v294zM245 726h169l120 -145h-130l-74 77l-74 -77h-130z" />
    <glyph glyph-name="utilde" unicode="&#x169;" 
d="M405 502h188v-404c0 -11 1 -44 3 -98h-185l-4 78c-32 -50 -73 -87 -158 -87c-125 0 -185 66 -185 217v294h187v-296c0 -69 28 -95 75 -95c53 0 79 29 79 97v294zM491 724h81c-10 -87 -69 -144 -140 -144c-19 0 -41 6 -54 10l-78 23c-23 7 -30 8 -43 8
c-24 0 -41 -13 -48 -40h-78c6 84 67 146 146 146c27 0 40 -4 73 -14l77 -22c13 -4 20 -6 31 -6c23 0 30 16 33 39z" />
    <glyph glyph-name="udieresis" unicode="&#xfc;" 
d="M405 502h188v-404c0 -11 1 -44 3 -98h-185l-4 78c-32 -50 -73 -87 -158 -87c-125 0 -185 66 -185 217v294h187v-296c0 -69 28 -95 75 -95c53 0 79 29 79 97v294zM116 726h171v-145h-171v145zM379 726h171v-145h-171v145z" />
    <glyph glyph-name="umacron" unicode="&#x16b;" 
d="M405 502h188v-404c0 -11 1 -44 3 -98h-185l-4 78c-32 -50 -73 -87 -158 -87c-125 0 -185 66 -185 217v294h187v-296c0 -69 28 -95 75 -95c53 0 79 29 79 97v294zM138 690h382v-76h-382v76z" />
    <glyph glyph-name="ubreve" unicode="&#x16d;" 
d="M405 502h188v-404c0 -11 1 -44 3 -98h-185l-4 78c-32 -50 -73 -87 -158 -87c-125 0 -185 66 -185 217v294h187v-296c0 -69 28 -95 75 -95c53 0 79 29 79 97v294zM138 726h82c7 -44 46 -69 113 -69c61 0 97 18 115 69h77c-13 -102 -84 -154 -193 -154
c-106 0 -187 46 -194 154z" />
    <glyph glyph-name="uring" unicode="&#x16f;" 
d="M405 502h188v-404c0 -11 1 -44 3 -98h-185l-4 78c-32 -50 -73 -87 -158 -87c-125 0 -185 66 -185 217v294h187v-296c0 -69 28 -95 75 -95c53 0 79 29 79 97v294zM439 653c0 -61 -51 -112 -112 -112c-59 0 -112 50 -112 112c0 63 49 113 112 113c62 0 112 -54 112 -113z
M327 600c29 0 53 24 53 53c0 31 -24 54 -53 54c-31 0 -53 -23 -53 -54c0 -29 22 -53 53 -53z" />
    <glyph glyph-name="uhungarumlaut" unicode="&#x171;" 
d="M405 502h188v-404c0 -11 1 -44 3 -98h-185l-4 78c-32 -50 -73 -87 -158 -87c-125 0 -185 66 -185 217v294h187v-296c0 -69 28 -95 75 -95c53 0 79 29 79 97v294zM252 726h164l-156 -145h-112zM483 726h164l-163 -145h-112z" />
    <glyph glyph-name="uogonek" unicode="&#x173;" 
d="M64 502h187v-296c0 -68 27 -95 75 -95c49 0 79 26 79 95v296h188v-398c0 -15 2 -51 3 -104h-82c-52 -40 -66 -61 -66 -96c0 -39 19 -59 55 -59c17 0 27 4 40 12v-48c-37 -19 -55 -26 -91 -26c-63 0 -98 32 -98 75c0 51 43 107 115 142h-58l-4 78
c-32 -52 -77 -87 -158 -87c-123 0 -185 62 -185 223v288z" />
    <glyph glyph-name="wacute" unicode="&#x1e83;" horiz-adv-x="944" 
d="M7 502h192l82 -356l89 356h210l88 -354l89 354h168l-158 -502h-210l-92 350l-99 -350h-206zM525 726h204l-183 -145h-132z" />
    <glyph glyph-name="wcircumflex" unicode="&#x175;" horiz-adv-x="944" 
d="M7 502h192l82 -356l89 356h210l88 -354l89 354h168l-158 -502h-210l-92 350l-99 -350h-206zM392 726h169l120 -145h-130l-74 77l-74 -77h-130z" />
    <glyph glyph-name="wdieresis" unicode="&#x1e85;" horiz-adv-x="944" 
d="M7 502h192l82 -356l89 356h210l88 -354l89 354h168l-158 -502h-210l-92 350l-99 -350h-206zM255 726h171v-145h-171v145zM518 726h171v-145h-171v145z" />
    <glyph glyph-name="wgrave" unicode="&#x1e81;" horiz-adv-x="944" 
d="M7 502h192l82 -356l89 356h210l88 -354l89 354h168l-158 -502h-210l-92 350l-99 -350h-206zM224 726h208l107 -145h-129z" />
    <glyph glyph-name="yacute" unicode="&#xfd;" horiz-adv-x="611" 
d="M8 502h203l100 -349l109 349h175l-273 -692h-175l71 174zM337 726h204l-183 -145h-132z" />
    <glyph glyph-name="ycircumflex" unicode="&#x177;" horiz-adv-x="611" 
d="M8 502h203l100 -349l109 349h175l-273 -692h-175l71 174zM225 726h169l120 -145h-130l-74 77l-74 -77h-130z" />
    <glyph glyph-name="ydieresis" unicode="&#xff;" horiz-adv-x="611" 
d="M8 502h203l100 -349l109 349h175l-273 -692h-175l71 174zM88 726h171v-145h-171v145zM351 726h171v-145h-171v145z" />
    <glyph glyph-name="ygrave" unicode="&#x1ef3;" horiz-adv-x="611" 
d="M8 502h203l100 -349l109 349h175l-273 -692h-175l71 174zM75 726h208l107 -145h-129z" />
    <glyph glyph-name="zacute" unicode="&#x17a;" horiz-adv-x="556" 
d="M51 501h444v-124l-244 -258h256v-119h-467v127l241 253h-230v121zM308 726h204l-183 -145h-132z" />
    <glyph glyph-name="zcaron" unicode="&#x17e;" horiz-adv-x="556" 
d="M51 501h444v-124l-244 -258h256v-119h-467v127l241 253h-230v121zM75 726h126l77 -79l76 79h127l-120 -145h-167z" />
    <glyph glyph-name="zdotaccent" unicode="&#x17c;" horiz-adv-x="556" 
d="M51 501h444v-124l-244 -258h256v-119h-467v127l241 253h-230v121zM200 726h171v-145h-171v145z" />
    <glyph glyph-name="grave.cap" horiz-adv-x="333" 
d="M-50 946h208l107 -145h-129z" />
    <glyph glyph-name="acute" unicode="&#xb4;" horiz-adv-x="333" 
d="M180 726h204l-183 -145h-132z" />
    <glyph glyph-name="acute.cap" horiz-adv-x="333" 
d="M180 946h204l-183 -145h-132z" />
    <glyph glyph-name="circumflex" unicode="&#x2c6;" horiz-adv-x="333" 
d="M78 726h169l120 -145h-130l-74 77l-74 -77h-130z" />
    <glyph glyph-name="circumflex.cap" horiz-adv-x="333" 
d="M78 946h169l120 -145h-130l-74 77l-74 -77h-130z" />
    <glyph glyph-name="caron" unicode="&#x2c7;" horiz-adv-x="333" 
d="M-37 726h126l77 -79l76 79h127l-120 -145h-167z" />
    <glyph glyph-name="caron.cap" horiz-adv-x="333" 
d="M-37 946h126l77 -79l76 79h127l-120 -145h-167z" />
    <glyph glyph-name="caron.alt" horiz-adv-x="333" 
d="M120 721h164l-120 -158h-92z" />
    <glyph glyph-name="tilde" unicode="&#x2dc;" horiz-adv-x="333" 
d="M304 724h81c-10 -87 -69 -144 -140 -144c-19 0 -41 6 -54 10l-78 23c-23 7 -30 8 -43 8c-24 0 -41 -13 -48 -40h-78c6 84 67 146 146 146c27 0 40 -4 73 -14l77 -22c13 -4 20 -6 31 -6c23 0 30 16 33 39z" />
    <glyph glyph-name="tilde.cap" horiz-adv-x="333" 
d="M304 944h81c-10 -87 -69 -144 -140 -144c-19 0 -41 6 -54 10l-78 23c-23 7 -30 8 -43 8c-24 0 -41 -13 -48 -40h-78c5 84 67 146 146 146c27 0 40 -4 73 -14l77 -22c13 -4 20 -6 31 -6c23 0 31 16 33 39z" />
    <glyph glyph-name="dieresis" unicode="&#xa8;" horiz-adv-x="333" 
d="M-51 726h171v-145h-171v145zM212 726h171v-145h-171v145z" />
    <glyph glyph-name="dieresis.cap" horiz-adv-x="333" 
d="M-51 946h171v-145h-171v145zM212 946h171v-145h-171v145z" />
    <glyph glyph-name="macron" unicode="&#xaf;" horiz-adv-x="333" 
d="M-27 690h382v-76h-382v76z" />
    <glyph glyph-name="macron.cap" horiz-adv-x="333" 
d="M-27 910h382v-76h-382v76z" />
    <glyph glyph-name="uni02C9" unicode="&#x2c9;" horiz-adv-x="333" 
d="M-27 690h382v-76h-382v76z" />
    <glyph glyph-name="breve" unicode="&#x2d8;" horiz-adv-x="333" 
d="M-30 726h82c7 -44 46 -69 113 -69c61 0 97 18 115 69h77c-13 -102 -84 -154 -193 -154c-106 0 -187 46 -194 154z" />
    <glyph glyph-name="breve.cap" horiz-adv-x="333" 
d="M-30 946h82c7 -44 46 -69 113 -69c61 0 97 18 115 69h77c-13 -102 -84 -154 -193 -154c-106 0 -187 46 -194 154z" />
    <glyph glyph-name="ring" unicode="&#x2da;" horiz-adv-x="333" 
d="M279 653c0 -61 -51 -112 -112 -112c-59 0 -112 50 -112 112c0 63 49 113 112 113c62 0 112 -54 112 -113zM167 600c29 0 53 24 53 53c0 31 -24 54 -53 54c-31 0 -53 -23 -53 -54c0 -29 22 -53 53 -53z" />
    <glyph glyph-name="ring.cap" horiz-adv-x="333" 
d="M279 873c0 -61 -51 -112 -112 -112c-59 0 -112 50 -112 112c0 63 49 113 112 113c62 0 112 -54 112 -113zM167 820c29 0 53 24 53 53c0 31 -24 54 -53 54c-31 0 -53 -23 -53 -54c0 -29 22 -53 53 -53z" />
    <glyph glyph-name="hungarumlaut" unicode="&#x2dd;" 
d="M232 726h164l-156 -145h-112zM463 726h164l-163 -145h-112z" />
    <glyph glyph-name="hungarumlaut.cap" 
d="M232 946h164l-156 -145h-112zM463 946h164l-163 -145h-112z" />
    <glyph glyph-name="dotaccent" unicode="&#x2d9;" horiz-adv-x="333" 
d="M81 726h171v-145h-171v145z" />
    <glyph glyph-name="dotaccent.cap" horiz-adv-x="333" 
d="M81 946h171v-145h-171v145z" />
    <glyph glyph-name="cedilla" unicode="&#xb8;" horiz-adv-x="333" 
d="M81 -88l58 97h49l-38 -71c8 1 19 3 34 3c68 0 98 -37 98 -74c0 -48 -46 -85 -135 -85c-29 0 -71 3 -114 20l13 45c35 -16 57 -21 92 -22c39 -1 54 15 54 39c0 27 -27 37 -50 37c-16 0 -26 -4 -38 -9z" />
    <glyph glyph-name="ogonek" unicode="&#x2db;" horiz-adv-x="333" 
d="M189 1h45c-49 -36 -68 -64 -68 -97c0 -37 17 -59 56 -59c16 0 26 4 39 12v-48c-36 -18 -54 -26 -91 -26c-64 0 -98 34 -98 75c0 51 45 108 117 143z" />
    <glyph glyph-name="commaaccent" horiz-adv-x="333" 
d="M104 -65h164l-120 -158h-92z" />
    <glyph glyph-name="commaaccent.alt" horiz-adv-x="333" 
d="M185 744h92l-48 -158h-164z" />
    <glyph glyph-name="ellipsis" unicode="&#x2026;" horiz-adv-x="1000" 
d="M79 149h176v-149h-176v149zM412 149h176v-149h-176v149zM745 149h176v-149h-176v149z" />
    <glyph glyph-name="uni00AD" unicode="&#xad;" horiz-adv-x="333" 
d="M22 323h284v-119h-284v119z" />
    <glyph glyph-name="exclamdown" unicode="&#xa1;" horiz-adv-x="444" 
d="M130 539h180v-150h-180v150zM150 324h144l37 -507h-217z" />
    <glyph glyph-name="questiondown" unicode="&#xbf;" horiz-adv-x="556" 
d="M232 539h180v-150h-180v150zM38 -7c0 51 18 91 70 138c19 17 43 35 71 55c50 35 63 59 63 106v57h160c-1 -27 1 -48 1 -77c0 -37 -6 -55 -38 -88l-62 -64c-22 -23 -55 -66 -55 -105c0 -49 43 -83 138 -83c30 0 59 3 99 15v-130c-56 -11 -110 -15 -161 -15
c-182 0 -286 70 -286 191z" />
    <glyph glyph-name="quoteleft" unicode="&#x2018;" horiz-adv-x="333" 
d="M148 722h134l-67 -266h-186z" />
    <glyph glyph-name="quoteright" unicode="&#x2019;" horiz-adv-x="333" 
d="M106 722h187l-119 -266h-135z" />
    <glyph glyph-name="quotedblleft" unicode="&#x201c;" 
d="M211 722h134l-67 -266h-187zM453 722h134l-67 -266h-187z" />
    <glyph glyph-name="quotedblright" unicode="&#x201d;" 
d="M160 722h186l-119 -266h-134zM402 722h186l-119 -266h-134z" />
    <glyph glyph-name="quotesinglbase" unicode="&#x201a;" horiz-adv-x="333" 
d="M83 139h172l-105 -236h-127z" />
    <glyph glyph-name="quotedblbase" unicode="&#x201e;" 
d="M155 139h171l-104 -236h-127zM392 139h172l-105 -236h-127z" />
    <glyph glyph-name="guilsinglleft" unicode="&#x2039;" horiz-adv-x="333" 
d="M150 449h155l-119 -196l119 -194h-154l-125 196z" />
    <glyph glyph-name="guilsinglright" unicode="&#x203a;" horiz-adv-x="333" 
d="M26 449h154l125 -196l-124 -194h-155l119 196z" />
    <glyph glyph-name="guillemotleft" unicode="&#xab;" 
d="M181 449h155l-120 -196l120 -194h-154l-125 196zM449 449h155l-119 -196l119 -194h-154l-125 196z" />
    <glyph glyph-name="guillemotright" unicode="&#xbb;" 
d="M57 449h154l125 -196l-124 -194h-155l119 196zM325 449h154l125 -196l-124 -194h-155l119 196z" />
    <glyph glyph-name="endash" unicode="&#x2013;" horiz-adv-x="500" 
d="M0 331h500v-127h-500v127z" />
    <glyph glyph-name="emdash" unicode="&#x2014;" horiz-adv-x="1000" 
d="M130 331h740v-127h-740v127z" />
    <glyph glyph-name="bullet" unicode="&#x2022;" horiz-adv-x="500" 
d="M431 361c0 -100 -81 -180 -181 -180c-99 0 -181 80 -181 180c0 99 80 181 181 181c107 0 181 -89 181 -181z" />
    <glyph glyph-name="periodcentered" unicode="&#xb7;" horiz-adv-x="333" 
d="M72 353h176v-149h-176v149z" />
    <glyph glyph-name="uni2219" unicode="&#x2219;" horiz-adv-x="333" 
d="M72 353h176v-149h-176v149z" />
    <glyph glyph-name="dagger" unicode="&#x2020;" 
d="M250 722h156v-156h168v-125h-168v-441h-156v441h-171v125h171v156z" />
    <glyph glyph-name="daggerdbl" unicode="&#x2021;" 
d="M250 722h156v-148h168v-125h-168v-174h168v-125h-168v-150h-156v150h-171v125h171v174h-171v125h171v148z" />
    <glyph glyph-name="section" unicode="&#xa7;" 
d="M502 726v-114c-56 19 -98 22 -126 22c-40 0 -72 -10 -72 -35c0 -27 31 -37 87 -56c16 -5 51 -18 72 -25c96 -32 112 -86 112 -139c0 -65 -39 -108 -94 -135c67 -35 82 -70 82 -114c0 -100 -89 -150 -234 -150c-61 0 -147 6 -207 22v113c60 -20 106 -24 142 -24
c68 0 102 13 102 45c0 20 -15 33 -70 52l-94 33c-87 31 -112 70 -112 127c0 63 30 105 110 145c-52 19 -86 60 -86 116c0 88 76 133 213 133c38 0 129 -9 175 -16zM372 282c15 19 36 48 36 79c0 47 -41 66 -98 93c-20 -16 -48 -42 -48 -75c0 -41 33 -69 110 -97z" />
    <glyph glyph-name="paragraph" unicode="&#xb6;" horiz-adv-x="850" 
d="M377 722h349v-112h-50v-788h-136v788h-89v-788h-136v422c-119 7 -195 93 -195 224c0 151 103 254 257 254z" />
    <glyph glyph-name="brokenbar" unicode="&#xa6;" horiz-adv-x="278" 
d="M68 675h142v-350h-142v350zM68 175h142v-350h-142v350z" />
    <glyph glyph-name="copyright" unicode="&#xa9;" horiz-adv-x="800" 
d="M780 363c0 -207 -169 -380 -376 -380c-217 0 -383 173 -383 380c0 208 167 379 385 379c201 0 374 -170 374 -379zM405 49c168 0 309 142 309 314c0 171 -140 314 -311 314c-176 0 -316 -141 -316 -314c0 -169 133 -314 318 -314zM599 440h-124c-5 44 -36 60 -70 60
c-61 0 -94 -48 -94 -144c0 -89 33 -136 94 -136c40 0 66 19 71 62h125c0 -96 -73 -146 -194 -146c-150 0 -220 85 -220 221c0 120 63 228 215 228c119 0 193 -45 197 -145z" />
    <glyph glyph-name="registered" unicode="&#xae;" horiz-adv-x="400" 
d="M389 552c0 -104 -86 -189 -188 -189c-109 0 -191 87 -191 189c0 104 82 190 191 190c103 0 188 -86 188 -190zM201 396c85 0 156 71 156 156c0 86 -71 157 -157 157s-157 -69 -157 -157c0 -85 70 -156 158 -156zM112 657h102c59 0 75 -18 75 -54c0 -25 -11 -46 -51 -51
v-1c23 -2 36 -5 42 -24c5 -16 7 -39 10 -59c2 -11 4 -19 5 -21h-63l-4 22c-2 12 -3 27 -4 36c-2 17 -8 24 -27 24h-26v-82h-59v210zM171 619v-52h21c24 0 40 1 40 26c0 21 -12 26 -43 26h-18z" />
    <glyph glyph-name="trademark" unicode="&#x2122;" horiz-adv-x="950" 
d="M62 722h320v-70h-112v-291h-100v291h-108v70zM412 722h155l58 -244l57 244h154v-361h-91l4 304l-85 -304h-89l-79 304v-304h-84v361z" />
    <glyph glyph-name="currency" unicode="&#xa4;" horiz-adv-x="660" 
d="M153 611l67 -67c35 19 67 29 110 29c31 0 56 -2 111 -29l66 67l84 -84l-66 -67c26 -54 29 -81 29 -111c0 -44 -10 -74 -29 -110l67 -67l-84 -84l-67 67c-51 -26 -80 -29 -110 -29c-45 0 -74 10 -111 29l-67 -67l-84 84l67 67c-20 40 -29 65 -29 110c0 37 10 74 29 111
l-67 67zM330 251c56 0 99 44 99 99c0 56 -45 98 -99 98c-55 0 -99 -46 -99 -98c0 -56 44 -99 99 -99z" />
    <glyph glyph-name="Euro" unicode="&#x20ac;" 
d="M48 319h55v59h-74l23 96h60c28 149 118 239 275 239c137 0 245 -63 248 -204h-182c-4 47 -21 75 -66 75c-56 0 -76 -48 -85 -110h196l-23 -96h-179v-59h163l-22 -95h-137c7 -50 24 -111 86 -111c45 0 65 36 69 82h182c-6 -135 -113 -209 -252 -209
c-168 0 -249 96 -277 237l-83 1z" />
    <glyph glyph-name="cent" unicode="&#xa2;" 
d="M367 644h139l-40 -146c88 -37 135 -106 135 -174h-196v7c0 36 -23 56 -67 56c-52 0 -80 -44 -80 -136s28 -136 80 -136c39 0 67 16 71 79h195c-6 -129 -116 -209 -249 -209h-12l-44 -141h-139l45 169c-107 49 -142 135 -142 248c0 160 89 243 266 256z" />
    <glyph glyph-name="sterling" unicode="&#xa3;" 
d="M645 526v-7h-185c0 83 -30 108 -78 108c-57 0 -87 -28 -87 -147v-29h145v-114h-145v-220h316v-117h-577v117h74v220h-96v114h96c1 98 10 149 40 193c50 73 131 98 236 98c173 0 261 -71 261 -216z" />
    <glyph glyph-name="florin" unicode="&#x192;" 
d="M574 700l-23 -126c-13 3 -26 3 -31 3c-79 0 -69 -87 -85 -144h96l-24 -130h-94l-56 -296c-18 -93 -36 -131 -70 -161c-33 -30 -79 -44 -149 -44c-33 0 -70 1 -106 8l24 122l33 -1c31 -1 52 14 61 56l64 316h-97l25 130h94l16 77c11 53 23 95 44 126c35 51 98 71 180 71
c33 0 66 -2 98 -7z" />
    <glyph glyph-name="yen" unicode="&#xa5;" 
d="M9 692h201l120 -273l127 273h201l-139 -258h94v-130h-149l-30 -54h179v-130h-188v-120h-190v120h-181v130h179l-30 54h-149v130h89z" />
    <glyph glyph-name="ordfeminine" unicode="&#xaa;" horiz-adv-x="367" 
d="M352 646v-154c0 -15 2 -30 7 -65h-133l-4 25h-2c-9 -13 -41 -34 -81 -34c-77 0 -131 33 -131 100c0 55 53 89 111 105c26 7 51 9 78 9h26c0 19 -8 35 -30 35c-21 0 -39 -10 -40 -23h-117c0 55 53 93 169 93c88 0 147 -39 147 -91zM177 488c30 0 45 14 45 60v14
c-63 -1 -84 -11 -84 -38c0 -23 15 -36 39 -36z" />
    <glyph glyph-name="ordmasculine" unicode="&#xba;" horiz-adv-x="400" 
d="M390 578c0 -102 -76 -160 -189 -160c-114 0 -190 57 -190 160c0 101 74 159 190 159s189 -59 189 -159zM201 488c39 0 59 31 59 90c0 57 -19 89 -59 89c-39 0 -60 -30 -60 -89c0 -60 23 -90 60 -90z" />
    <glyph glyph-name="onesuperior" unicode="&#xb9;" horiz-adv-x="410" 
d="M185 693h110v-409h-130v297c-35 -21 -71 -40 -110 -52v97c48 15 91 36 130 67z" />
    <glyph glyph-name="twosuperior" unicode="&#xb2;" horiz-adv-x="410" 
d="M384 596c0 -63 -89 -147 -214 -229h215v-83h-368v78c37 31 81 62 118 92c64 52 114 100 114 135c0 24 -14 36 -47 36c-31 0 -49 -22 -49 -41h-127c1 75 66 124 187 124c105 0 171 -43 171 -112z" />
    <glyph glyph-name="threesuperior" unicode="&#xb3;" horiz-adv-x="410" 
d="M383 604c0 -55 -44 -90 -104 -101v-2c66 -7 113 -42 113 -106c0 -93 -111 -120 -192 -120c-125 0 -187 44 -196 129h131c1 -14 6 -30 21 -39c9 -5 22 -7 39 -7c35 0 62 10 62 46c0 39 -28 53 -77 53h-44v83h37c50 0 75 16 75 53c0 21 -23 32 -51 32
c-27 0 -50 -17 -50 -36h-132c0 86 100 119 184 119c109 0 184 -37 184 -104z" />
    <glyph glyph-name="fraction" unicode="&#x2044;" horiz-adv-x="167" 
d="M212 707h109l-365 -707h-109z" />
    <glyph glyph-name="uni2215" unicode="&#x2215;" horiz-adv-x="167" 
d="M212 707h109l-365 -707h-109z" />
    <glyph glyph-name="onehalf" unicode="&#xbd;" horiz-adv-x="930" 
d="M171 693h110v-409h-130v297c-35 -21 -71 -40 -110 -52v97c48 15 91 36 130 67zM558 707h109l-365 -707h-109zM887 312c0 -63 -89 -147 -214 -229h215v-83h-368v78c37 31 81 62 118 92c64 52 114 100 114 135c0 24 -14 36 -47 36c-31 0 -49 -22 -49 -41h-127
c1 75 66 124 187 124c105 0 171 -43 171 -112z" />
    <glyph glyph-name="onethird" unicode="&#x2153;" horiz-adv-x="930" 
d="M163 693h110v-409h-130v297c-35 -21 -71 -40 -110 -52v97c48 15 91 36 130 67zM550 707h109l-365 -707h-109zM888 320c0 -55 -44 -90 -104 -101v-2c66 -7 113 -42 113 -106c0 -93 -111 -120 -192 -120c-125 0 -187 44 -196 129h131c1 -14 6 -30 21 -39c9 -5 22 -7 39 -7
c35 0 62 10 62 46c0 39 -28 53 -77 53h-44v83h37c50 0 75 16 75 53c0 21 -23 32 -51 32c-27 0 -50 -17 -50 -36h-132c0 86 100 119 184 119c109 0 184 -37 184 -104z" />
    <glyph glyph-name="onequarter" unicode="&#xbc;" horiz-adv-x="930" 
d="M171 693h110v-409h-130v297c-35 -21 -71 -40 -110 -52v97c48 15 91 36 130 67zM558 707h109l-365 -707h-109zM661 410h171v-249h56v-81h-56v-81h-126v81h-208v103zM707 161v168l-113 -168h113z" />
    <glyph glyph-name="oneeighth" unicode="&#x215b;" horiz-adv-x="930" 
d="M159 693h110v-409h-130v297c-35 -21 -71 -40 -110 -52v97c48 15 91 36 130 67zM548 707h109l-365 -707h-109zM879 309c0 -49 -42 -84 -98 -93v-3c77 -8 112 -44 112 -100c0 -80 -63 -122 -188 -122c-129 0 -199 46 -199 119c0 51 31 92 116 104v2c-56 8 -100 46 -100 93
c0 72 59 110 180 110c120 0 177 -37 177 -110zM701 253c40 0 53 18 53 45c0 28 -14 46 -55 46c-38 0 -52 -17 -52 -45c0 -27 14 -46 54 -46zM700 70c49 0 67 25 67 52c0 25 -17 55 -69 55c-47 0 -64 -26 -64 -54c0 -27 16 -53 66 -53z" />
    <glyph glyph-name="twothirds" unicode="&#x2154;" horiz-adv-x="930" 
d="M381 596c0 -63 -89 -147 -214 -229h215v-83h-368v78c37 31 81 62 118 92c64 52 114 100 114 135c0 24 -14 36 -47 36c-31 0 -49 -22 -49 -41h-127c1 75 66 124 187 124c105 0 171 -43 171 -112zM611 707h109l-365 -707h-109zM906 320c0 -55 -44 -90 -104 -101v-2
c66 -7 113 -42 113 -106c0 -93 -111 -120 -192 -120c-125 0 -187 44 -196 129h131c1 -14 6 -30 21 -39c9 -5 22 -7 39 -7c35 0 62 10 62 46c0 39 -28 53 -77 53h-44v83h37c50 0 75 16 75 53c0 21 -23 32 -51 32c-27 0 -50 -17 -50 -36h-132c0 86 100 119 184 119
c109 0 184 -37 184 -104z" />
    <glyph glyph-name="threequarters" unicode="&#xbe;" horiz-adv-x="930" 
d="M396 604c0 -55 -44 -90 -104 -101v-2c66 -7 113 -42 113 -106c0 -93 -111 -120 -192 -120c-125 0 -187 44 -196 129h131c1 -14 6 -30 21 -39c9 -5 22 -7 39 -7c35 0 62 10 62 46c0 39 -28 53 -77 53h-44v83h37c50 0 75 16 75 53c0 21 -23 32 -51 32
c-27 0 -50 -17 -50 -36h-132c0 86 100 119 184 119c109 0 184 -37 184 -104zM619 707h109l-365 -707h-109zM685 410h171v-249h56v-81h-56v-81h-126v81h-208v103zM731 161v168l-113 -168h113z" />
    <glyph glyph-name="threeeighths" unicode="&#x215c;" horiz-adv-x="930" 
d="M394 604c0 -55 -44 -90 -104 -101v-2c66 -7 113 -42 113 -106c0 -93 -111 -120 -192 -120c-125 0 -187 44 -196 129h131c1 -14 6 -30 21 -39c9 -5 22 -7 39 -7c35 0 62 10 62 46c0 39 -28 53 -77 53h-44v83h37c50 0 75 16 75 53c0 21 -23 32 -51 32
c-27 0 -50 -17 -50 -36h-132c0 86 100 119 184 119c109 0 184 -37 184 -104zM603 707h109l-365 -707h-109zM900 309c0 -49 -42 -84 -98 -93v-3c77 -8 112 -44 112 -100c0 -80 -63 -122 -188 -122c-129 0 -199 46 -199 119c0 51 31 92 116 104v2c-56 8 -100 46 -100 93
c0 72 59 110 180 110c120 0 177 -37 177 -110zM722 253c40 0 53 18 53 45c0 28 -14 46 -55 46c-38 0 -52 -17 -52 -45c0 -27 14 -46 54 -46zM721 70c49 0 67 25 67 52c0 25 -17 55 -69 55c-47 0 -64 -26 -64 -54c0 -27 16 -53 66 -53z" />
    <glyph glyph-name="fiveeighths" unicode="&#x215d;" horiz-adv-x="930" 
d="M30 692h323v-86h-201l-7 -89c23 35 62 48 95 48c83 0 145 -52 145 -137c0 -95 -72 -154 -183 -154c-112 0 -187 48 -187 132h133c5 -32 29 -46 49 -46c36 0 53 25 53 64c0 32 -14 60 -49 60c-31 0 -41 -12 -46 -33l-134 1zM592 707h109l-365 -707h-109zM900 309
c0 -49 -42 -84 -98 -93v-3c77 -8 112 -44 112 -100c0 -80 -63 -122 -188 -122c-129 0 -199 46 -199 119c0 51 31 92 116 104v2c-56 8 -100 46 -100 93c0 72 59 110 180 110c120 0 177 -37 177 -110zM722 253c40 0 53 18 53 45c0 28 -14 46 -55 46c-38 0 -52 -17 -52 -45
c0 -27 14 -46 54 -46zM721 70c49 0 67 25 67 52c0 25 -17 55 -69 55c-47 0 -64 -26 -64 -54c0 -27 16 -53 66 -53z" />
    <glyph glyph-name="seveneighths" unicode="&#x215e;" horiz-adv-x="930" 
d="M26 691h361v-89l-180 -319h-151l195 318h-225v90zM545 707h109l-365 -707h-109zM890 309c0 -49 -42 -84 -98 -93v-3c77 -8 112 -44 112 -100c0 -80 -63 -122 -188 -122c-129 0 -199 46 -199 119c0 51 31 92 116 104v2c-56 8 -100 46 -100 93c0 72 59 110 180 110
c120 0 177 -37 177 -110zM712 253c40 0 53 18 53 45c0 28 -14 46 -55 46c-38 0 -52 -17 -52 -45c0 -27 14 -46 54 -46zM711 70c49 0 67 25 67 52c0 25 -17 55 -69 55c-47 0 -64 -26 -64 -54c0 -27 16 -53 66 -53z" />
    <glyph glyph-name="perthousand" unicode="&#x2030;" horiz-adv-x="1000" 
d="M508 744h98l-460 -764h-100zM301 559c0 -112 -55 -175 -144 -175s-144 56 -144 169c0 105 48 176 147 176c91 0 141 -63 141 -170zM157 460c25 0 38 34 38 102c0 72 -15 89 -38 89c-25 0 -39 -24 -39 -95c0 -72 14 -96 39 -96zM646 169c0 -107 -52 -175 -144 -175
c-95 0 -145 65 -145 170c0 104 48 175 147 175c92 0 142 -65 142 -170zM980 169c0 -108 -52 -175 -144 -175c-89 0 -144 57 -144 169c0 105 47 176 147 176c92 0 141 -65 141 -170zM502 70c25 0 38 35 38 102c0 72 -14 89 -39 89c-27 0 -38 -31 -38 -95c0 -68 11 -96 39 -96
zM836 70c25 0 38 37 38 102c0 72 -14 89 -39 89c-27 0 -38 -31 -38 -95c0 -72 14 -96 39 -96z" />
    <glyph glyph-name="minus" unicode="&#x2212;" horiz-adv-x="660" 
d="M78 311h504v-120h-504v120z" />
    <glyph glyph-name="plusminus" unicode="&#xb1;" horiz-adv-x="660" 
d="M259 578h143v-155h197v-140h-197v-147h-143v147h-198v140h198v155zM61 101h538v-141h-538v141z" />
    <glyph glyph-name="multiply" unicode="&#xd7;" horiz-adv-x="660" 
d="M494 531l98 -98l-163 -164l163 -164l-98 -98l-164 163l-164 -163l-98 98l164 164l-164 164l98 98l164 -164z" />
    <glyph glyph-name="divide" unicode="&#xf7;" horiz-adv-x="660" 
d="M251 536h158v-151h-158v151zM61 339h538v-140h-538v140zM251 153h158v-151h-158v151z" />
    <glyph glyph-name="notequal" unicode="&#x2260;" horiz-adv-x="660" 
d="M346 450l76 146l128 -60l-45 -86h86v-139h-158l-46 -87h204v-140h-278l-74 -147l-128 62l46 85h-89v140h160l46 87h-206v139h278z" />
    <glyph glyph-name="approxequal" unicode="&#x2248;" horiz-adv-x="660" 
d="M320 455l61 -21c28 -9 53 -14 76 -14c28 0 41 19 45 56h110c-12 -132 -75 -201 -167 -201c-22 0 -49 5 -75 13c-31 9 -62 21 -93 32c-29 11 -55 16 -73 16c-25 0 -39 -21 -46 -48h-108c12 121 71 188 170 188c30 0 64 -9 100 -21zM377 220c30 -10 57 -15 81 -15
s36 17 44 44h110c-17 -128 -75 -190 -164 -190c-12 0 -39 0 -86 16l-80 28c-32 12 -61 19 -79 19c-25 0 -42 -20 -47 -59h-108c12 124 72 200 164 200c49 0 106 -23 165 -43z" />
    <glyph glyph-name="lessequal" unicode="&#x2264;" horiz-adv-x="660" 
d="M584 694v-149l-290 -121l290 -115v-151l-509 209v118zM75 143h509v-131h-509v131z" />
    <glyph glyph-name="greaterequal" unicode="&#x2265;" horiz-adv-x="660" 
d="M75 694l509 -209v-118l-509 -209v151l290 115l-290 121v149zM75 143h509v-131h-509v131z" />
    <glyph glyph-name="logicalnot" unicode="&#xac;" horiz-adv-x="660" 
d="M61 458h538v-378h-146v237h-392v141z" />
    <glyph glyph-name="Delta" unicode="&#x2206;" horiz-adv-x="722" 
d="M276 708h153l284 -708h-704zM349 461l-101 -294h209z" />
    <glyph glyph-name="uni0394" unicode="&#x394;" horiz-adv-x="722" 
d="M276 708h153l284 -708h-704zM349 461l-101 -294h209z" />
    <glyph glyph-name="Omega" unicode="&#x2126;" horiz-adv-x="777" 
d="M726 417c0 -119 -55 -211 -154 -244v-11h154v-162h-302v249c73 16 112 81 112 160c0 84 -64 147 -147 147s-149 -63 -149 -148c0 -80 37 -139 112 -159v-249h-302v162h155v11c-96 30 -155 127 -155 242c0 187 149 306 338 306c188 0 338 -115 338 -304z" />
    <glyph glyph-name="uni03A9" unicode="&#x3a9;" horiz-adv-x="777" 
d="M726 417c0 -119 -55 -211 -154 -244v-11h154v-162h-302v249c73 16 112 81 112 160c0 84 -64 147 -147 147s-149 -63 -149 -148c0 -80 37 -139 112 -159v-249h-302v162h155v11c-96 30 -155 127 -155 242c0 187 149 306 338 306c188 0 338 -115 338 -304z" />
    <glyph glyph-name="mu" unicode="&#xb5;" 
d="M94 502h140v-254c0 -109 23 -142 86 -142c61 0 92 32 92 136v260h139v-502h-116v57c-28 -44 -64 -65 -109 -65s-75 16 -98 48v-253h-134v715z" />
    <glyph glyph-name="uni03BC" unicode="&#x3bc;" 
d="M94 502h140v-254c0 -109 23 -142 86 -142c61 0 92 32 92 136v260h139v-502h-116v57c-28 -44 -64 -65 -109 -65s-75 16 -98 48v-253h-134v715z" />
    <glyph glyph-name="pi" unicode="&#x3c0;" horiz-adv-x="666" 
d="M34 502h591v-127h-78v-208c0 -33 9 -50 35 -50c12 0 26 4 45 12v-111c-35 -18 -59 -25 -106 -25c-79 0 -114 37 -114 133v249h-155v-375h-139v375h-79v127z" />
    <glyph glyph-name="degree" unicode="&#xb0;" horiz-adv-x="400" 
d="M350 557c0 -85 -71 -150 -150 -150c-84 0 -150 68 -150 150c0 84 68 150 150 150c83 0 150 -70 150 -150zM199 487c40 0 71 24 71 67c0 40 -31 73 -72 73c-39 0 -68 -31 -68 -70c0 -44 26 -70 69 -70z" />
    <glyph glyph-name="afii61289" unicode="&#x2113;" horiz-adv-x="500" 
d="M462 566c0 -103 -63 -195 -196 -303v-103c0 -41 26 -61 57 -61c24 0 53 13 88 37h2l52 -80c-57 -47 -113 -70 -181 -70c-79 0 -142 33 -164 99c-7 22 -9 29 -9 77l-54 -45h-2l-54 84l109 86v236c0 105 76 198 192 198c100 0 160 -63 160 -155zM266 553v-160
c52 53 70 108 70 164c0 33 -12 62 -35 62c-20 0 -35 -31 -35 -66z" />
    <glyph glyph-name="estimated" unicode="&#x212e;" horiz-adv-x="990" 
d="M912 350h-676c-4 0 -6 -1 -6 -6v-192c0 -10 2 -25 8 -31c55 -69 145 -109 254 -109c120 0 201 51 273 119h73c-82 -99 -171 -146 -343 -146c-266 0 -418 171 -418 367c0 197 156 385 416 385c321 0 419 -208 419 -387zM758 377v198c0 10 -4 19 -11 27
c-70 88 -184 109 -257 109c-82 0 -177 -31 -250 -107c-7 -6 -10 -17 -10 -28v-199c0 -4 2 -5 6 -5h517c3 0 5 1 5 5z" />
    <glyph glyph-name="eng" unicode="&#x14b;" horiz-adv-x="670" 
d="M600 309v-348c0 -44 -7 -78 -24 -102c-27 -38 -65 -55 -181 -55c-23 0 -43 1 -60 2v123c11 -1 19 -1 22 -1c18 0 37 2 47 21c6 12 8 30 8 56v295c0 64 -26 94 -77 94c-56 0 -84 -39 -84 -107v-287h-187v395c0 14 -2 50 -5 107h188c1 -39 2 -64 2 -77c37 63 91 88 167 88
s137 -23 165 -87c13 -30 19 -69 19 -117z" />
    <glyph glyph-name="Eng" unicode="&#x14a;" horiz-adv-x="803" 
d="M67 722h276l218 -421l-6 421h175v-761c0 -38 -7 -82 -29 -108c-26 -30 -59 -49 -174 -49c-25 0 -55 1 -74 2v123c13 -1 22 -1 27 -1c40 0 69 8 74 55l-313 552l2 -535h-176v722z" />
    <glyph glyph-name="infinity" unicode="&#x221e;" horiz-adv-x="848" 
d="M803 267c0 -113 -74 -195 -190 -195c-71 0 -132 35 -189 99c-63 -71 -117 -98 -186 -98c-113 0 -193 80 -193 193c0 110 74 191 189 191c71 0 127 -31 190 -104c64 76 121 105 190 105c116 0 189 -83 189 -191zM507 263c31 -32 66 -61 106 -61c36 0 58 27 58 62
c0 39 -22 64 -62 64c-29 0 -58 -18 -102 -65zM237 203c39 0 72 28 104 60c-40 41 -80 64 -108 64c-32 0 -56 -28 -56 -63c0 -37 23 -61 60 -61z" />
    <glyph glyph-name="partialdiff" unicode="&#x2202;" horiz-adv-x="721" 
d="M626 358c0 -237 -98 -371 -282 -371c-151 0 -261 98 -261 245c0 135 93 232 250 232c37 0 71 -8 103 -23c-4 70 -47 116 -116 116c-44 0 -93 -12 -146 -64l-86 133c69 63 151 95 239 95c194 0 299 -144 299 -363zM348 144c34 0 54 17 68 40c18 31 22 74 22 93v21
c-25 21 -64 26 -81 26c-52 0 -83 -34 -83 -90c0 -60 37 -90 74 -90z" />
    <glyph glyph-name="integral" unicode="&#x222b;" horiz-adv-x="644" 
d="M535 689c0 -40 -29 -74 -73 -74c-21 0 -36 8 -49 25s-18 27 -22 28c-7 -15 -10 -34 -10 -51c0 -13 2 -34 2 -51v-466c0 -95 -5 -153 -17 -190c-24 -75 -68 -123 -162 -123c-75 0 -131 39 -131 100c0 37 37 69 74 69c19 0 36 -9 47 -25s17 -24 21 -25c7 5 9 34 9 71
c0 17 -1 35 -1 54v489c0 183 61 264 182 264c54 0 130 -27 130 -95z" />
    <glyph glyph-name="radical" unicode="&#x221a;" horiz-adv-x="585" 
d="M434 786h160l-216 -1000h-136l-141 291l-51 -23l-60 126l188 84l103 -222z" />
    <glyph glyph-name="summation" unicode="&#x2211;" horiz-adv-x="675" 
d="M38 786h604v-148h-392l247 -345l-263 -359h420v-148h-628v122l287 384l-275 372v122z" />
    <glyph glyph-name="product" unicode="&#x220f;" horiz-adv-x="759" 
d="M58 786h645v-1000h-171v852h-305v-852h-169v1000z" />
    <glyph glyph-name="lozenge" unicode="&#x25ca;" horiz-adv-x="612" 
d="M241 747h129l187 -391l-187 -391h-130l-183 391zM305 575l-93 -219l93 -219l95 219z" />
    <glyph glyph-name="uniF8FF" unicode="&#xf8ff;" horiz-adv-x="512" 
d="M0 718h512v-718h-512v718zM50 50h412v617h-412v-617zM383 478c0 -78 -50 -102 -91 -147c-13 -15 -20 -29 -20 -66v-32h-49v39c0 104 109 128 109 202c0 48 -35 85 -76 85s-74 -27 -82 -95l-50 8c9 96 64 137 135 137c72 0 124 -51 124 -131zM217 117v67h61v-67h-61z" />
    <glyph glyph-name="f_i" unicode="&#xf001;" horiz-adv-x="722" 
d="M316 734c47 0 86 -7 111 -12v-119c-9 3 -30 11 -54 11c-50 0 -69 -35 -69 -91v-21h117v-120h-117v-382h-190v382h-94v120h96v15c0 123 15 217 200 217zM459 720h192v-134h-192v134zM461 502h190v-502h-190v502z" />
    <glyph glyph-name="f_l" unicode="&#xf002;" horiz-adv-x="722" 
d="M316 734c47 0 86 -7 111 -12v-119c-9 3 -30 11 -54 11c-50 0 -69 -35 -69 -91v-21h117v-120h-117v-382h-190v382h-94v120h96v15c0 123 15 217 200 217zM461 722h190v-722h-190v722z" />
    <glyph glyph-name="uni2010" unicode="&#x2010;" horiz-adv-x="333" 
d="M22 323h284v-119h-284v119z" />
    <glyph glyph-name="interrobang" unicode="&#x203d;" horiz-adv-x="576" 
d="M538 547c0 -75 -41 -122 -120 -178c-71 -50 -102 -75 -102 -122v-54h-157l-33 339h178l-15 -122l29 26c43 39 48 59 48 85c0 51 -59 91 -154 91c-60 0 -99 -5 -138 -17v130c65 11 109 15 177 15c164 0 287 -67 287 -193zM148 149h176v-149h-176v149z" />
    <glyph glyph-name="zero.superior" unicode="&#x2070;" horiz-adv-x="410" 
d="M399 490c0 -133 -71 -215 -194 -215c-127 0 -194 75 -194 214c0 135 69 215 192 215c125 0 196 -71 196 -214zM205 359c44 0 60 43 60 126c0 80 -12 135 -59 135c-44 0 -60 -47 -60 -132s15 -129 59 -129z" />
    <glyph glyph-name="four.superior" unicode="&#x2074;" horiz-adv-x="410" 
d="M173 694h171v-249h56v-81h-56v-81h-126v81h-208v103zM219 445v168l-113 -168h113z" />
    <glyph glyph-name="five.superior" unicode="&#x2075;" horiz-adv-x="410" 
d="M40 692h323v-86h-201l-7 -89c23 35 62 48 95 48c83 0 145 -52 145 -137c0 -95 -72 -154 -183 -154c-112 0 -187 48 -187 132h133c5 -32 29 -46 49 -46c36 0 53 25 53 64c0 32 -14 60 -49 60c-31 0 -41 -12 -46 -33l-134 1z" />
    <glyph glyph-name="six.superior" unicode="&#x2076;" horiz-adv-x="410" 
d="M379 585h-128c-3 21 -14 43 -45 43c-40 0 -66 -40 -66 -115c16 25 64 46 104 46c91 0 153 -53 153 -134c0 -100 -65 -150 -186 -150c-131 0 -198 73 -198 213c0 143 72 216 199 216c87 0 167 -46 167 -119zM210 357c47 0 63 28 63 63s-17 63 -61 63s-63 -28 -63 -65
c0 -32 16 -61 61 -61z" />
    <glyph glyph-name="seven.superior" unicode="&#x2077;" horiz-adv-x="410" 
d="M21 691h361v-89l-180 -319h-151l195 318h-225v90z" />
    <glyph glyph-name="eight.superior" unicode="&#x2078;" horiz-adv-x="410" 
d="M384 593c0 -49 -42 -84 -98 -93v-3c77 -8 112 -44 112 -100c0 -80 -63 -122 -188 -122c-129 0 -199 46 -199 119c0 51 31 92 116 104v2c-56 8 -100 46 -100 93c0 72 59 110 180 110c120 0 177 -37 177 -110zM206 537c40 0 53 18 53 45c0 28 -14 46 -55 46
c-38 0 -52 -17 -52 -45c0 -27 14 -46 54 -46zM205 354c49 0 67 25 67 52c0 25 -17 55 -69 55c-47 0 -64 -26 -64 -54c0 -27 16 -53 66 -53z" />
    <glyph glyph-name="nine.superior" unicode="&#x2079;" horiz-adv-x="410" 
d="M398 487c0 -133 -76 -213 -206 -213c-114 0 -173 40 -177 120h129c4 -24 20 -41 52 -41c53 0 66 43 69 114c-21 -22 -54 -37 -94 -37c-89 0 -159 50 -159 132c0 95 94 142 189 142c123 0 197 -80 197 -217zM199 506c47 0 63 27 63 58s-14 60 -62 60
c-41 0 -62 -27 -62 -58c0 -29 20 -60 61 -60z" />
    <glyph glyph-name="plus.superior" unicode="&#x207a;" horiz-adv-x="410" 
d="M153 600h104v-114h116v-89h-116v-114h-104v114h-117v89h117v114z" />
    <glyph glyph-name="minus.superior" unicode="&#x207b;" horiz-adv-x="410" 
d="M46 470h317v-78h-317v78z" />
    <glyph glyph-name="equal.superior" unicode="&#x207c;" horiz-adv-x="410" 
d="M36 556h337v-89h-337v89zM36 416h337v-89h-337v89z" />
    <glyph glyph-name="parenleft.superior" unicode="&#x207d;" horiz-adv-x="350" 
d="M183 727h83c-58 -168 -62 -198 -62 -257c0 -92 29 -176 62 -259h-84c-65 88 -93 175 -93 256c0 80 33 173 94 260z" />
    <glyph glyph-name="parenright.superior" unicode="&#x207e;" horiz-adv-x="350" 
d="M84 727h84c65 -88 93 -175 93 -256c0 -80 -32 -172 -94 -260h-83c44 131 62 174 62 257c0 93 -22 151 -62 259z" />
    <glyph glyph-name="n.superior" unicode="&#x207f;" horiz-adv-x="410" 
d="M255 586c76 0 119 -51 119 -131v-172h-131v179c0 29 -11 47 -35 47c-25 0 -40 -19 -40 -56v-170h-130v233l-3 63h131c1 -13 1 -27 1 -40c21 31 44 47 88 47z" />
    <glyph glyph-name="zero.inferior" unicode="&#x2080;" horiz-adv-x="410" 
d="M399 206c0 -133 -71 -215 -194 -215c-127 0 -194 75 -194 214c0 135 69 215 192 215c125 0 196 -71 196 -214zM205 75c44 0 60 43 60 126c0 80 -12 135 -59 135c-44 0 -60 -47 -60 -132s15 -129 59 -129z" />
    <glyph glyph-name="one.inferior" unicode="&#x2081;" horiz-adv-x="410" 
d="M185 409h110v-409h-130v297c-35 -21 -71 -40 -110 -52v97c48 15 91 36 130 67z" />
    <glyph glyph-name="two.inferior" unicode="&#x2082;" horiz-adv-x="410" 
d="M384 312c0 -63 -89 -147 -214 -229h215v-83h-368v78c37 31 81 62 118 92c64 52 114 100 114 135c0 24 -14 36 -47 36c-31 0 -49 -22 -49 -41h-127c1 75 66 124 187 124c105 0 171 -43 171 -112z" />
    <glyph glyph-name="three.inferior" unicode="&#x2083;" horiz-adv-x="410" 
d="M383 320c0 -55 -44 -90 -104 -101v-2c66 -7 113 -42 113 -106c0 -93 -111 -120 -192 -120c-125 0 -187 44 -196 129h131c1 -14 6 -30 21 -39c9 -5 22 -7 39 -7c35 0 62 10 62 46c0 39 -28 53 -77 53h-44v83h37c50 0 75 16 75 53c0 21 -23 32 -51 32
c-27 0 -50 -17 -50 -36h-132c0 86 100 119 184 119c109 0 184 -37 184 -104z" />
    <glyph glyph-name="four.inferior" unicode="&#x2084;" horiz-adv-x="410" 
d="M173 410h171v-249h56v-81h-56v-81h-126v81h-208v103zM219 161v168l-113 -168h113z" />
    <glyph glyph-name="five.inferior" unicode="&#x2085;" horiz-adv-x="410" 
d="M40 408h323v-86h-201l-7 -89c23 35 62 48 95 48c83 0 145 -52 145 -137c0 -95 -72 -154 -183 -154c-112 0 -187 48 -187 132h133c5 -32 29 -46 49 -46c36 0 53 25 53 64c0 32 -14 60 -49 60c-31 0 -41 -12 -46 -33l-134 1z" />
    <glyph glyph-name="six.inferior" unicode="&#x2086;" horiz-adv-x="410" 
d="M379 301h-128c-3 21 -14 43 -45 43c-40 0 -66 -40 -66 -115c16 25 64 46 104 46c91 0 153 -53 153 -134c0 -100 -65 -150 -186 -150c-131 0 -198 73 -198 213c0 143 72 216 199 216c87 0 167 -46 167 -119zM210 73c47 0 63 28 63 63s-17 63 -61 63s-63 -28 -63 -65
c0 -32 16 -61 61 -61z" />
    <glyph glyph-name="seven.inferior" unicode="&#x2087;" horiz-adv-x="410" 
d="M21 407h361v-89l-180 -319h-151l195 318h-225v90z" />
    <glyph glyph-name="eight.inferior" unicode="&#x2088;" horiz-adv-x="410" 
d="M384 309c0 -49 -42 -84 -98 -93v-3c77 -8 112 -44 112 -100c0 -80 -63 -122 -188 -122c-129 0 -199 46 -199 119c0 51 31 92 116 104v2c-56 8 -100 46 -100 93c0 72 59 110 180 110c120 0 177 -37 177 -110zM206 253c40 0 53 18 53 45c0 28 -14 46 -55 46
c-38 0 -52 -17 -52 -45c0 -27 14 -46 54 -46zM205 70c49 0 67 25 67 52c0 25 -17 55 -69 55c-47 0 -64 -26 -64 -54c0 -27 16 -53 66 -53z" />
    <glyph glyph-name="nine.inferior" unicode="&#x2089;" horiz-adv-x="410" 
d="M398 203c0 -133 -76 -213 -206 -213c-114 0 -173 40 -177 120h129c4 -24 20 -41 52 -41c53 0 66 43 69 114c-21 -22 -54 -37 -94 -37c-89 0 -159 50 -159 132c0 95 94 142 189 142c123 0 197 -80 197 -217zM199 222c47 0 63 27 63 58s-14 60 -62 60
c-41 0 -62 -27 -62 -58c0 -29 20 -60 61 -60z" />
    <glyph glyph-name="plus.inferior" unicode="&#x208a;" horiz-adv-x="410" 
d="M153 316h104v-114h116v-89h-116v-114h-104v114h-117v89h117v114z" />
    <glyph glyph-name="minus.inferior" unicode="&#x208b;" horiz-adv-x="410" 
d="M46 186h317v-78h-317v78z" />
    <glyph glyph-name="equal.inferior" unicode="&#x208c;" horiz-adv-x="410" 
d="M36 272h337v-89h-337v89zM36 132h337v-89h-337v89z" />
    <glyph glyph-name="parenleft.inferior" unicode="&#x208d;" horiz-adv-x="410" 
d="M210 443h83c-58 -168 -62 -198 -62 -257c0 -92 29 -176 62 -259h-84c-65 88 -93 175 -93 256c0 80 33 173 94 260z" />
    <glyph glyph-name="parenright.inferior" unicode="&#x208e;" horiz-adv-x="410" 
d="M116 443h84c65 -88 93 -175 93 -256c0 -80 -32 -172 -94 -260h-83c44 131 62 174 62 257c0 93 -22 151 -62 259z" />
    <glyph glyph-name="afii61248" unicode="&#x2105;" horiz-adv-x="1000" 
d="M643 750h107l-375 -762h-111zM243 738c91 0 153 -50 156 -141h-112c-5 41 -23 55 -44 55c-36 0 -51 -46 -51 -118c0 -73 15 -120 51 -120c21 0 39 14 44 55h112c-3 -88 -63 -141 -156 -141c-119 0 -179 69 -179 208c0 136 58 202 179 202zM790 411
c115 0 172 -72 172 -204c0 -135 -57 -207 -173 -207c-115 0 -172 71 -172 204c0 137 58 207 173 207zM743 217v-26c0 -57 7 -104 43 -104c13 0 25 3 33 14c12 16 16 56 16 88v30c0 27 -2 71 -17 93c-6 9 -15 12 -26 12c-25 0 -32 -9 -38 -24c-8 -19 -11 -57 -11 -83z" />
    <glyph glyph-name="published" unicode="&#x2117;" horiz-adv-x="800" 
d="M399 742c103 0 192 -37 267 -112c75 -74 113 -163 113 -268c0 -104 -37 -193 -112 -267s-164 -111 -268 -111s-193 37 -267 111s-111 163 -111 267c0 105 37 195 112 269s163 111 266 111zM87 362c0 -86 31 -160 92 -221c62 -61 135 -91 220 -91s158 30 221 91
s94 135 94 221s-31 160 -92 222s-136 93 -224 93c-85 0 -159 -31 -220 -93c-61 -61 -91 -135 -91 -222zM241 571h203c37 0 65 -5 86 -15c41 -19 73 -59 73 -120c0 -37 -12 -68 -36 -95c-23 -26 -65 -39 -126 -38h-83v-152h-117v420zM358 493v-110h63c44 1 63 17 63 56
s-23 54 -71 54h-55z" />
    <glyph glyph-name="uni20B9" unicode="&#x20b9;" 
d="M618 440h-119c-10 -103 -90 -155 -202 -155l241 -285h-222l-225 277v101h88c67 0 115 7 126 62h-214v96h208c-15 43 -51 61 -97 61h-111v96h527v-96h-156c16 -17 26 -40 31 -61h125v-96z" />
    <glyph glyph-name="uni20BA" unicode="&#x20ba;" 
d="M479 594l-166 -77v-68l166 77v-91l-166 -77v-217h15c89 0 114 120 114 221v13h194c0 -239 -123 -375 -316 -375h-200v271l-75 -35v91l75 35v68l-75 -35v91l75 35v186h193v-99l166 77v-91z" />
    <glyph glyph-name="uni1E9E" unicode="&#x1e9e;" horiz-adv-x="877" 
d="M733 713l-1 -123c-60 -4 -153 -21 -153 -81c0 -45 76 -74 136 -110c90 -53 132 -106 132 -196c0 -152 -122 -219 -269 -219c-153 0 -261 56 -264 210h189c1 -45 24 -76 75 -76c46 0 72 31 72 78c0 54 -50 74 -124 116c-90 50 -151 89 -151 165c0 66 54 108 120 127
c-27 2 -54 3 -72 3c-97 0 -157 -44 -157 -146v-461h-202v459c0 216 135 275 379 275c79 0 211 -9 290 -21z" />
    <glyph glyph-name="uni20BC" unicode="&#x20bc;" horiz-adv-x="862" 
d="M521 443v-373h-190v373c-121 -47 -135 -284 -135 -408v-35h-190v61c0 240 85 473 325 514v118h190v-118c239 -41 325 -274 325 -514v-61h-190v35c0 123 -14 361 -135 408z" />
    <glyph glyph-name="uni20BD" unicode="&#x20bd;" 
d="M128 0v119h-105v117h105v48h-105v117h105v292h269c155 0 257 -47 257 -202c0 -156 -101 -207 -257 -207h-86v-47h178v-116h-178v-121h-183zM311 561v-160h51c62 0 98 15 98 79c0 73 -39 81 -115 81h-34z" />
    </font>
</defs>
</svg>
