<svg xmlns="http://www.w3.org/2000/svg">
<defs>
<font id="UniversLTPro-BlackExt" horiz-adv-x="370" >
  <font-face 
    font-family="Univers LT Pro"
    font-weight="850"
    font-stretch="expanded"
    units-per-em="1000"
    panose-1="2 11 10 5 3 5 2 3 2 4"
    ascent="724"
    descent="-276"
    x-height="502"
    cap-height="722"
    bbox="-165 -212 1320 939"
    underline-thickness="50"
    underline-position="-100"
    stemh="116"
    stemv="122"
    unicode-range="U+000D-FB04"
  />
<missing-glyph horiz-adv-x="512" 
d="M0 718h512v-718h-512v718zM50 50h412v617h-412v-617zM383 478c0 -78 -50 -102 -91 -147c-13 -15 -20 -29 -20 -66v-32h-49v39c0 104 109 128 109 202c0 48 -35 85 -76 85s-74 -27 -82 -95l-50 8c9 96 64 137 135 137c72 0 124 -51 124 -131zM217 117v67h61v-67h-61z" />
    <glyph glyph-name="napostrophe" unicode="&#x22;n" horiz-adv-x="815" 
d="M43 722h182l-122 -160h-118zM734 287v-287h-192v259c0 83 -40 134 -122 134c-85 0 -147 -69 -147 -168v-225h-192v408c0 13 -1 57 -4 94h186c0 -5 4 -59 4 -90h2c51 67 125 109 213 109c167 0 252 -88 252 -234z" />
    <glyph glyph-name="IJ" unicode="IJ" horiz-adv-x="1107" 
d="M80 722h210v-722h-210v722zM803 722h210v-450c0 -194 -95 -291 -322 -291c-209 0 -317 93 -317 255v16h210c4 -90 36 -123 109 -123c80 0 110 54 110 143v450z" />
    <glyph glyph-name="ij" unicode="ij" horiz-adv-x="729" 
d="M80 722h210v-140h-210v140zM89 502h192v-502h-192v502zM439 722h210v-140h-210v140zM448 502h192v-471c0 -157 -66 -223 -229 -223c-21 0 -65 2 -98 3v119c109 0 135 7 135 128v444z" />
    <glyph glyph-name="fi" unicode="fi" horiz-adv-x="889" 
d="M496 722v-114c-20 3 -35 4 -52 4c-88 0 -109 -29 -110 -110h151v-122h-154v-380h-192v380h-116v122h116c1 89 17 153 71 188c41 27 100 38 200 38c20 0 53 -2 86 -6zM599 722h210v-140h-210v140zM608 502h192v-502h-192v502z" />
    <glyph glyph-name="fl" unicode="fl" horiz-adv-x="889" 
d="M496 722v-114c-20 3 -35 4 -52 4c-88 0 -109 -29 -110 -110h151v-122h-154v-380h-192v380h-116v122h116c1 89 17 153 71 188c41 27 100 38 200 38c20 0 53 -2 86 -6zM608 722h192v-722h-192v722z" />
    <glyph glyph-name="f_f" unicode="ff" horiz-adv-x="988" 
d="M496 722v-114c-20 3 -35 4 -52 4c-85 0 -109 -26 -110 -110h274c2 176 64 226 270 226c20 0 54 -2 87 -6v-114c-20 3 -36 4 -52 4c-88 0 -109 -29 -110 -110h151v-122h-154v-380h-192v380h-277v-380h-192v380h-116v122h116c2 172 61 226 268 226c20 0 56 -2 89 -6z" />
    <glyph glyph-name="f_f_i" unicode="ffi" horiz-adv-x="1358" 
d="M496 722v-114c-20 3 -35 4 -52 4c-85 0 -109 -26 -110 -110h274c2 176 64 226 270 226c20 0 54 -2 87 -6v-114c-20 3 -36 4 -52 4c-88 0 -109 -29 -110 -110h151v-122h-154v-380h-192v380h-277v-380h-192v380h-116v122h116c2 172 61 226 268 226c20 0 56 -2 89 -6z
M1068 722h210v-140h-210v140zM1077 502h192v-502h-192v502z" />
    <glyph glyph-name="f_f_l" unicode="ffl" horiz-adv-x="1358" 
d="M496 722v-114c-20 3 -35 4 -52 4c-85 0 -109 -26 -110 -110h274c2 176 64 226 270 226c20 0 54 -2 87 -6v-114c-20 3 -36 4 -52 4c-88 0 -109 -29 -110 -110h151v-122h-154v-380h-192v380h-277v-380h-192v380h-116v122h116c2 172 61 226 268 226c20 0 56 -2 89 -6z
M1077 722h192v-722h-192v722z" />
    <glyph glyph-name=".notdef" horiz-adv-x="512" 
d="M0 718h512v-718h-512v718zM50 50h412v617h-412v-617zM383 478c0 -78 -50 -102 -91 -147c-13 -15 -20 -29 -20 -66v-32h-49v39c0 104 109 128 109 202c0 48 -35 85 -76 85s-74 -27 -82 -95l-50 8c9 96 64 137 135 137c72 0 124 -51 124 -131zM217 117v67h61v-67h-61z" />
    <glyph glyph-name=".null" horiz-adv-x="0" 
 />
    <glyph glyph-name="CR" unicode="&#xd;" 
 />
    <glyph glyph-name="space" unicode=" " 
 />
    <glyph glyph-name="exclam" unicode="!" horiz-adv-x="520" 
d="M149 722h222l-32 -509h-158zM167 154h186v-154h-186v154z" />
    <glyph glyph-name="quotedbl" unicode="&#x22;" horiz-adv-x="667" 
d="M180 722h122v-240h-122v240zM365 722h122v-240h-122v240z" />
    <glyph glyph-name="numbersign" unicode="#" horiz-adv-x="740" 
d="M262 698h122l-26 -187h69l26 187h122l-26 -187h72v-116h-88l-13 -92h72v-116h-88l-26 -187h-122l26 187h-69l-26 -187h-122l26 187h-72v116h88l13 92h-72v116h88zM342 395l-13 -92h69l13 92h-69z" />
    <glyph glyph-name="dollar" unicode="$" horiz-adv-x="740" 
d="M330 810h72v-69c199 -9 299 -64 305 -225h-204c-5 53 -35 80 -101 85v-152l86 -18c141 -30 234 -77 234 -212c0 -146 -107 -227 -320 -238v-78h-72v78c-212 7 -312 83 -312 248v5h210c3 -74 27 -106 102 -113v166c-97 17 -157 33 -203 59c-67 37 -94 93 -94 156
c0 140 105 228 297 239v69zM330 465v136c-60 -9 -87 -38 -87 -71c0 -30 27 -52 87 -65zM402 272v-151c69 4 110 30 110 76c0 37 -29 60 -110 75z" />
    <glyph glyph-name="percent" unicode="%" horiz-adv-x="1185" 
d="M808 722h116l-546 -746h-116zM508 527c0 -127 -72 -190 -211 -190s-211 63 -211 190c0 124 75 190 211 190c135 0 211 -66 211 -190zM297 417c49 0 77 40 77 109c0 71 -28 111 -77 111s-77 -40 -77 -110c0 -71 28 -110 77 -110zM1099 171c0 -126 -71 -190 -211 -190
s-211 64 -211 190c0 124 75 190 211 190s211 -67 211 -190zM888 61c49 0 77 40 77 109c0 71 -28 111 -77 111c-47 0 -77 -37 -77 -110c0 -71 29 -110 77 -110z" />
    <glyph glyph-name="ampersand" unicode="&#x26;" horiz-adv-x="1037" 
d="M681 564c0 -74 -48 -134 -144 -185l160 -120c38 37 71 117 75 185h186c-6 -123 -64 -245 -133 -290l194 -154h-278l-50 48c-71 -46 -155 -67 -305 -67c-90 0 -202 22 -267 82c-35 32 -62 78 -62 126c0 111 53 164 195 208c-60 45 -94 103 -94 164c0 108 103 180 273 180
c148 0 250 -74 250 -177zM422 456c61 29 89 58 89 95c0 40 -32 62 -87 62c-44 0 -74 -23 -74 -62c0 -32 23 -61 72 -95zM414 115c52 0 91 7 151 31l-197 158c-68 -23 -107 -58 -107 -101c0 -56 61 -88 153 -88z" />
    <glyph glyph-name="quotesingle" unicode="'" 
d="M124 722h122v-240h-122v240z" />
    <glyph glyph-name="parenleft" unicode="(" horiz-adv-x="444" 
d="M243 741h146c-43 -63 -79 -136 -106 -217s-40 -155 -40 -222s13 -140 40 -219c27 -78 61 -151 106 -220h-146c-111 159 -170 314 -170 439c0 128 50 263 170 439z" />
    <glyph glyph-name="parenright" unicode=")" horiz-adv-x="444" 
d="M55 741h146c111 -159 170 -313 170 -440c0 -129 -53 -267 -170 -438h-146c44 64 79 137 106 218s40 153 40 221c0 67 -13 139 -39 216c-27 79 -61 152 -107 223z" />
    <glyph glyph-name="asterisk" unicode="*" horiz-adv-x="519" 
d="M200 722h119l-32 -148l2 -2l105 100l59 -100l-137 -43v-2l137 -43l-59 -100l-105 100l-2 -2l32 -148h-119l32 148l-2 2l-105 -100l-59 100l137 43v2l-137 43l59 100l105 -100l2 2z" />
    <glyph glyph-name="plus" unicode="+" horiz-adv-x="600" 
d="M233 506h134v-186h186v-134h-186v-186h-134v186h-186v134h186v186z" />
    <glyph glyph-name="comma" unicode="," 
d="M111 154h204l-135 -275h-154z" />
    <glyph glyph-name="hyphen" unicode="-" horiz-adv-x="444" 
d="M66 331h312v-128h-312v128z" />
    <glyph glyph-name="period" unicode="." 
d="M92 154h186v-154h-186v154z" />
    <glyph glyph-name="slash" unicode="/" horiz-adv-x="444" 
d="M291 741h146l-284 -760h-146z" />
    <glyph glyph-name="zero" unicode="0" horiz-adv-x="740" 
d="M700 349c0 -195 -90 -368 -330 -368c-224 0 -330 154 -330 368c0 203 96 368 330 368c208 0 330 -135 330 -368zM370 109c85 0 126 75 126 240c0 164 -40 240 -127 240c-82 0 -125 -72 -125 -240s43 -240 126 -240z" />
    <glyph glyph-name="one" unicode="1" horiz-adv-x="740" 
d="M363 698h164v-698h-198v510c-66 -42 -100 -58 -199 -89v167c63 18 142 55 233 110z" />
    <glyph glyph-name="two" unicode="2" horiz-adv-x="740" 
d="M680 495c0 -128 -134 -252 -372 -353v-2h375v-140h-626v148c18 12 93 55 219 131c140 85 200 153 200 216c0 53 -40 88 -98 88c-67 0 -103 -33 -107 -101h-198c0 153 101 235 296 235c197 0 311 -85 311 -222z" />
    <glyph glyph-name="three" unicode="3" horiz-adv-x="740" 
d="M670 522c0 -86 -48 -137 -169 -162v-2c115 -8 184 -74 184 -169c0 -135 -118 -208 -319 -208c-229 0 -321 76 -323 224h204c0 -61 40 -96 115 -96c73 0 119 34 119 93c0 61 -43 92 -124 92h-48v128h48c57 0 109 27 109 84c0 54 -41 83 -106 83c-51 0 -92 -31 -96 -75
h-198c6 134 109 203 296 203c198 0 308 -78 308 -195z" />
    <glyph glyph-name="four" unicode="4" horiz-adv-x="740" 
d="M361 698h228v-425h126v-128h-126v-145h-186v145h-378v166zM403 570h-2l-230 -295v-2h232v297z" />
    <glyph glyph-name="five" unicode="5" horiz-adv-x="740" 
d="M95 698h533v-140h-362l-11 -165c43 42 101 69 177 69c139 0 253 -85 253 -237c0 -158 -125 -244 -320 -244c-213 0 -310 70 -310 210h198c5 -50 44 -82 103 -82c83 0 131 46 131 109c0 71 -47 116 -119 116c-51 0 -87 -20 -104 -63h-192z" />
    <glyph glyph-name="six" unicode="6" horiz-adv-x="740" 
d="M671 522h-198c-9 47 -43 67 -96 67c-89 0 -137 -59 -137 -182c49 37 115 59 186 59c145 0 266 -86 266 -243c0 -159 -146 -242 -314 -242c-258 0 -330 155 -330 361c0 254 111 375 331 375c184 0 279 -56 292 -195zM370 115c73 0 118 38 118 104c0 70 -46 113 -119 113
c-65 0 -117 -38 -117 -107c0 -67 45 -110 118 -110z" />
    <glyph glyph-name="seven" unicode="7" horiz-adv-x="740" 
d="M57 698h610v-154l-310 -544h-233l345 550h-412v148z" />
    <glyph glyph-name="eight" unicode="8" horiz-adv-x="740" 
d="M681 521c0 -83 -60 -145 -162 -159v-2c129 -23 181 -79 181 -175c0 -135 -121 -204 -330 -204c-207 0 -330 68 -330 204c0 97 54 152 181 175v2c-101 14 -162 75 -162 159c0 132 123 196 311 196c189 0 311 -66 311 -196zM370 421c72 0 113 30 113 84
c0 53 -40 84 -114 84c-72 0 -112 -31 -112 -84s40 -84 113 -84zM370 109c80 0 132 33 132 95s-52 95 -133 95c-79 0 -131 -34 -131 -95c0 -62 52 -95 132 -95z" />
    <glyph glyph-name="nine" unicode="9" horiz-adv-x="740" 
d="M692 359c0 -256 -110 -378 -330 -378c-184 0 -291 69 -295 204h204c3 -44 26 -70 99 -70c71 0 115 40 124 131l6 59c-56 -40 -125 -53 -193 -53c-141 0 -259 90 -259 221c0 156 136 244 306 244c128 0 222 -34 277 -110c42 -57 61 -137 61 -248zM367 386
c72 0 116 40 116 97c0 63 -44 100 -121 100c-65 0 -110 -36 -110 -102c0 -60 43 -95 115 -95z" />
    <glyph glyph-name="colon" unicode=":" 
d="M92 502h186v-154h-186v154zM92 154h186v-154h-186v154z" />
    <glyph glyph-name="semicolon" unicode=";" 
d="M92 502h186v-154h-186v154zM111 154h204l-135 -275h-154z" />
    <glyph glyph-name="less" unicode="&#x3c;" horiz-adv-x="600" 
d="M553 514v-134l-336 -127l336 -127v-134l-506 197v128z" />
    <glyph glyph-name="equal" unicode="=" horiz-adv-x="600" 
d="M47 442h506v-134h-506v134zM47 198h506v-134h-506v134z" />
    <glyph glyph-name="greater" unicode="&#x3e;" horiz-adv-x="600" 
d="M47 380v134l506 -197v-128l-506 -197v134l336 127z" />
    <glyph glyph-name="question" unicode="?" horiz-adv-x="741" 
d="M682 542c0 -82 -65 -144 -126 -180l-62 -36c-44 -26 -60 -54 -62 -113h-180l3 43c5 72 16 91 66 128c19 14 40 29 70 49c39 26 87 62 87 99c0 47 -60 75 -155 75c-63 0 -146 -14 -184 -30v140c72 15 151 24 215 24c208 0 328 -70 328 -199zM249 154h186v-154h-186v154z
" />
    <glyph glyph-name="at" unicode="@" horiz-adv-x="800" 
d="M780 437c0 -68 -19 -125 -49 -170c-56 -86 -166 -131 -216 -131c-32 0 -56 16 -58 52h-2c-19 -30 -51 -52 -103 -52c-100 0 -172 81 -172 185c0 136 92 241 215 241c51 0 93 -17 124 -60l10 42h96l-42 -227c-2 -13 -9 -43 -9 -54c0 -8 3 -17 14 -17c38 0 88 54 88 160
c0 145 -100 231 -260 231c-164 0 -286 -118 -286 -277c0 -165 123 -275 283 -275c87 0 151 17 206 58h116c-72 -107 -178 -162 -322 -162c-127 0 -232 49 -304 131c-55 63 -89 152 -89 241c0 127 40 218 112 286c69 65 173 102 287 102c218 0 361 -126 361 -304zM386 264
c52 0 96 45 96 97c0 41 -26 73 -73 73c-55 0 -95 -44 -95 -97c0 -47 28 -73 72 -73z" />
    <glyph glyph-name="A" unicode="A" horiz-adv-x="1037" 
d="M397 722h251l375 -722h-235l-68 143h-420l-70 -143h-216zM513 582l-148 -305h291z" />
    <glyph glyph-name="B" unicode="B" horiz-adv-x="889" 
d="M100 722h431c160 0 263 -69 263 -178c0 -80 -56 -144 -153 -169v-2c112 -10 184 -79 184 -171c0 -127 -111 -202 -293 -202h-432v722zM304 427h136c80 0 138 23 138 81c0 57 -42 80 -121 80h-153v-161zM304 134h192c73 0 113 26 113 82s-50 83 -106 83h-199v-165z" />
    <glyph glyph-name="C" unicode="C" horiz-adv-x="889" 
d="M844 486v-1h-216c-10 71 -63 108 -156 108c-128 0 -203 -85 -203 -228c0 -148 70 -236 197 -236c97 0 155 41 160 116h222c-9 -180 -130 -264 -402 -264c-242 0 -393 132 -393 379c0 251 145 381 426 381c213 0 363 -84 365 -255z" />
    <glyph glyph-name="D" unicode="D" horiz-adv-x="963" 
d="M100 722h408c143 0 226 -32 291 -89c72 -64 111 -160 111 -265c0 -106 -33 -191 -84 -250c-72 -84 -191 -118 -337 -118h-389v722zM310 140h112c192 0 272 58 272 224c0 153 -79 218 -250 218h-134v-442z" />
    <glyph glyph-name="E" unicode="E" horiz-adv-x="815" 
d="M100 722h620v-148h-410v-134h388v-148h-388v-144h419v-148h-629v722z" />
    <glyph glyph-name="F" unicode="F" horiz-adv-x="741" 
d="M94 722h585v-154h-375v-150h354v-148h-354v-270h-210v722z" />
    <glyph glyph-name="G" unicode="G" horiz-adv-x="963" 
d="M876 493h-216c-3 72 -62 108 -162 108c-149 0 -229 -84 -229 -235c0 -159 88 -245 256 -245c51 0 106 9 149 18v124h-191v134h383v-382c-111 -17 -234 -34 -353 -34c-297 0 -460 124 -460 366c0 256 156 394 444 394c228 0 374 -85 379 -248z" />
    <glyph glyph-name="H" unicode="H" horiz-adv-x="963" 
d="M94 722h210v-287h355v287h210v-722h-210v287h-355v-287h-210v722z" />
    <glyph glyph-name="I" unicode="I" 
d="M80 722h210v-722h-210v722z" />
    <glyph glyph-name="J" unicode="J" horiz-adv-x="741" 
d="M437 722h210v-450c0 -194 -95 -291 -322 -291c-209 0 -317 93 -317 255v16h210c4 -90 36 -123 109 -123c80 0 110 54 110 143v450z" />
    <glyph glyph-name="K" unicode="K" horiz-adv-x="889" 
d="M100 722h210v-319l292 319h253l-316 -324l339 -398h-272l-294 372h-2v-372h-210v722z" />
    <glyph glyph-name="L" unicode="L" horiz-adv-x="741" 
d="M100 722h210v-574h408v-148h-618v722z" />
    <glyph glyph-name="M" unicode="M" horiz-adv-x="1259" 
d="M92 722h324l213 -536l225 536h313v-722h-198v588h-2l-239 -588h-216l-240 588h-2v-588h-178v722z" />
    <glyph glyph-name="N" unicode="N" horiz-adv-x="963" 
d="M85 722h276l329 -520h2v520h186v-722h-278l-327 520h-2v-520h-186v722z" />
    <glyph glyph-name="O" unicode="O" horiz-adv-x="964" 
d="M911 361c0 -240 -150 -380 -429 -380s-429 140 -429 380c0 243 154 380 429 380c276 0 429 -138 429 -380zM482 129c140 0 213 81 213 232s-72 232 -215 232c-136 0 -211 -80 -211 -232c0 -151 73 -232 213 -232z" />
    <glyph glyph-name="P" unicode="P" horiz-adv-x="815" 
d="M94 722h405c169 0 282 -80 282 -237s-108 -229 -303 -229h-174v-256h-210v722zM304 396h133c87 0 128 28 128 92s-45 94 -113 94h-148v-186z" />
    <glyph glyph-name="Q" unicode="Q" horiz-adv-x="963" 
d="M911 390c0 -121 -52 -221 -142 -280l2 -2c61 27 106 32 151 32h35v-140h-168c-122 0 -253 -19 -308 -19c-277 0 -428 140 -428 380c0 241 153 380 429 380c288 0 429 -166 429 -351zM482 129c140 0 213 81 213 232c0 148 -70 232 -215 232c-136 0 -211 -80 -211 -232
c0 -151 73 -232 213 -232z" />
    <glyph glyph-name="R" unicode="R" horiz-adv-x="889" 
d="M100 722h442c176 0 272 -66 272 -189c0 -87 -67 -154 -183 -175v-2c86 -7 129 -26 150 -81c12 -32 24 -96 35 -166c8 -50 20 -96 26 -109h-223c-8 22 -15 63 -21 117c-6 50 -10 98 -27 122c-20 28 -62 35 -128 35h-133v-274h-210v722zM310 414h170c81 0 124 23 124 85
c0 60 -38 83 -149 83h-145v-168z" />
    <glyph glyph-name="S" unicode="S" horiz-adv-x="815" 
d="M400 741c228 0 339 -58 345 -225h-204c-6 57 -37 85 -129 85c-83 0 -132 -26 -132 -71c0 -33 33 -52 81 -64c62 -15 121 -26 182 -39c148 -31 217 -93 217 -208c0 -156 -124 -238 -365 -238c-229 0 -340 75 -340 248v5h210c3 -79 26 -113 142 -113c95 0 143 26 143 76
c0 39 -32 60 -113 76l-133 26c-167 33 -234 100 -234 203c0 157 132 239 330 239z" />
    <glyph glyph-name="T" unicode="T" horiz-adv-x="816" 
d="M25 722h766v-148h-278v-574h-210v574h-278v148z" />
    <glyph glyph-name="U" unicode="U" horiz-adv-x="963" 
d="M91 722h210v-408c0 -117 57 -185 181 -185c123 0 180 70 180 210v383h210v-394c0 -227 -116 -347 -390 -347c-276 0 -391 112 -391 319v422z" />
    <glyph glyph-name="V" unicode="V" horiz-adv-x="889" 
d="M14 722h228l210 -588l219 588h204l-304 -722h-252z" />
    <glyph glyph-name="W" unicode="W" horiz-adv-x="1259" 
d="M14 722h220l119 -574h2l164 574h253l144 -574h2l128 572l1 2h198l-210 -722h-254l-147 568h-2l-156 -568h-258z" />
    <glyph glyph-name="X" unicode="X" horiz-adv-x="963" 
d="M37 722h277l182 -230l178 230h250l-310 -346l335 -376h-284l-197 252l-196 -252h-258l333 376z" />
    <glyph glyph-name="Y" unicode="Y" horiz-adv-x="888" 
d="M14 722h258l185 -308l183 308h234l-325 -465v-257h-210v257z" />
    <glyph glyph-name="Z" unicode="Z" horiz-adv-x="815" 
d="M81 722h672v-192l-446 -382h457v-148h-713v186l451 388h-421v148z" />
    <glyph glyph-name="bracketleft" unicode="[" horiz-adv-x="444" 
d="M93 741h282v-116h-130v-646h130v-116h-282v878z" />
    <glyph glyph-name="backslash" unicode="\" horiz-adv-x="444" 
d="M7 741h146l284 -760h-146z" />
    <glyph glyph-name="bracketright" unicode="]" horiz-adv-x="444" 
d="M69 741h282v-878h-282v116h130v646h-130v116z" />
    <glyph glyph-name="asciicircum" unicode="^" horiz-adv-x="600" 
d="M239 698h122l174 -365h-134l-101 225l-101 -225h-134z" />
    <glyph glyph-name="underscore" unicode="_" horiz-adv-x="500" 
d="M0 -75h500v-50h-500v50z" />
    <glyph glyph-name="grave" unicode="`" 
d="M-28 722h210l112 -140h-158z" />
    <glyph glyph-name="a" unicode="a" horiz-adv-x="741" 
d="M664 306v-204c0 -16 1 -62 4 -102h-186c-3 30 -4 67 -4 81h-2c-38 -63 -110 -100 -218 -100c-144 0 -226 60 -226 163c0 113 103 173 295 173h145c0 69 -25 100 -113 100c-60 0 -92 -19 -94 -63h-198c8 109 115 167 290 167c214 0 307 -61 307 -215zM319 91
c97 0 152 48 153 128h-81c-100 0 -155 -19 -155 -76c0 -31 28 -52 83 -52z" />
    <glyph glyph-name="b" unicode="b" horiz-adv-x="815" 
d="M81 722h192v-286c56 57 126 85 214 85c169 0 284 -102 284 -267s-113 -273 -279 -273c-95 0 -164 27 -225 102c0 -37 -2 -61 -4 -83h-186c3 27 4 62 4 75v647zM422 97c89 0 145 64 145 157c0 89 -61 151 -146 151c-87 0 -148 -62 -148 -158c0 -87 60 -150 149 -150z" />
    <glyph glyph-name="c" unicode="c" horiz-adv-x="741" 
d="M691 324h-198c-11 63 -50 87 -111 87c-81 0 -134 -61 -134 -159c0 -99 49 -161 134 -161c65 0 108 33 111 97h204c-15 -136 -135 -207 -327 -207c-168 0 -326 80 -326 268c0 180 134 272 338 272c180 0 294 -68 309 -197z" />
    <glyph glyph-name="d" unicode="d" horiz-adv-x="815" 
d="M542 722h192v-647c0 -13 0 -46 4 -75h-186c-2 22 -4 46 -4 83c-63 -75 -128 -102 -224 -102c-165 0 -280 106 -280 273c0 165 115 267 284 267c88 0 157 -27 214 -85v286zM393 97c87 0 149 61 149 150c0 95 -60 158 -149 158c-80 0 -145 -58 -145 -151s56 -157 145 -157z
" />
    <glyph glyph-name="e" unicode="e" horiz-adv-x="741" 
d="M368 521c220 0 328 -97 329 -317h-455c4 -79 50 -119 132 -119c59 0 95 16 108 68h204c-13 -47 -32 -86 -68 -115c-47 -37 -109 -57 -246 -57c-213 0 -328 91 -328 262c0 177 128 278 324 278zM245 308h248c-1 69 -41 109 -125 109c-68 0 -111 -34 -123 -109z" />
    <glyph glyph-name="f" unicode="f" horiz-adv-x="519" 
d="M496 722v-114c-20 3 -35 4 -52 4c-88 0 -109 -29 -110 -110h151v-122h-154v-380h-192v380h-116v122h116c1 89 17 153 71 188c41 27 100 38 200 38c20 0 53 -2 86 -6z" />
    <glyph glyph-name="g" unicode="g" horiz-adv-x="815" 
d="M320 521c101 0 177 -36 226 -99h2c0 41 1 60 4 80h186c-3 -31 -4 -61 -4 -74v-354c0 -225 -138 -285 -361 -285c-106 0 -195 14 -246 51c-38 28 -57 64 -62 127h204c9 -48 40 -68 113 -68c119 0 160 49 160 171v39h-2c-39 -64 -127 -102 -224 -102
c-155 0 -273 107 -273 257c0 158 112 257 277 257zM247 264c0 -81 58 -135 145 -135c92 0 150 52 150 135c0 80 -61 135 -153 135c-85 0 -142 -50 -142 -135z" />
    <glyph glyph-name="h" unicode="h" horiz-adv-x="815" 
d="M81 722h192v-306c64 75 121 105 212 105c164 0 249 -87 249 -235v-286h-192v259c0 83 -40 134 -122 134c-85 0 -147 -69 -147 -169v-224h-192v722z" />
    <glyph glyph-name="i" unicode="i" 
d="M80 722h210v-140h-210v140zM89 502h192v-502h-192v502z" />
    <glyph glyph-name="j" unicode="j" 
d="M80 722h210v-140h-210v140zM89 502h192v-471c0 -157 -66 -223 -229 -223c-21 0 -65 2 -98 3v119c109 0 135 7 135 128v444z" />
    <glyph glyph-name="k" unicode="k" horiz-adv-x="815" 
d="M89 722h192v-434l240 214h241l-247 -215l279 -287h-265l-248 273v-273h-192v722z" />
    <glyph glyph-name="l" unicode="l" 
d="M89 722h192v-722h-192v722z" />
    <glyph glyph-name="m" unicode="m" horiz-adv-x="1186" 
d="M656 408c49 77 121 113 212 113c155 0 237 -81 237 -234v-287h-192v266c0 76 -33 127 -107 127c-66 0 -117 -55 -117 -124v-269h-192v261c0 89 -30 132 -104 132c-70 0 -120 -66 -120 -150v-243h-192v408c0 13 0 57 -4 94h186c1 -17 4 -57 4 -90h2c48 71 112 109 207 109
c81 0 147 -38 180 -113z" />
    <glyph glyph-name="n" unicode="n" horiz-adv-x="815" 
d="M734 287v-287h-192v259c0 83 -40 134 -122 134c-85 0 -147 -69 -147 -168v-225h-192v408c0 13 -1 57 -4 94h186c0 -5 4 -59 4 -90h2c51 67 125 109 213 109c167 0 252 -88 252 -234z" />
    <glyph glyph-name="o" unicode="o" horiz-adv-x="816" 
d="M772 251c0 -137 -101 -270 -364 -270c-255 0 -364 126 -364 270c0 73 30 142 86 189c62 52 155 81 278 81s209 -28 270 -75c62 -48 94 -119 94 -195zM408 91c95 0 160 62 160 160s-64 160 -161 160c-92 0 -159 -61 -159 -160c0 -98 65 -160 160 -160z" />
    <glyph glyph-name="p" unicode="p" horiz-adv-x="815" 
d="M771 248c0 -164 -114 -267 -284 -267c-85 0 -157 26 -214 85v-258h-192v620c0 12 -1 42 -4 74h186c3 -27 4 -46 4 -83c61 74 128 102 225 102c163 0 279 -105 279 -273zM422 97c84 0 145 62 145 151s-52 157 -146 157c-87 0 -148 -62 -148 -150c0 -95 60 -158 149 -158z
" />
    <glyph glyph-name="q" unicode="q" horiz-adv-x="815" 
d="M548 419c0 37 1 56 4 83h186c-4 -31 -4 -62 -4 -74v-620h-192v258c-57 -58 -126 -85 -214 -85c-171 0 -284 104 -284 267c0 170 117 273 280 273c96 0 165 -29 224 -102zM393 97c88 0 149 62 149 158c0 89 -62 150 -150 150c-87 0 -144 -63 -144 -157
c0 -90 62 -151 145 -151z" />
    <glyph glyph-name="r" unicode="r" horiz-adv-x="519" 
d="M494 509v-164c-20 3 -32 4 -49 4c-109 0 -172 -62 -172 -157v-192h-192v408c0 13 -1 57 -4 94h186c3 -33 4 -61 4 -108h2c43 89 94 115 213 115h12z" />
    <glyph glyph-name="s" unicode="s" horiz-adv-x="667" 
d="M332 521c189 0 277 -45 281 -168h-192c-5 33 -12 64 -92 64c-40 0 -73 -17 -73 -44c0 -25 24 -41 71 -49l136 -22c120 -19 162 -66 162 -152c0 -111 -102 -169 -306 -169c-191 0 -270 57 -277 176h198c1 -48 24 -72 87 -72c67 0 100 19 100 55c0 27 -25 42 -73 51
c-82 15 -163 22 -206 39c-56 22 -90 62 -90 123c0 109 97 168 274 168z" />
    <glyph glyph-name="t" unicode="t" horiz-adv-x="519" 
d="M331 674v-172h162v-122h-162v-162c0 -81 22 -102 87 -102c17 0 43 2 75 6v-122c-52 -9 -92 -12 -129 -12c-152 0 -225 62 -225 176v216h-123v122h123v102z" />
    <glyph glyph-name="u" unicode="u" horiz-adv-x="815" 
d="M81 502h192v-260c0 -83 41 -133 122 -133c87 0 147 72 147 168v225h192v-408c0 -15 1 -57 4 -94h-186c-1 5 -4 64 -4 90h-2c-50 -67 -125 -109 -213 -109c-167 0 -252 88 -252 233v288z" />
    <glyph glyph-name="v" unicode="v" horiz-adv-x="741" 
d="M15 502h216l153 -392l156 392h186l-237 -502h-237z" />
    <glyph glyph-name="w" unicode="w" horiz-adv-x="1185" 
d="M15 502h216l119 -374h2l132 374h237l134 -374h2l129 374h184l-212 -502h-225l-140 386h-2l-139 -386h-225z" />
    <glyph glyph-name="x" unicode="x" horiz-adv-x="741" 
d="M43 502h248l91 -143l102 143h222l-200 -237l220 -265h-248l-119 176l-128 -176h-216l225 265z" />
    <glyph glyph-name="y" unicode="y" horiz-adv-x="741" 
d="M15 502h224l144 -345l154 345h189l-358 -694h-204l109 192z" />
    <glyph glyph-name="z" unicode="z" horiz-adv-x="667" 
d="M77 502h513v-134l-315 -250v-2h340v-116h-563v148l302 236v2h-277v116z" />
    <glyph glyph-name="braceleft" unicode="{" horiz-adv-x="444" 
d="M271 741h107v-116h-35c-47 0 -58 -22 -58 -58v-171c0 -49 -41 -87 -110 -93v-2c68 -7 110 -41 110 -96v-168c0 -36 12 -58 57 -58h36v-116h-108c-80 0 -137 51 -137 128v187c0 43 -36 66 -92 66v116c57 0 92 25 92 64v189c0 78 58 128 138 128z" />
    <glyph glyph-name="bar" unicode="|" horiz-adv-x="222" 
d="M44 741h134v-760h-134v760z" />
    <glyph glyph-name="braceright" unicode="}" horiz-adv-x="444" 
d="M66 741h107c80 0 138 -51 138 -126v-191c0 -39 35 -64 92 -64v-116c-57 0 -92 -25 -92 -64v-188c0 -80 -58 -129 -138 -129h-107v116h37c40 0 56 17 56 61v168c0 50 42 86 110 93v2c-68 7 -110 42 -110 93v168c0 45 -16 61 -57 61h-36v116z" />
    <glyph glyph-name="asciitilde" unicode="~" horiz-adv-x="600" 
d="M495 357l36 -118c-45 -67 -80 -88 -125 -88c-33 0 -61 13 -89 28c-38 21 -75 42 -128 42c-36 0 -62 -24 -84 -72l-36 118c32 61 73 88 125 88c36 0 78 -19 142 -48c31 -14 55 -22 71 -22c29 0 53 17 88 72z" />
    <glyph glyph-name="uni00A0" unicode="&#xa0;" 
 />
    <glyph glyph-name="Agrave" unicode="&#xc0;" horiz-adv-x="1037" 
d="M397 722h251l375 -722h-235l-68 143h-420l-70 -143h-216zM513 582l-148 -305h291zM306 913h210l112 -140h-158z" />
    <glyph glyph-name="Aacute" unicode="&#xc1;" horiz-adv-x="1037" 
d="M397 722h251l375 -722h-235l-68 143h-420l-70 -143h-216zM513 582l-148 -305h291zM522 913h210l-164 -140h-158z" />
    <glyph glyph-name="Acircumflex" unicode="&#xc2;" horiz-adv-x="1037" 
d="M397 722h251l375 -722h-235l-68 143h-420l-70 -143h-216zM513 582l-148 -305h291zM415 913h207l130 -140h-158l-75 78l-75 -78h-158z" />
    <glyph glyph-name="Atilde" unicode="&#xc3;" horiz-adv-x="1037" 
d="M397 722h251l375 -722h-235l-68 143h-420l-70 -143h-216zM513 582l-148 -305h291zM562 885c24 -6 42 -9 53 -9c27 0 39 8 54 37h80c-4 -93 -47 -140 -127 -140c-32 0 -87 13 -134 25c-21 5 -46 12 -66 12c-25 0 -36 -6 -53 -37h-80c4 93 47 140 127 140
c35 0 98 -16 146 -28z" />
    <glyph glyph-name="Adieresis" unicode="&#xc4;" horiz-adv-x="1037" 
d="M397 722h251l375 -722h-235l-68 143h-420l-70 -143h-216zM513 582l-148 -305h291zM307 913h158v-140h-158v140zM573 913h158v-140h-158v140z" />
    <glyph glyph-name="Amacron" unicode="&#x100;" horiz-adv-x="1037" 
d="M397 722h251l375 -722h-235l-68 143h-420l-70 -143h-216zM513 582l-148 -305h291zM301 892h428v-98h-428v98z" />
    <glyph glyph-name="Abreve" unicode="&#x102;" horiz-adv-x="1037" 
d="M397 722h251l375 -722h-235l-68 143h-420l-70 -143h-216zM513 582l-148 -305h291zM316 913h86c17 -39 42 -62 113 -62s96 23 113 62h86c-19 -106 -86 -148 -200 -148c-113 0 -180 44 -198 148z" />
    <glyph glyph-name="Aring" unicode="&#xc5;" horiz-adv-x="1037" 
d="M397 722h251l375 -722h-235l-68 143h-420l-70 -143h-216zM513 582l-148 -305h291zM661 834c0 -71 -43 -105 -142 -105s-142 34 -142 105c0 68 49 105 142 105s142 -37 142 -105zM519 779c33 0 56 24 56 55s-24 55 -56 55c-33 0 -56 -24 -56 -55s24 -55 56 -55z" />
    <glyph glyph-name="Aringacute" unicode="&#x1fa;" horiz-adv-x="1037" 
d="M545 939h191l-150 -90h-144zM661 720c0 -13 -2 -31 -5 -42l367 -678h-235l-68 143h-420l-70 -143h-216l370 670c-5 13 -7 34 -7 50c0 68 49 105 142 105s142 -37 142 -105zM519 665c32 0 56 24 56 55c0 32 -23 55 -56 55s-56 -23 -56 -55c0 -31 23 -55 56 -55zM513 582
l-148 -305h291z" />
    <glyph glyph-name="Aogonek" unicode="&#x104;" horiz-adv-x="1037" 
d="M397 722h251l375 -722h-71c-73 -43 -110 -79 -110 -114c0 -24 19 -41 53 -41c17 0 39 3 60 10l17 -49c-37 -11 -88 -17 -121 -17c-89 0 -131 26 -131 77s51 101 135 134h-67l-68 143h-420l-70 -143h-216zM513 582l-148 -305h291z" />
    <glyph glyph-name="AE" unicode="&#xc6;" horiz-adv-x="1333" 
d="M486 722h745v-148h-442l38 -134h380v-148h-337l38 -144h339v-148h-511l-38 148h-367l-88 -148h-229zM588 594l-165 -306h236z" />
    <glyph glyph-name="AEacute" unicode="&#x1fc;" horiz-adv-x="1333" 
d="M486 722h745v-148h-442l38 -134h380v-148h-337l38 -144h339v-148h-511l-38 148h-367l-88 -148h-229zM588 594l-165 -306h236zM710 913h210l-164 -140h-158z" />
    <glyph glyph-name="Cacute" unicode="&#x106;" horiz-adv-x="889" 
d="M844 486v-1h-216c-10 71 -63 108 -156 108c-128 0 -203 -85 -203 -228c0 -148 70 -236 197 -236c97 0 155 41 160 116h222c-9 -180 -130 -264 -402 -264c-242 0 -393 132 -393 379c0 251 145 381 426 381c213 0 363 -84 365 -255zM452 913h210l-164 -140h-158z" />
    <glyph glyph-name="Ccircumflex" unicode="&#x108;" horiz-adv-x="889" 
d="M844 486v-1h-216c-10 71 -63 108 -156 108c-128 0 -203 -85 -203 -228c0 -148 70 -236 197 -236c97 0 155 41 160 116h222c-9 -180 -130 -264 -402 -264c-242 0 -393 132 -393 379c0 251 145 381 426 381c213 0 363 -84 365 -255zM371 913h207l130 -140h-158l-75 78
l-75 -78h-158z" />
    <glyph glyph-name="Ccaron" unicode="&#x10c;" horiz-adv-x="889" 
d="M844 486v-1h-216c-10 71 -63 108 -156 108c-128 0 -203 -85 -203 -228c0 -148 70 -236 197 -236c97 0 155 41 160 116h222c-9 -180 -130 -264 -402 -264c-242 0 -393 132 -393 379c0 251 145 381 426 381c213 0 363 -84 365 -255zM242 913h158l75 -78l75 78h158
l-129 -140h-207z" />
    <glyph glyph-name="Cdotaccent" unicode="&#x10a;" horiz-adv-x="889" 
d="M844 486v-1h-216c-10 71 -63 108 -156 108c-128 0 -203 -85 -203 -228c0 -148 70 -236 197 -236c97 0 155 41 160 116h222c-9 -180 -130 -264 -402 -264c-242 0 -393 132 -393 379c0 251 145 381 426 381c213 0 363 -84 365 -255zM396 913h158v-140h-158v140z" />
    <glyph glyph-name="Ccedilla" unicode="&#xc7;" horiz-adv-x="889" 
d="M844 485h-216c-9 70 -63 108 -156 108c-128 0 -203 -86 -203 -228c0 -148 70 -236 197 -236c97 0 155 41 160 116h222c-6 -161 -110 -254 -351 -263l-39 -37l2 -2c12 4 29 7 44 7c57 0 107 -33 107 -79c0 -56 -60 -82 -157 -82c-37 0 -88 6 -129 19l22 53
c32 -10 63 -16 94 -16c29 0 48 10 48 31c0 19 -22 30 -51 30c-15 0 -30 -2 -43 -6l-24 29l53 52c-237 9 -371 147 -371 379c0 251 145 381 426 381c219 0 364 -88 365 -256z" />
    <glyph glyph-name="Dcaron" unicode="&#x10e;" horiz-adv-x="963" 
d="M100 722h408c143 0 226 -32 291 -89c72 -64 111 -160 111 -265c0 -106 -33 -191 -84 -250c-72 -84 -191 -118 -337 -118h-389v722zM310 140h112c192 0 272 58 272 224c0 153 -79 218 -250 218h-134v-442zM211 913h158l75 -78l75 78h158l-129 -140h-207z" />
    <glyph glyph-name="Dcroat" unicode="&#x110;" horiz-adv-x="963" 
d="M100 722h411c142 0 231 -34 296 -97c67 -64 103 -155 103 -257s-30 -181 -78 -243c-65 -84 -188 -125 -338 -125h-394v299h-82v128h82v295zM310 427h174v-128h-174v-159h106c102 0 171 14 215 50s63 98 63 174c0 152 -79 218 -250 218h-134v-155z" />
    <glyph glyph-name="Eth" unicode="&#xd0;" horiz-adv-x="963" 
d="M100 722h411c142 0 231 -34 296 -97c67 -64 103 -155 103 -257s-30 -181 -78 -243c-65 -84 -188 -125 -338 -125h-394v299h-82v128h82v295zM310 427h174v-128h-174v-159h106c102 0 171 14 215 50s63 98 63 174c0 152 -79 218 -250 218h-134v-155z" />
    <glyph glyph-name="Egrave" unicode="&#xc8;" horiz-adv-x="815" 
d="M100 722h620v-148h-410v-134h388v-148h-388v-144h419v-148h-629v722zM201 913h210l112 -140h-158z" />
    <glyph glyph-name="Eacute" unicode="&#xc9;" horiz-adv-x="815" 
d="M100 722h620v-148h-410v-134h388v-148h-388v-144h419v-148h-629v722zM417 913h210l-164 -140h-158z" />
    <glyph glyph-name="Ecircumflex" unicode="&#xca;" horiz-adv-x="815" 
d="M100 722h620v-148h-410v-134h388v-148h-388v-144h419v-148h-629v722zM310 913h207l130 -140h-158l-75 78l-75 -78h-158z" />
    <glyph glyph-name="Ecaron" unicode="&#x11a;" horiz-adv-x="815" 
d="M100 722h620v-148h-410v-134h388v-148h-388v-144h419v-148h-629v722zM184 913h158l75 -78l75 78h158l-129 -140h-207z" />
    <glyph glyph-name="Edieresis" unicode="&#xcb;" horiz-adv-x="815" 
d="M100 722h620v-148h-410v-134h388v-148h-388v-144h419v-148h-629v722zM202 913h158v-140h-158v140zM468 913h158v-140h-158v140z" />
    <glyph glyph-name="Emacron" unicode="&#x112;" horiz-adv-x="815" 
d="M100 722h620v-148h-410v-134h388v-148h-388v-144h419v-148h-629v722zM203 892h428v-98h-428v98z" />
    <glyph glyph-name="Ebreve" unicode="&#x114;" horiz-adv-x="815" 
d="M100 722h620v-148h-410v-134h388v-148h-388v-144h419v-148h-629v722zM218 913h86c17 -39 42 -62 113 -62s96 23 113 62h86c-19 -106 -86 -148 -200 -148c-113 0 -180 44 -198 148z" />
    <glyph glyph-name="Edotaccent" unicode="&#x116;" horiz-adv-x="815" 
d="M100 722h620v-148h-410v-134h388v-148h-388v-144h419v-148h-629v722zM338 913h158v-140h-158v140z" />
    <glyph glyph-name="Eogonek" unicode="&#x118;" horiz-adv-x="815" 
d="M100 722h620v-148h-410v-134h388v-148h-388v-144h419v-148h-72c-73 -43 -110 -79 -110 -114c0 -24 19 -41 53 -41c17 0 40 3 60 10l17 -49c-37 -11 -86 -17 -121 -17c-91 0 -131 28 -131 77c0 51 51 101 135 134h-460v722z" />
    <glyph glyph-name="Gcircumflex" unicode="&#x11c;" horiz-adv-x="963" 
d="M876 493h-216c-3 72 -62 108 -162 108c-149 0 -229 -84 -229 -235c0 -159 88 -245 256 -245c51 0 106 9 149 18v124h-191v134h383v-382c-111 -17 -234 -34 -353 -34c-297 0 -460 124 -460 366c0 256 156 394 444 394c228 0 374 -85 379 -248zM391 913h207l130 -140h-158
l-75 78l-75 -78h-158z" />
    <glyph glyph-name="Gbreve" unicode="&#x11e;" horiz-adv-x="963" 
d="M876 493h-216c-3 72 -62 108 -162 108c-149 0 -229 -84 -229 -235c0 -159 88 -245 256 -245c51 0 106 9 149 18v124h-191v134h383v-382c-111 -17 -234 -34 -353 -34c-297 0 -460 124 -460 366c0 256 156 394 444 394c228 0 374 -85 379 -248zM296 913h86
c17 -39 42 -62 113 -62s96 23 113 62h86c-19 -106 -86 -148 -200 -148c-113 0 -180 44 -198 148z" />
    <glyph glyph-name="Gdotaccent" unicode="&#x120;" horiz-adv-x="963" 
d="M876 493h-216c-3 72 -62 108 -162 108c-149 0 -229 -84 -229 -235c0 -159 88 -245 256 -245c51 0 106 9 149 18v124h-191v134h383v-382c-111 -17 -234 -34 -353 -34c-297 0 -460 124 -460 366c0 256 156 394 444 394c228 0 374 -85 379 -248zM416 913h158v-140h-158v140z
" />
    <glyph glyph-name="Gcommaaccent" unicode="&#x122;" horiz-adv-x="963" 
d="M876 493h-216c-3 72 -62 108 -162 108c-149 0 -229 -84 -229 -235c0 -159 88 -245 256 -245c51 0 106 9 149 18v124h-191v134h383v-382c-111 -17 -234 -34 -353 -34c-297 0 -460 124 -460 366c0 256 156 394 444 394c228 0 374 -85 379 -248zM441 -50h182l-132 -160h-118
z" />
    <glyph glyph-name="Hcircumflex" unicode="&#x124;" horiz-adv-x="963" 
d="M94 722h210v-287h355v287h210v-722h-210v287h-355v-287h-210v722zM381 913h207l130 -140h-158l-75 78l-75 -78h-158z" />
    <glyph glyph-name="Hbar" unicode="&#x126;" horiz-adv-x="963" 
d="M94 722h210v-86h355v86h210v-722h-210v287h-355v-287h-210v722zM304 435h355v93h-355v-93z" />
    <glyph glyph-name="Igrave" unicode="&#xcc;" 
d="M80 722h210v-722h-210v722zM-28 913h210l112 -140h-158z" />
    <glyph glyph-name="Iacute" unicode="&#xcd;" 
d="M80 722h210v-722h-210v722zM188 913h210l-164 -140h-158z" />
    <glyph glyph-name="Ibreve" unicode="&#x12c;" 
d="M80 722h210v-722h-210v722zM-14 913h86c17 -39 42 -62 113 -62s96 23 113 62h86c-19 -106 -86 -148 -200 -148c-113 0 -180 44 -198 148z" />
    <glyph glyph-name="Icircumflex" unicode="&#xce;" 
d="M80 722h210v-722h-210v722zM81 913h207l130 -140h-158l-75 78l-75 -78h-158z" />
    <glyph glyph-name="Itilde" unicode="&#x128;" 
d="M80 722h210v-722h-210v722zM228 885c24 -6 42 -9 53 -9c27 0 39 8 54 37h80c-4 -93 -47 -140 -127 -140c-32 0 -87 13 -134 25c-21 5 -46 12 -66 12c-25 0 -36 -6 -53 -37h-80c4 93 47 140 127 140c35 0 98 -16 146 -28z" />
    <glyph glyph-name="Idieresis" unicode="&#xcf;" 
d="M80 722h210v-722h-210v722zM-27 913h158v-140h-158v140zM239 913h158v-140h-158v140z" />
    <glyph glyph-name="Imacron" unicode="&#x12a;" 
d="M80 722h210v-722h-210v722zM-29 892h428v-98h-428v98z" />
    <glyph glyph-name="Idotaccent" unicode="&#x130;" 
d="M80 722h210v-722h-210v722zM106 913h158v-140h-158v140z" />
    <glyph glyph-name="Iogonek" unicode="&#x12e;" 
d="M80 722h210v-722h-44c-73 -43 -110 -79 -110 -114c0 -24 18 -41 53 -41c17 0 39 3 60 10l17 -49c-37 -11 -88 -17 -121 -17c-91 0 -131 27 -131 77c0 51 50 100 135 134h-69v722z" />
    <glyph glyph-name="Jcircumflex" unicode="&#x134;" horiz-adv-x="741" 
d="M437 722h210v-450c0 -194 -95 -291 -322 -291c-209 0 -317 93 -317 255v16h210c4 -90 36 -123 109 -123c80 0 110 54 110 143v450zM435 913h207l130 -140h-158l-75 78l-75 -78h-158z" />
    <glyph glyph-name="Kcommaaccent" unicode="&#x136;" horiz-adv-x="889" 
d="M100 722h210v-319l292 319h253l-316 -324l339 -398h-272l-294 372h-2v-372h-210v722zM355 -50h182l-132 -160h-118z" />
    <glyph glyph-name="Lacute" unicode="&#x139;" horiz-adv-x="741" 
d="M100 722h210v-574h408v-148h-618v722zM244 913h210l-164 -140h-158z" />
    <glyph glyph-name="Lcaron" unicode="&#x13d;" horiz-adv-x="741" 
d="M100 722h210v-574h408v-148h-618v722zM399 722h182l-122 -160h-118z" />
    <glyph glyph-name="Lcommaaccent" unicode="&#x13b;" horiz-adv-x="741" 
d="M100 722h210v-574h408v-148h-618v722zM323 -50h182l-132 -160h-118z" />
    <glyph glyph-name="Lslash" unicode="&#x141;" horiz-adv-x="741" 
d="M100 722h210v-243l196 113v-148l-196 -113v-183h408v-148h-618v210l-72 -42v148l72 42v364z" />
    <glyph glyph-name="Ldot" unicode="&#x13f;" horiz-adv-x="741" 
d="M100 722h210v-574h408v-148h-618v722zM485 452h158v-140h-158v140z" />
    <glyph glyph-name="Nacute" unicode="&#x143;" horiz-adv-x="963" 
d="M85 722h276l329 -520h2v520h186v-722h-278l-327 520h-2v-520h-186v722zM516 913h210l-164 -140h-158z" />
    <glyph glyph-name="Ncaron" unicode="&#x147;" horiz-adv-x="963" 
d="M85 722h276l329 -520h2v520h186v-722h-278l-327 520h-2v-520h-186v722zM252 913h158l75 -78l75 78h158l-129 -140h-207z" />
    <glyph glyph-name="Ntilde" unicode="&#xd1;" horiz-adv-x="963" 
d="M85 722h276l329 -520h2v520h186v-722h-278l-327 520h-2v-520h-186v722zM525 885c24 -6 42 -9 53 -9c27 0 39 8 54 37h80c-4 -93 -47 -140 -127 -140c-32 0 -87 13 -134 25c-21 5 -46 12 -66 12c-25 0 -36 -6 -53 -37h-80c4 93 47 140 127 140c35 0 98 -16 146 -28z" />
    <glyph glyph-name="Ncommaaccent" unicode="&#x145;" horiz-adv-x="963" 
d="M85 722h276l329 -520h2v520h186v-722h-278l-327 520h-2v-520h-186v722zM404 -50h182l-132 -160h-118z" />
    <glyph glyph-name="Ograve" unicode="&#xd2;" horiz-adv-x="964" 
d="M911 361c0 -240 -150 -380 -429 -380s-429 140 -429 380c0 243 154 380 429 380c276 0 429 -138 429 -380zM482 129c140 0 213 81 213 232s-72 232 -215 232c-136 0 -211 -80 -211 -232c0 -151 73 -232 213 -232zM269 913h210l112 -140h-158z" />
    <glyph glyph-name="Oacute" unicode="&#xd3;" horiz-adv-x="964" 
d="M911 361c0 -240 -150 -380 -429 -380s-429 140 -429 380c0 243 154 380 429 380c276 0 429 -138 429 -380zM482 129c140 0 213 81 213 232s-72 232 -215 232c-136 0 -211 -80 -211 -232c0 -151 73 -232 213 -232zM485 913h210l-164 -140h-158z" />
    <glyph glyph-name="Ocircumflex" unicode="&#xd4;" horiz-adv-x="964" 
d="M911 361c0 -240 -150 -380 -429 -380s-429 140 -429 380c0 243 154 380 429 380c276 0 429 -138 429 -380zM482 129c140 0 213 81 213 232s-72 232 -215 232c-136 0 -211 -80 -211 -232c0 -151 73 -232 213 -232zM378 913h207l130 -140h-158l-75 78l-75 -78h-158z" />
    <glyph glyph-name="Otilde" unicode="&#xd5;" horiz-adv-x="964" 
d="M911 361c0 -240 -150 -380 -429 -380s-429 140 -429 380c0 243 154 380 429 380c276 0 429 -138 429 -380zM482 129c140 0 213 81 213 232s-72 232 -215 232c-136 0 -211 -80 -211 -232c0 -151 73 -232 213 -232zM525 885c24 -6 42 -9 53 -9c27 0 39 8 54 37h80
c-4 -93 -47 -140 -127 -140c-32 0 -87 13 -134 25c-21 5 -46 12 -66 12c-25 0 -36 -6 -53 -37h-80c4 93 47 140 127 140c35 0 98 -16 146 -28z" />
    <glyph glyph-name="Odieresis" unicode="&#xd6;" horiz-adv-x="964" 
d="M911 361c0 -240 -150 -380 -429 -380s-429 140 -429 380c0 243 154 380 429 380c276 0 429 -138 429 -380zM482 129c140 0 213 81 213 232s-72 232 -215 232c-136 0 -211 -80 -211 -232c0 -151 73 -232 213 -232zM270 913h158v-140h-158v140zM536 913h158v-140h-158v140z
" />
    <glyph glyph-name="Omacron" unicode="&#x14c;" horiz-adv-x="964" 
d="M911 361c0 -240 -150 -380 -429 -380s-429 140 -429 380c0 243 154 380 429 380c276 0 429 -138 429 -380zM482 129c140 0 213 81 213 232s-72 232 -215 232c-136 0 -211 -80 -211 -232c0 -151 73 -232 213 -232zM271 892h428v-98h-428v98z" />
    <glyph glyph-name="Obreve" unicode="&#x14e;" horiz-adv-x="964" 
d="M911 361c0 -240 -150 -380 -429 -380s-429 140 -429 380c0 243 154 380 429 380c276 0 429 -138 429 -380zM482 129c140 0 213 81 213 232s-72 232 -215 232c-136 0 -211 -80 -211 -232c0 -151 73 -232 213 -232zM286 913h86c17 -39 42 -62 113 -62s96 23 113 62h86
c-19 -106 -86 -148 -200 -148c-113 0 -180 44 -198 148z" />
    <glyph glyph-name="Ohungarumlaut" unicode="&#x150;" horiz-adv-x="964" 
d="M911 361c0 -240 -150 -380 -429 -380s-429 140 -429 380c0 243 154 380 429 380c276 0 429 -138 429 -380zM482 129c140 0 213 81 213 232s-72 232 -215 232c-136 0 -211 -80 -211 -232c0 -151 73 -232 213 -232zM374 913h210l-164 -140h-158zM682 913h210l-164 -140
h-158z" />
    <glyph glyph-name="Oslash" unicode="&#xd8;" horiz-adv-x="964" 
d="M822 796l51 -48l-85 -96c85 -69 123 -171 123 -291c0 -240 -151 -380 -429 -380c-103 0 -183 18 -246 51l-94 -106l-51 48l85 96c-85 68 -123 171 -123 291c0 242 153 380 429 380c101 0 182 -18 246 -50zM305 215l306 344c-31 21 -73 34 -130 34
c-137 0 -212 -80 -212 -232c0 -56 10 -105 36 -146zM659 508l-306 -345c32 -21 72 -34 129 -34c140 0 213 81 213 232c0 56 -10 106 -36 147z" />
    <glyph glyph-name="Oslashacute" unicode="&#x1fe;" horiz-adv-x="964" 
d="M822 796l51 -48l-85 -96c85 -69 123 -171 123 -291c0 -240 -151 -380 -429 -380c-103 0 -183 18 -246 51l-94 -106l-51 48l85 96c-85 68 -123 171 -123 291c0 242 153 380 429 380c101 0 182 -18 246 -50zM305 215l306 344c-31 21 -73 34 -130 34
c-137 0 -212 -80 -212 -232c0 -56 10 -105 36 -146zM659 508l-306 -345c32 -21 72 -34 129 -34c140 0 213 81 213 232c0 56 -10 106 -36 147zM484 913h210l-164 -140h-158z" />
    <glyph glyph-name="OE" unicode="&#x152;" horiz-adv-x="1333" 
d="M477 728c21 0 190 -6 204 -6h550v-148h-383v-134h362v-148h-362v-144h399v-148h-498c-56 0 -191 -6 -250 -6c-287 0 -446 125 -446 368c0 233 168 366 424 366zM269 354c0 -127 106 -212 227 -212c59 0 109 2 148 6v426c-25 2 -98 6 -112 6c-172 0 -263 -77 -263 -226z
" />
    <glyph glyph-name="Racute" unicode="&#x154;" horiz-adv-x="889" 
d="M100 722h442c176 0 272 -66 272 -189c0 -87 -67 -154 -183 -175v-2c86 -7 129 -26 150 -81c12 -32 24 -96 35 -166c8 -50 20 -96 26 -109h-223c-8 22 -15 63 -21 117c-6 50 -10 98 -27 122c-20 28 -62 35 -128 35h-133v-274h-210v722zM310 414h170c81 0 124 23 124 85
c0 60 -38 83 -149 83h-145v-168zM407 913h210l-164 -140h-158z" />
    <glyph glyph-name="Rcaron" unicode="&#x158;" horiz-adv-x="889" 
d="M100 722h442c176 0 272 -66 272 -189c0 -87 -67 -154 -183 -175v-2c86 -7 129 -26 150 -81c12 -32 24 -96 35 -166c8 -50 20 -96 26 -109h-223c-8 22 -15 63 -21 117c-6 50 -10 98 -27 122c-20 28 -62 35 -128 35h-133v-274h-210v722zM310 414h170c81 0 124 23 124 85
c0 60 -38 83 -149 83h-145v-168zM188 913h158l75 -78l75 78h158l-129 -140h-207z" />
    <glyph glyph-name="Rcommaaccent" unicode="&#x156;" horiz-adv-x="889" 
d="M100 722h442c176 0 272 -66 272 -189c0 -87 -67 -154 -183 -175v-2c86 -7 129 -26 150 -81c12 -32 24 -96 35 -166c8 -50 20 -96 26 -109h-223c-8 22 -15 63 -21 117c-6 50 -10 98 -27 122c-20 28 -62 35 -128 35h-133v-274h-210v722zM310 414h170c81 0 124 23 124 85
c0 60 -38 83 -149 83h-145v-168zM367 -50h182l-132 -160h-118z" />
    <glyph glyph-name="Sacute" unicode="&#x15a;" horiz-adv-x="815" 
d="M400 741c228 0 339 -58 345 -225h-204c-6 57 -37 85 -129 85c-83 0 -132 -26 -132 -71c0 -33 33 -52 81 -64c62 -15 121 -26 182 -39c148 -31 217 -93 217 -208c0 -156 -124 -238 -365 -238c-229 0 -340 75 -340 248v5h210c3 -79 26 -113 142 -113c95 0 143 26 143 76
c0 39 -32 60 -113 76l-133 26c-167 33 -234 100 -234 203c0 157 132 239 330 239zM406 913h210l-164 -140h-158z" />
    <glyph glyph-name="Scircumflex" unicode="&#x15c;" horiz-adv-x="815" 
d="M400 741c228 0 339 -58 345 -225h-204c-6 57 -37 85 -129 85c-83 0 -132 -26 -132 -71c0 -33 33 -52 81 -64c62 -15 121 -26 182 -39c148 -31 217 -93 217 -208c0 -156 -124 -238 -365 -238c-229 0 -340 75 -340 248v5h210c3 -79 26 -113 142 -113c95 0 143 26 143 76
c0 39 -32 60 -113 76l-133 26c-167 33 -234 100 -234 203c0 157 132 239 330 239zM299 913h207l130 -140h-158l-75 78l-75 -78h-158z" />
    <glyph glyph-name="Scaron" unicode="&#x160;" horiz-adv-x="815" 
d="M400 741c228 0 339 -58 345 -225h-204c-6 57 -37 85 -129 85c-83 0 -132 -26 -132 -71c0 -33 33 -52 81 -64c62 -15 121 -26 182 -39c148 -31 217 -93 217 -208c0 -156 -124 -238 -365 -238c-229 0 -340 75 -340 248v5h210c3 -79 26 -113 142 -113c95 0 143 26 143 76
c0 39 -32 60 -113 76l-133 26c-167 33 -234 100 -234 203c0 157 132 239 330 239zM175 913h158l75 -78l75 78h158l-129 -140h-207z" />
    <glyph glyph-name="Scedilla" unicode="&#x15e;" horiz-adv-x="815" 
d="M400 741c240 0 339 -66 345 -225h-204c-5 55 -36 85 -128 85c-84 0 -133 -26 -133 -71c0 -31 27 -50 81 -64c62 -16 125 -26 187 -40c139 -31 212 -89 212 -207c0 -141 -100 -223 -307 -236l-39 -38l2 -2c12 4 29 7 44 7c57 0 107 -33 107 -79c0 -56 -60 -82 -157 -82
c-37 0 -89 6 -129 19l22 53c31 -10 65 -16 94 -16s48 10 48 31c0 19 -21 30 -50 30c-17 0 -32 -2 -44 -6l-24 29l52 52c-214 4 -324 76 -324 248v5h210c3 -78 26 -113 141 -113c96 0 144 26 144 76c0 36 -25 58 -118 77c-114 23 -220 35 -291 87c-44 32 -71 76 -71 141
c0 157 132 239 330 239z" />
    <glyph glyph-name="Scommaaccent" unicode="&#x218;" horiz-adv-x="815" 
d="M400 741c228 0 339 -58 345 -225h-204c-6 57 -37 85 -129 85c-83 0 -132 -26 -132 -71c0 -33 33 -52 81 -64c62 -15 121 -26 182 -39c148 -31 217 -93 217 -208c0 -156 -124 -238 -365 -238c-229 0 -340 75 -340 248v5h210c3 -79 26 -113 142 -113c95 0 143 26 143 76
c0 39 -32 60 -113 76l-133 26c-167 33 -234 100 -234 203c0 157 132 239 330 239zM332 -50h182l-132 -160h-118z" />
    <glyph glyph-name="Tcaron" unicode="&#x164;" horiz-adv-x="816" 
d="M25 722h766v-148h-278v-574h-210v574h-278v148zM174 913h158l75 -78l75 78h158l-129 -140h-207z" />
    <glyph glyph-name="Tcommaaccent" unicode="&#x162;" horiz-adv-x="816" 
d="M25 722h766v-148h-278v-574h-210v574h-278v148zM325 -50h182l-132 -160h-118z" />
    <glyph glyph-name="uni021A" unicode="&#x21a;" horiz-adv-x="816" 
d="M25 722h766v-148h-278v-574h-210v574h-278v148zM325 -50h182l-132 -160h-118z" />
    <glyph glyph-name="Tbar" unicode="&#x166;" horiz-adv-x="816" 
d="M25 722h766v-148h-278v-122h130v-128h-130v-324h-210v324h-130v128h130v122h-278v148z" />
    <glyph glyph-name="Thorn" unicode="&#xde;" horiz-adv-x="815" 
d="M94 722h210v-118h194c173 0 283 -82 283 -237c0 -156 -108 -229 -303 -229h-174v-138h-210v722zM304 278h133c88 0 128 29 128 92c0 64 -45 94 -113 94h-148v-186z" />
    <glyph glyph-name="Ugrave" unicode="&#xd9;" horiz-adv-x="963" 
d="M91 722h210v-408c0 -117 57 -185 181 -185c123 0 180 70 180 210v383h210v-394c0 -227 -116 -347 -390 -347c-276 0 -391 112 -391 319v422zM269 913h210l112 -140h-158z" />
    <glyph glyph-name="Uacute" unicode="&#xda;" horiz-adv-x="963" 
d="M91 722h210v-408c0 -117 57 -185 181 -185c123 0 180 70 180 210v383h210v-394c0 -227 -116 -347 -390 -347c-276 0 -391 112 -391 319v422zM485 913h210l-164 -140h-158z" />
    <glyph glyph-name="Ucircumflex" unicode="&#xdb;" horiz-adv-x="963" 
d="M91 722h210v-408c0 -117 57 -185 181 -185c123 0 180 70 180 210v383h210v-394c0 -227 -116 -347 -390 -347c-276 0 -391 112 -391 319v422zM378 913h207l130 -140h-158l-75 78l-75 -78h-158z" />
    <glyph glyph-name="Utilde" unicode="&#x168;" horiz-adv-x="963" 
d="M91 722h210v-408c0 -117 57 -185 181 -185c123 0 180 70 180 210v383h210v-394c0 -227 -116 -347 -390 -347c-276 0 -391 112 -391 319v422zM522 885c24 -6 42 -9 53 -9c27 0 39 8 54 37h80c-4 -93 -47 -140 -127 -140c-32 0 -87 13 -134 25c-21 5 -46 12 -66 12
c-25 0 -36 -6 -53 -37h-80c4 93 47 140 127 140c35 0 98 -16 146 -28z" />
    <glyph glyph-name="Udieresis" unicode="&#xdc;" horiz-adv-x="963" 
d="M91 722h210v-408c0 -117 57 -185 181 -185c123 0 180 70 180 210v383h210v-394c0 -227 -116 -347 -390 -347c-276 0 -391 112 -391 319v422zM270 913h158v-140h-158v140zM536 913h158v-140h-158v140z" />
    <glyph glyph-name="Umacron" unicode="&#x16a;" horiz-adv-x="963" 
d="M91 722h210v-408c0 -117 57 -185 181 -185c123 0 180 70 180 210v383h210v-394c0 -227 -116 -347 -390 -347c-276 0 -391 112 -391 319v422zM265 892h428v-98h-428v98z" />
    <glyph glyph-name="Ubreve" unicode="&#x16c;" horiz-adv-x="963" 
d="M91 722h210v-408c0 -117 57 -185 181 -185c123 0 180 70 180 210v383h210v-394c0 -227 -116 -347 -390 -347c-276 0 -391 112 -391 319v422zM280 913h86c17 -39 42 -62 113 -62s96 23 113 62h86c-19 -106 -86 -148 -200 -148c-113 0 -180 44 -198 148z" />
    <glyph glyph-name="Uring" unicode="&#x16e;" horiz-adv-x="963" 
d="M91 722h210v-408c0 -117 57 -185 181 -185c123 0 180 70 180 210v383h210v-394c0 -227 -116 -347 -390 -347c-276 0 -391 112 -391 319v422zM621 834c0 -71 -43 -105 -142 -105s-142 34 -142 105c0 68 49 105 142 105s142 -37 142 -105zM479 779c33 0 56 24 56 55
s-24 55 -56 55c-33 0 -56 -24 -56 -55s24 -55 56 -55z" />
    <glyph glyph-name="Uhungarumlaut" unicode="&#x170;" horiz-adv-x="963" 
d="M91 722h210v-408c0 -117 57 -185 181 -185c123 0 180 70 180 210v383h210v-394c0 -227 -116 -347 -390 -347c-276 0 -391 112 -391 319v422zM344 913h210l-164 -140h-158zM652 913h210l-164 -140h-158z" />
    <glyph glyph-name="Uogonek" unicode="&#x172;" horiz-adv-x="963" 
d="M91 722h210v-409c0 -115 56 -184 181 -184c123 0 180 70 180 211v382h210v-396c0 -200 -94 -318 -302 -340c-57 -37 -86 -68 -86 -100c0 -24 18 -41 53 -41c17 0 40 3 60 10l17 -49c-37 -11 -86 -17 -121 -17c-91 0 -131 28 -131 77c0 41 34 83 93 115
c-254 6 -364 118 -364 318v423z" />
    <glyph glyph-name="Wacute" unicode="&#x1e82;" horiz-adv-x="1259" 
d="M14 722h220l119 -574h2l164 574h253l144 -574h2l128 572l1 2h198l-210 -722h-254l-147 568h-2l-156 -568h-258zM659 913h210l-164 -140h-158z" />
    <glyph glyph-name="Wcircumflex" unicode="&#x174;" horiz-adv-x="1259" 
d="M14 722h220l119 -574h2l164 574h253l144 -574h2l128 572l1 2h198l-210 -722h-254l-147 568h-2l-156 -568h-258zM529 913h207l130 -140h-158l-75 78l-75 -78h-158z" />
    <glyph glyph-name="Wdieresis" unicode="&#x1e84;" horiz-adv-x="1259" 
d="M14 722h220l119 -574h2l164 574h253l144 -574h2l128 572l1 2h198l-210 -722h-254l-147 568h-2l-156 -568h-258zM421 913h158v-140h-158v140zM687 913h158v-140h-158v140z" />
    <glyph glyph-name="Wgrave" unicode="&#x1e80;" horiz-adv-x="1259" 
d="M14 722h220l119 -574h2l164 574h253l144 -574h2l128 572l1 2h198l-210 -722h-254l-147 568h-2l-156 -568h-258zM424 913h210l112 -140h-158z" />
    <glyph glyph-name="Yacute" unicode="&#xdd;" horiz-adv-x="888" 
d="M14 722h258l185 -308l183 308h234l-325 -465v-257h-210v257zM447 913h210l-164 -140h-158z" />
    <glyph glyph-name="Ycircumflex" unicode="&#x176;" horiz-adv-x="888" 
d="M14 722h258l185 -308l183 308h234l-325 -465v-257h-210v257zM352 913h207l130 -140h-158l-75 78l-75 -78h-158z" />
    <glyph glyph-name="Ydieresis" unicode="&#x178;" horiz-adv-x="888" 
d="M14 722h258l185 -308l183 308h234l-325 -465v-257h-210v257zM232 913h158v-140h-158v140zM498 913h158v-140h-158v140z" />
    <glyph glyph-name="Ygrave" unicode="&#x1ef2;" horiz-adv-x="888" 
d="M14 722h258l185 -308l183 308h234l-325 -465v-257h-210v257zM236 913h210l112 -140h-158z" />
    <glyph glyph-name="Zacute" unicode="&#x179;" horiz-adv-x="815" 
d="M81 722h672v-192l-446 -382h457v-148h-713v186l451 388h-421v148zM383 913h210l-164 -140h-158z" />
    <glyph glyph-name="Zcaron" unicode="&#x17d;" horiz-adv-x="815" 
d="M81 722h672v-192l-446 -382h457v-148h-713v186l451 388h-421v148zM175 913h158l75 -78l75 78h158l-129 -140h-207z" />
    <glyph glyph-name="Zdotaccent" unicode="&#x17b;" horiz-adv-x="815" 
d="M81 722h672v-192l-446 -382h457v-148h-713v186l451 388h-421v148zM336 913h158v-140h-158v140z" />
    <glyph glyph-name="agrave" unicode="&#xe0;" horiz-adv-x="741" 
d="M664 306v-204c0 -16 1 -62 4 -102h-186c-3 30 -4 67 -4 81h-2c-38 -63 -110 -100 -218 -100c-144 0 -226 60 -226 163c0 113 103 173 295 173h145c0 69 -25 100 -113 100c-60 0 -92 -19 -94 -63h-198c8 109 115 167 290 167c214 0 307 -61 307 -215zM319 91
c97 0 152 48 153 128h-81c-100 0 -155 -19 -155 -76c0 -31 28 -52 83 -52zM158 722h210l112 -140h-158z" />
    <glyph glyph-name="aacute" unicode="&#xe1;" horiz-adv-x="741" 
d="M664 306v-204c0 -16 1 -62 4 -102h-186c-3 30 -4 67 -4 81h-2c-38 -63 -110 -100 -218 -100c-144 0 -226 60 -226 163c0 113 103 173 295 173h145c0 69 -25 100 -113 100c-60 0 -92 -19 -94 -63h-198c8 109 115 167 290 167c214 0 307 -61 307 -215zM319 91
c97 0 152 48 153 128h-81c-100 0 -155 -19 -155 -76c0 -31 28 -52 83 -52zM374 722h210l-164 -140h-158z" />
    <glyph glyph-name="acircumflex" unicode="&#xe2;" horiz-adv-x="741" 
d="M664 306v-204c0 -16 1 -62 4 -102h-186c-3 30 -4 67 -4 81h-2c-38 -63 -110 -100 -218 -100c-144 0 -226 60 -226 163c0 113 103 173 295 173h145c0 69 -25 100 -113 100c-60 0 -92 -19 -94 -63h-198c8 109 115 167 290 167c214 0 307 -61 307 -215zM319 91
c97 0 152 48 153 128h-81c-100 0 -155 -19 -155 -76c0 -31 28 -52 83 -52zM267 722h207l130 -140h-158l-75 78l-75 -78h-158z" />
    <glyph glyph-name="atilde" unicode="&#xe3;" horiz-adv-x="741" 
d="M664 306v-204c0 -16 1 -62 4 -102h-186c-3 30 -4 67 -4 81h-2c-38 -63 -110 -100 -218 -100c-144 0 -226 60 -226 163c0 113 103 173 295 173h145c0 69 -25 100 -113 100c-60 0 -92 -19 -94 -63h-198c8 109 115 167 290 167c214 0 307 -61 307 -215zM319 91
c97 0 152 48 153 128h-81c-100 0 -155 -19 -155 -76c0 -31 28 -52 83 -52zM410 695c24 -6 46 -10 57 -10c27 0 38 7 54 37h80c-4 -93 -47 -140 -127 -140c-32 0 -87 13 -134 25c-21 5 -46 12 -66 12c-25 0 -36 -6 -53 -37h-80c4 93 47 140 127 140c35 0 94 -15 142 -27z" />
    <glyph glyph-name="adieresis" unicode="&#xe4;" horiz-adv-x="741" 
d="M664 306v-204c0 -16 1 -62 4 -102h-186c-3 30 -4 67 -4 81h-2c-38 -63 -110 -100 -218 -100c-144 0 -226 60 -226 163c0 113 103 173 295 173h145c0 69 -25 100 -113 100c-60 0 -92 -19 -94 -63h-198c8 109 115 167 290 167c214 0 307 -61 307 -215zM319 91
c97 0 152 48 153 128h-81c-100 0 -155 -19 -155 -76c0 -31 28 -52 83 -52zM159 722h158v-140h-158v140zM425 722h158v-140h-158v140z" />
    <glyph glyph-name="amacron" unicode="&#x101;" horiz-adv-x="741" 
d="M664 306v-204c0 -16 1 -62 4 -102h-186c-3 30 -4 67 -4 81h-2c-38 -63 -110 -100 -218 -100c-144 0 -226 60 -226 163c0 113 103 173 295 173h145c0 69 -25 100 -113 100c-60 0 -92 -19 -94 -63h-198c8 109 115 167 290 167c214 0 307 -61 307 -215zM319 91
c97 0 152 48 153 128h-81c-100 0 -155 -19 -155 -76c0 -31 28 -52 83 -52zM165 701h428v-98h-428v98z" />
    <glyph glyph-name="abreve" unicode="&#x103;" horiz-adv-x="741" 
d="M664 306v-204c0 -16 1 -62 4 -102h-186c-3 30 -4 67 -4 81h-2c-38 -63 -110 -100 -218 -100c-144 0 -226 60 -226 163c0 113 103 173 295 173h145c0 69 -25 100 -113 100c-60 0 -92 -19 -94 -63h-198c8 109 115 167 290 167c214 0 307 -61 307 -215zM319 91
c97 0 152 48 153 128h-81c-100 0 -155 -19 -155 -76c0 -31 28 -52 83 -52zM180 722h86c17 -39 42 -62 113 -62s96 23 113 62h86c-19 -106 -86 -148 -200 -148c-113 0 -180 44 -198 148z" />
    <glyph glyph-name="aring" unicode="&#xe5;" horiz-adv-x="741" 
d="M664 306v-204c0 -16 1 -62 4 -102h-186c-3 30 -4 67 -4 81h-2c-38 -63 -110 -100 -218 -100c-144 0 -226 60 -226 163c0 113 103 173 295 173h145c0 69 -25 100 -113 100c-60 0 -92 -19 -94 -63h-198c8 109 115 167 290 167c214 0 307 -61 307 -215zM319 91
c97 0 152 48 153 128h-81c-100 0 -155 -19 -155 -76c0 -31 28 -52 83 -52zM513 650c0 -70 -43 -105 -142 -105s-142 34 -142 105c0 68 49 105 142 105s142 -37 142 -105zM371 595c33 0 56 24 56 55c0 32 -24 55 -56 55c-33 0 -56 -24 -56 -55s23 -55 56 -55z" />
    <glyph glyph-name="aringacute" unicode="&#x1fb;" horiz-adv-x="741" 
d="M387 870h191l-150 -90h-144zM664 306v-204c0 -16 1 -62 4 -102h-186c-3 30 -4 67 -4 81h-2c-38 -63 -110 -100 -218 -100c-144 0 -226 60 -226 163c0 113 103 173 295 173h145c0 69 -25 100 -113 100c-60 0 -92 -19 -94 -63h-198c8 109 115 167 290 167
c214 0 307 -61 307 -215zM319 91c97 0 152 48 153 128h-81c-100 0 -155 -19 -155 -76c0 -31 28 -52 83 -52zM514 649c0 -71 -43 -105 -142 -105s-142 34 -142 105c0 68 49 105 142 105s142 -37 142 -105zM372 594c33 0 56 24 56 55s-24 55 -56 55c-33 0 -56 -24 -56 -55
s24 -55 56 -55z" />
    <glyph glyph-name="aogonek" unicode="&#x105;" horiz-adv-x="741" 
d="M664 305v-203c0 -16 1 -62 4 -102h-37c-73 -43 -110 -79 -110 -114c0 -24 18 -41 53 -41c17 0 39 3 60 10l17 -49c-37 -11 -86 -17 -122 -17c-91 0 -130 28 -130 77c0 51 51 101 135 134h-52c-3 32 -4 67 -4 81h-2c-38 -63 -110 -100 -218 -100c-144 0 -226 60 -226 163
c0 117 109 173 296 173h144c0 69 -25 100 -113 100c-60 0 -92 -19 -94 -63h-198c9 109 114 167 293 167c227 0 304 -73 304 -216zM319 91c97 0 152 48 153 128h-80c-101 0 -156 -19 -156 -76c0 -31 28 -52 83 -52z" />
    <glyph glyph-name="ae" unicode="&#xe6;" horiz-adv-x="1185" 
d="M591 440c60 55 121 81 229 81c204 0 320 -105 321 -308h-455c5 -89 55 -128 139 -128c60 0 99 26 110 69h198c-9 -111 -127 -173 -300 -173c-133 0 -220 35 -257 98c-53 -66 -146 -98 -277 -98c-161 0 -255 61 -255 163c0 115 107 173 295 173h157c0 67 -34 100 -126 100
c-60 0 -92 -20 -93 -63h-198c8 109 116 167 287 167c114 0 184 -28 225 -81zM688 317h253c-8 60 -55 100 -126 100c-69 0 -118 -36 -127 -100zM341 91c92 0 153 49 155 121h-111c-86 0 -137 -16 -137 -63c0 -33 32 -58 93 -58z" />
    <glyph glyph-name="aeacute" unicode="&#x1fd;" horiz-adv-x="1185" 
d="M591 440c60 55 121 81 229 81c204 0 320 -105 321 -308h-455c5 -89 55 -128 139 -128c60 0 99 26 110 69h198c-9 -111 -127 -173 -300 -173c-133 0 -220 35 -257 98c-53 -66 -146 -98 -277 -98c-161 0 -255 61 -255 163c0 115 107 173 295 173h157c0 67 -34 100 -126 100
c-60 0 -92 -20 -93 -63h-198c8 109 116 167 287 167c114 0 184 -28 225 -81zM688 317h253c-8 60 -55 100 -126 100c-69 0 -118 -36 -127 -100zM341 91c92 0 153 49 155 121h-111c-86 0 -137 -16 -137 -63c0 -33 32 -58 93 -58zM588 722h210l-164 -140h-158z" />
    <glyph glyph-name="cacute" unicode="&#x107;" horiz-adv-x="741" 
d="M691 324h-198c-11 63 -50 87 -111 87c-81 0 -134 -61 -134 -159c0 -99 49 -161 134 -161c65 0 108 33 111 97h204c-15 -136 -135 -207 -327 -207c-168 0 -326 80 -326 268c0 180 134 272 338 272c180 0 294 -68 309 -197zM373 722h210l-164 -140h-158z" />
    <glyph glyph-name="ccircumflex" unicode="&#x109;" horiz-adv-x="741" 
d="M691 324h-198c-11 63 -50 87 -111 87c-81 0 -134 -61 -134 -159c0 -99 49 -161 134 -161c65 0 108 33 111 97h204c-15 -136 -135 -207 -327 -207c-168 0 -326 80 -326 268c0 180 134 272 338 272c180 0 294 -68 309 -197zM281 722h207l130 -140h-158l-75 78l-75 -78h-158
z" />
    <glyph glyph-name="ccaron" unicode="&#x10d;" horiz-adv-x="741" 
d="M691 324h-198c-11 63 -50 87 -111 87c-81 0 -134 -61 -134 -159c0 -99 49 -161 134 -161c65 0 108 33 111 97h204c-15 -136 -135 -207 -327 -207c-168 0 -326 80 -326 268c0 180 134 272 338 272c180 0 294 -68 309 -197zM162 722h158l75 -78l75 78h158l-129 -140h-207z
" />
    <glyph glyph-name="cdotaccent" unicode="&#x10b;" horiz-adv-x="741" 
d="M691 324h-198c-11 63 -50 87 -111 87c-81 0 -134 -61 -134 -159c0 -99 49 -161 134 -161c65 0 108 33 111 97h204c-15 -136 -135 -207 -327 -207c-168 0 -326 80 -326 268c0 180 134 272 338 272c180 0 294 -68 309 -197zM306 722h158v-140h-158v140z" />
    <glyph glyph-name="ccedilla" unicode="&#xe7;" horiz-adv-x="741" 
d="M691 324h-198c-11 63 -50 87 -111 87c-83 0 -134 -63 -134 -159c0 -99 48 -161 134 -161c65 0 109 33 111 97h204c-12 -118 -108 -195 -285 -205l-39 -38l2 -2c12 4 29 7 44 7c57 0 107 -33 107 -79c0 -56 -60 -82 -157 -82c-37 0 -90 6 -129 19l22 53
c23 -8 63 -16 94 -16c29 0 48 10 48 31c0 19 -22 30 -50 30c-17 0 -32 -2 -44 -6l-24 29l53 54c-184 12 -295 109 -295 266c0 178 132 272 338 272c180 0 294 -68 309 -197z" />
    <glyph glyph-name="dcaron" unicode="&#x10f;" horiz-adv-x="815" 
d="M542 722h192v-647c0 -13 0 -46 4 -75h-186c-2 22 -4 46 -4 83c-63 -75 -128 -102 -224 -102c-165 0 -280 106 -280 273c0 165 115 267 284 267c88 0 157 -27 214 -85v286zM393 97c87 0 149 61 149 150c0 95 -60 158 -149 158c-80 0 -145 -58 -145 -151s56 -157 145 -157z
M830 722h182l-122 -160h-118z" />
    <glyph glyph-name="dcroat" unicode="&#x111;" horiz-adv-x="815" 
d="M542 722h192v-75h70v-78h-70v-494c0 -13 1 -46 4 -75h-186c-2 27 -4 46 -4 83c-63 -75 -128 -102 -224 -102c-165 0 -280 106 -280 273c0 165 115 267 284 267c88 0 159 -28 214 -85v133h-166v78h166v75zM393 97c87 0 149 62 149 150c0 93 -59 158 -149 158
c-80 0 -145 -58 -145 -151s56 -157 145 -157z" />
    <glyph glyph-name="eth" unicode="&#xf0;" horiz-adv-x="816" 
d="M576 774l58 -46l-124 -57c165 -96 262 -240 262 -403c0 -189 -130 -287 -370 -287c-214 0 -358 107 -358 258c0 163 135 263 307 263c69 0 121 -16 169 -50l2 2c-34 49 -130 116 -189 135l-139 -64l-58 46l108 50c-35 12 -86 22 -118 25l135 110c60 -9 124 -23 177 -46z
M408 91c96 0 160 61 160 148c0 91 -64 153 -161 153c-88 0 -159 -60 -159 -153c0 -88 70 -148 160 -148z" />
    <glyph glyph-name="egrave" unicode="&#xe8;" horiz-adv-x="741" 
d="M368 521c220 0 328 -97 329 -317h-455c4 -79 50 -119 132 -119c59 0 95 16 108 68h204c-13 -47 -32 -86 -68 -115c-47 -37 -109 -57 -246 -57c-213 0 -328 91 -328 262c0 177 128 278 324 278zM245 308h248c-1 69 -41 109 -125 109c-68 0 -111 -34 -123 -109zM170 722
h210l112 -140h-158z" />
    <glyph glyph-name="eacute" unicode="&#xe9;" horiz-adv-x="741" 
d="M368 521c220 0 328 -97 329 -317h-455c4 -79 50 -119 132 -119c59 0 95 16 108 68h204c-13 -47 -32 -86 -68 -115c-47 -37 -109 -57 -246 -57c-213 0 -328 91 -328 262c0 177 128 278 324 278zM245 308h248c-1 69 -41 109 -125 109c-68 0 -111 -34 -123 -109zM386 722
h210l-164 -140h-158z" />
    <glyph glyph-name="ecircumflex" unicode="&#xea;" horiz-adv-x="741" 
d="M368 521c220 0 328 -97 329 -317h-455c4 -79 50 -119 132 -119c59 0 95 16 108 68h204c-13 -47 -32 -86 -68 -115c-47 -37 -109 -57 -246 -57c-213 0 -328 91 -328 262c0 177 128 278 324 278zM245 308h248c-1 69 -41 109 -125 109c-68 0 -111 -34 -123 -109zM279 722
h207l130 -140h-158l-75 78l-75 -78h-158z" />
    <glyph glyph-name="ecaron" unicode="&#x11b;" horiz-adv-x="741" 
d="M368 521c220 0 328 -97 329 -317h-455c4 -79 50 -119 132 -119c59 0 95 16 108 68h204c-13 -47 -32 -86 -68 -115c-47 -37 -109 -57 -246 -57c-213 0 -328 91 -328 262c0 177 128 278 324 278zM245 308h248c-1 69 -41 109 -125 109c-68 0 -111 -34 -123 -109zM152 722
h158l75 -78l75 78h158l-129 -140h-207z" />
    <glyph glyph-name="edieresis" unicode="&#xeb;" horiz-adv-x="741" 
d="M368 521c220 0 328 -97 329 -317h-455c4 -79 50 -119 132 -119c59 0 95 16 108 68h204c-13 -47 -32 -86 -68 -115c-47 -37 -109 -57 -246 -57c-213 0 -328 91 -328 262c0 177 128 278 324 278zM245 308h248c-1 69 -41 109 -125 109c-68 0 -111 -34 -123 -109zM171 722
h158v-140h-158v140zM437 722h158v-140h-158v140z" />
    <glyph glyph-name="emacron" unicode="&#x113;" horiz-adv-x="741" 
d="M368 521c220 0 328 -97 329 -317h-455c4 -79 50 -119 132 -119c59 0 95 16 108 68h204c-13 -47 -32 -86 -68 -115c-47 -37 -109 -57 -246 -57c-213 0 -328 91 -328 262c0 177 128 278 324 278zM245 308h248c-1 69 -41 109 -125 109c-68 0 -111 -34 -123 -109zM171 701
h428v-98h-428v98z" />
    <glyph glyph-name="ebreve" unicode="&#x115;" horiz-adv-x="741" 
d="M368 521c220 0 328 -97 329 -317h-455c4 -79 50 -119 132 -119c59 0 95 16 108 68h204c-13 -47 -32 -86 -68 -115c-47 -37 -109 -57 -246 -57c-213 0 -328 91 -328 262c0 177 128 278 324 278zM245 308h248c-1 69 -41 109 -125 109c-68 0 -111 -34 -123 -109zM186 722h86
c17 -39 42 -62 113 -62s96 23 113 62h86c-19 -106 -86 -148 -200 -148c-113 0 -180 44 -198 148z" />
    <glyph glyph-name="edotaccent" unicode="&#x117;" horiz-adv-x="741" 
d="M368 521c220 0 328 -97 329 -317h-455c4 -79 50 -119 132 -119c59 0 95 16 108 68h204c-13 -47 -32 -86 -68 -115c-47 -37 -109 -57 -246 -57c-213 0 -328 91 -328 262c0 177 128 278 324 278zM245 308h248c-1 69 -41 109 -125 109c-68 0 -111 -34 -123 -109zM306 722
h158v-140h-158v140z" />
    <glyph glyph-name="eogonek" unicode="&#x119;" horiz-adv-x="741" 
d="M697 204h-455c4 -79 50 -119 132 -119c59 0 95 15 108 68h204c-25 -100 -92 -160 -236 -169c-55 -36 -83 -66 -83 -98c0 -24 20 -41 53 -41c17 0 39 3 60 10l17 -49c-37 -11 -87 -17 -122 -17c-89 0 -130 26 -130 77c0 40 33 83 94 116c-195 9 -295 100 -295 261
c0 176 128 278 324 278c220 0 328 -97 329 -317zM245 308h248c-1 69 -41 109 -125 109c-68 0 -111 -34 -123 -109z" />
    <glyph glyph-name="gcircumflex" unicode="&#x11d;" horiz-adv-x="815" 
d="M320 521c101 0 177 -36 226 -99h2c0 41 1 60 4 80h186c-3 -31 -4 -61 -4 -74v-354c0 -225 -138 -285 -361 -285c-106 0 -195 14 -246 51c-38 28 -57 64 -62 127h204c9 -48 40 -68 113 -68c119 0 160 49 160 171v39h-2c-39 -64 -127 -102 -224 -102
c-155 0 -273 107 -273 257c0 158 112 257 277 257zM247 264c0 -81 58 -135 145 -135c92 0 150 52 150 135c0 80 -61 135 -153 135c-85 0 -142 -50 -142 -135zM355 722h207l130 -140h-158l-75 78l-75 -78h-158z" />
    <glyph glyph-name="gbreve" unicode="&#x11f;" horiz-adv-x="815" 
d="M320 521c101 0 177 -36 226 -99h2c0 41 1 60 4 80h186c-3 -31 -4 -61 -4 -74v-354c0 -225 -138 -285 -361 -285c-106 0 -195 14 -246 51c-38 28 -57 64 -62 127h204c9 -48 40 -68 113 -68c119 0 160 49 160 171v39h-2c-39 -64 -127 -102 -224 -102
c-155 0 -273 107 -273 257c0 158 112 257 277 257zM247 264c0 -81 58 -135 145 -135c92 0 150 52 150 135c0 80 -61 135 -153 135c-85 0 -142 -50 -142 -135zM260 722h86c17 -39 42 -62 113 -62s96 23 113 62h86c-19 -106 -86 -148 -200 -148c-113 0 -180 44 -198 148z" />
    <glyph glyph-name="gdotaccent" unicode="&#x121;" horiz-adv-x="815" 
d="M320 521c101 0 177 -36 226 -99h2c0 41 1 60 4 80h186c-3 -31 -4 -61 -4 -74v-354c0 -225 -138 -285 -361 -285c-106 0 -195 14 -246 51c-38 28 -57 64 -62 127h204c9 -48 40 -68 113 -68c119 0 160 49 160 171v39h-2c-39 -64 -127 -102 -224 -102
c-155 0 -273 107 -273 257c0 158 112 257 277 257zM247 264c0 -81 58 -135 145 -135c92 0 150 52 150 135c0 80 -61 135 -153 135c-85 0 -142 -50 -142 -135zM380 722h158v-140h-158v140z" />
    <glyph glyph-name="gcommaaccent" unicode="&#x123;" horiz-adv-x="815" 
d="M320 521c101 0 177 -36 226 -99h2c0 41 1 60 4 80h186c-3 -31 -4 -61 -4 -74v-354c0 -225 -138 -285 -361 -285c-106 0 -195 14 -246 51c-38 28 -57 64 -62 127h204c9 -48 40 -68 113 -68c119 0 160 49 160 171v39h-2c-39 -64 -127 -102 -224 -102
c-155 0 -273 107 -273 257c0 158 112 257 277 257zM247 264c0 -81 58 -135 145 -135c92 0 150 52 150 135c0 80 -61 135 -153 135c-85 0 -142 -50 -142 -135zM458 741h118l-68 -160h-182z" />
    <glyph glyph-name="hcircumflex" unicode="&#x125;" horiz-adv-x="815" 
d="M81 722h192v-306c64 75 121 105 212 105c164 0 249 -87 249 -235v-286h-192v259c0 83 -40 134 -122 134c-85 0 -147 -69 -147 -169v-224h-192v722zM210 900h207l130 -140h-158l-75 78l-75 -78h-158z" />
    <glyph glyph-name="hbar" unicode="&#x127;" horiz-adv-x="815" 
d="M81 722h192v-75h166v-78h-166v-153c64 75 121 105 212 105c168 0 249 -93 249 -233v-288h-192v260c0 83 -41 133 -122 133c-84 0 -147 -69 -147 -168v-225h-192v569h-70v78h70v75z" />
    <glyph glyph-name="dotlessi" unicode="&#x131;" 
d="M89 502h192v-502h-192v502z" />
    <glyph glyph-name="igrave" unicode="&#xec;" 
d="M-28 722h210l112 -140h-158zM89 502h192v-502h-192v502z" />
    <glyph glyph-name="iacute" unicode="&#xed;" 
d="M188 722h210l-164 -140h-158zM89 502h192v-502h-192v502z" />
    <glyph glyph-name="ibreve" unicode="&#x12d;" 
d="M-14 722h86c17 -39 42 -62 113 -62s96 23 113 62h86c-19 -106 -86 -148 -200 -148c-113 0 -180 44 -198 148zM89 502h192v-502h-192v502z" />
    <glyph glyph-name="icircumflex" unicode="&#xee;" 
d="M89 502h192v-502h-192v502zM81 722h207l130 -140h-158l-75 78l-75 -78h-158z" />
    <glyph glyph-name="itilde" unicode="&#x129;" 
d="M224 695c24 -6 46 -10 57 -10c27 0 38 7 54 37h80c-4 -93 -47 -140 -127 -140c-32 0 -87 13 -134 25c-21 5 -46 12 -66 12c-25 0 -36 -6 -53 -37h-80c4 93 47 140 127 140c35 0 94 -15 142 -27zM89 502h192v-502h-192v502z" />
    <glyph glyph-name="idieresis" unicode="&#xef;" 
d="M-27 722h158v-140h-158v140zM239 722h158v-140h-158v140zM89 502h192v-502h-192v502z" />
    <glyph glyph-name="imacron" unicode="&#x12b;" 
d="M-29 701h428v-98h-428v98zM89 502h192v-502h-192v502z" />
    <glyph glyph-name="iogonek" unicode="&#x12f;" 
d="M80 722h210v-140h-210v140zM89 502h192v-502h-38c-73 -44 -110 -79 -110 -114c0 -24 18 -41 53 -41c17 0 39 3 60 10l17 -49c-37 -11 -88 -17 -121 -17c-91 0 -131 28 -131 77c0 51 50 101 135 134h-57v502z" />
    <glyph glyph-name="dotlessj" unicode="&#x237;" 
d="M89 502h192v-469c0 -158 -62 -225 -235 -225c-21 0 -59 2 -92 3v119c108 0 135 7 135 126v446z" />
    <glyph glyph-name="jcircumflex" unicode="&#x135;" 
d="M89 502h192v-469c0 -158 -62 -225 -235 -225c-21 0 -59 2 -92 3v119c108 0 135 7 135 126v446zM81 722h207l130 -140h-158l-75 78l-75 -78h-158z" />
    <glyph glyph-name="kcommaaccent" unicode="&#x137;" horiz-adv-x="815" 
d="M89 722h192v-434l240 214h241l-247 -215l279 -287h-265l-248 273v-273h-192v722zM312 -50h182l-132 -160h-118z" />
    <glyph glyph-name="kgreenlandic" unicode="&#x138;" horiz-adv-x="815" 
d="M89 502h192v-214l240 214h241l-247 -215l279 -287h-265l-248 273v-273h-192v502z" />
    <glyph glyph-name="lacute" unicode="&#x13a;" 
d="M89 722h192v-722h-192v722zM181 876h210l-164 -140h-158z" />
    <glyph glyph-name="lcaron" unicode="&#x13e;" 
d="M89 722h192v-722h-192v722zM377 722h182l-122 -160h-118z" />
    <glyph glyph-name="lcommaaccent" unicode="&#x13c;" 
d="M89 722h192v-722h-192v722zM104 -50h182l-132 -160h-118z" />
    <glyph glyph-name="lslash" unicode="&#x142;" 
d="M89 722h192v-207l62 40v-140l-62 -40v-375h-192v251l-62 -40v140l62 40v331z" />
    <glyph glyph-name="ldot" unicode="&#x140;" horiz-adv-x="518" 
d="M89 722h192v-722h-192v722zM354 452h158v-140h-158v140z" />
    <glyph glyph-name="nacute" unicode="&#x144;" horiz-adv-x="815" 
d="M734 287v-287h-192v259c0 83 -40 134 -122 134c-85 0 -147 -69 -147 -168v-225h-192v408c0 13 -1 57 -4 94h186c0 -5 4 -59 4 -90h2c51 67 125 109 213 109c167 0 252 -88 252 -234zM423 722h210l-164 -140h-158z" />
    <glyph glyph-name="ncaron" unicode="&#x148;" horiz-adv-x="815" 
d="M734 287v-287h-192v259c0 83 -40 134 -122 134c-85 0 -147 -69 -147 -168v-225h-192v408c0 13 -1 57 -4 94h186c0 -5 4 -59 4 -90h2c51 67 125 109 213 109c167 0 252 -88 252 -234zM172 722h158l75 -78l75 78h158l-129 -140h-207z" />
    <glyph glyph-name="ntilde" unicode="&#xf1;" horiz-adv-x="815" 
d="M734 287v-287h-192v259c0 83 -40 134 -122 134c-85 0 -147 -69 -147 -168v-225h-192v408c0 13 -1 57 -4 94h186c0 -5 4 -59 4 -90h2c51 67 125 109 213 109c167 0 252 -88 252 -234zM447 695c24 -6 46 -10 57 -10c27 0 38 7 54 37h80c-4 -93 -47 -140 -127 -140
c-32 0 -87 13 -134 25c-21 5 -46 12 -66 12c-25 0 -36 -6 -53 -37h-80c4 93 47 140 127 140c35 0 94 -15 142 -27z" />
    <glyph glyph-name="ncommaaccent" unicode="&#x146;" horiz-adv-x="815" 
d="M734 287v-287h-192v259c0 83 -40 134 -122 134c-85 0 -147 -69 -147 -168v-225h-192v408c0 13 -1 57 -4 94h186c0 -5 4 -59 4 -90h2c51 67 125 109 213 109c167 0 252 -88 252 -234zM328 -50h182l-132 -160h-118z" />
    <glyph glyph-name="ograve" unicode="&#xf2;" horiz-adv-x="816" 
d="M772 251c0 -137 -101 -270 -364 -270c-255 0 -364 126 -364 270c0 73 30 142 86 189c62 52 155 81 278 81s209 -28 270 -75c62 -48 94 -119 94 -195zM408 91c95 0 160 62 160 160s-64 160 -161 160c-92 0 -159 -61 -159 -160c0 -98 65 -160 160 -160zM195 722h210
l112 -140h-158z" />
    <glyph glyph-name="oacute" unicode="&#xf3;" horiz-adv-x="816" 
d="M772 251c0 -137 -101 -270 -364 -270c-255 0 -364 126 -364 270c0 73 30 142 86 189c62 52 155 81 278 81s209 -28 270 -75c62 -48 94 -119 94 -195zM408 91c95 0 160 62 160 160s-64 160 -161 160c-92 0 -159 -61 -159 -160c0 -98 65 -160 160 -160zM411 722h210
l-164 -140h-158z" />
    <glyph glyph-name="ocircumflex" unicode="&#xf4;" horiz-adv-x="816" 
d="M772 251c0 -137 -101 -270 -364 -270c-255 0 -364 126 -364 270c0 73 30 142 86 189c62 52 155 81 278 81s209 -28 270 -75c62 -48 94 -119 94 -195zM408 91c95 0 160 62 160 160s-64 160 -161 160c-92 0 -159 -61 -159 -160c0 -98 65 -160 160 -160zM304 722h207
l130 -140h-158l-75 78l-75 -78h-158z" />
    <glyph glyph-name="otilde" unicode="&#xf5;" horiz-adv-x="816" 
d="M772 251c0 -137 -101 -270 -364 -270c-255 0 -364 126 -364 270c0 73 30 142 86 189c62 52 155 81 278 81s209 -28 270 -75c62 -48 94 -119 94 -195zM408 91c95 0 160 62 160 160s-64 160 -161 160c-92 0 -159 -61 -159 -160c0 -98 65 -160 160 -160zM447 695
c24 -6 46 -10 57 -10c27 0 38 7 54 37h80c-4 -93 -47 -140 -127 -140c-32 0 -87 13 -134 25c-21 5 -46 12 -66 12c-25 0 -36 -6 -53 -37h-80c4 93 47 140 127 140c35 0 94 -15 142 -27z" />
    <glyph glyph-name="odieresis" unicode="&#xf6;" horiz-adv-x="816" 
d="M772 251c0 -137 -101 -270 -364 -270c-255 0 -364 126 -364 270c0 73 30 142 86 189c62 52 155 81 278 81s209 -28 270 -75c62 -48 94 -119 94 -195zM408 91c95 0 160 62 160 160s-64 160 -161 160c-92 0 -159 -61 -159 -160c0 -98 65 -160 160 -160zM196 722h158v-140
h-158v140zM462 722h158v-140h-158v140z" />
    <glyph glyph-name="omacron" unicode="&#x14d;" horiz-adv-x="816" 
d="M772 251c0 -137 -101 -270 -364 -270c-255 0 -364 126 -364 270c0 73 30 142 86 189c62 52 155 81 278 81s209 -28 270 -75c62 -48 94 -119 94 -195zM408 91c95 0 160 62 160 160s-64 160 -161 160c-92 0 -159 -61 -159 -160c0 -98 65 -160 160 -160zM193 701h428v-98
h-428v98z" />
    <glyph glyph-name="obreve" unicode="&#x14f;" horiz-adv-x="816" 
d="M772 251c0 -137 -101 -270 -364 -270c-255 0 -364 126 -364 270c0 73 30 142 86 189c62 52 155 81 278 81s209 -28 270 -75c62 -48 94 -119 94 -195zM408 91c95 0 160 62 160 160s-64 160 -161 160c-92 0 -159 -61 -159 -160c0 -98 65 -160 160 -160zM208 722h86
c17 -39 42 -62 113 -62s96 23 113 62h86c-19 -106 -86 -148 -200 -148c-113 0 -180 44 -198 148z" />
    <glyph glyph-name="ohungarumlaut" unicode="&#x151;" horiz-adv-x="816" 
d="M772 251c0 -137 -101 -270 -364 -270c-255 0 -364 126 -364 270c0 73 30 142 86 189c62 52 155 81 278 81s209 -28 270 -75c62 -48 94 -119 94 -195zM408 91c95 0 160 62 160 160s-64 160 -161 160c-92 0 -159 -61 -159 -160c0 -98 65 -160 160 -160zM286 722h210
l-164 -140h-158zM594 722h210l-164 -140h-158z" />
    <glyph glyph-name="oslash" unicode="&#xf8;" horiz-adv-x="816" 
d="M666 588l49 -43l-69 -77c81 -47 126 -125 126 -216c0 -149 -114 -271 -364 -271c-71 0 -127 10 -175 26l-83 -93l-49 43l69 77c-83 48 -126 128 -126 216c0 154 121 271 361 271c75 0 130 -9 178 -26zM277 153l213 239c-23 12 -50 19 -83 19c-93 0 -159 -61 -159 -160
c0 -40 10 -73 29 -98zM539 349l-213 -238c21 -12 51 -20 82 -20c95 0 160 62 160 160c0 40 -11 73 -29 98z" />
    <glyph glyph-name="oslashacute" unicode="&#x1ff;" horiz-adv-x="816" 
d="M417 722h210l-164 -140h-158zM666 588l49 -43l-69 -77c81 -47 126 -125 126 -216c0 -149 -114 -271 -364 -271c-71 0 -127 10 -175 26l-83 -93l-49 43l69 77c-83 48 -126 128 -126 216c0 154 121 271 361 271c75 0 130 -9 178 -26zM277 153l213 239c-23 12 -50 19 -83 19
c-93 0 -159 -61 -159 -160c0 -40 10 -73 29 -98zM539 349l-213 -238c21 -12 51 -20 82 -20c95 0 160 62 160 160c0 40 -11 73 -29 98z" />
    <glyph glyph-name="oe" unicode="&#x153;" horiz-adv-x="1185" 
d="M603 442c55 51 124 79 217 79c204 0 320 -105 321 -308h-445c5 -87 55 -128 131 -128c57 0 97 26 108 69h198c-10 -113 -131 -173 -286 -173c-107 0 -186 30 -234 85c-61 -61 -141 -85 -245 -85c-190 0 -324 104 -324 270c0 165 132 270 325 270c104 0 161 -23 234 -79z
M698 317h243c-8 59 -55 100 -126 100c-59 0 -110 -43 -117 -100zM384 91c84 0 136 64 136 160c0 95 -50 160 -137 160c-83 0 -135 -64 -135 -160s52 -160 136 -160z" />
    <glyph glyph-name="racute" unicode="&#x155;" horiz-adv-x="519" 
d="M494 509v-164c-20 3 -32 4 -49 4c-109 0 -172 -62 -172 -157v-192h-192v408c0 13 -1 57 -4 94h186c3 -33 4 -61 4 -108h2c43 89 94 115 213 115h12zM257 722h210l-164 -140h-158z" />
    <glyph glyph-name="rcaron" unicode="&#x159;" horiz-adv-x="519" 
d="M494 509v-164c-20 3 -32 4 -49 4c-109 0 -172 -62 -172 -157v-192h-192v408c0 13 -1 57 -4 94h186c3 -33 4 -61 4 -108h2c43 89 94 115 213 115h12zM12 722h158l75 -78l75 78h158l-129 -140h-207z" />
    <glyph glyph-name="rcommaaccent" unicode="&#x157;" horiz-adv-x="519" 
d="M494 509v-164c-20 3 -32 4 -49 4c-109 0 -172 -62 -172 -157v-192h-192v408c0 13 -1 57 -4 94h186c3 -33 4 -61 4 -108h2c43 89 94 115 213 115h12zM118 -50h182l-132 -160h-118z" />
    <glyph glyph-name="sacute" unicode="&#x15b;" horiz-adv-x="667" 
d="M332 521c189 0 277 -45 281 -168h-192c-5 33 -12 64 -92 64c-40 0 -73 -17 -73 -44c0 -25 24 -41 71 -49l136 -22c120 -19 162 -66 162 -152c0 -111 -102 -169 -306 -169c-191 0 -270 57 -277 176h198c1 -48 24 -72 87 -72c67 0 100 19 100 55c0 27 -25 42 -73 51
c-82 15 -163 22 -206 39c-56 22 -90 62 -90 123c0 109 97 168 274 168zM325 722h210l-164 -140h-158z" />
    <glyph glyph-name="scircumflex" unicode="&#x15d;" horiz-adv-x="667" 
d="M332 521c189 0 277 -45 281 -168h-192c-5 33 -12 64 -92 64c-40 0 -73 -17 -73 -44c0 -25 24 -41 71 -49l136 -22c120 -19 162 -66 162 -152c0 -111 -102 -169 -306 -169c-191 0 -270 57 -277 176h198c1 -48 24 -72 87 -72c67 0 100 19 100 55c0 27 -25 42 -73 51
c-82 15 -163 22 -206 39c-56 22 -90 62 -90 123c0 109 97 168 274 168zM229 722h207l130 -140h-158l-75 78l-75 -78h-158z" />
    <glyph glyph-name="scaron" unicode="&#x161;" horiz-adv-x="667" 
d="M332 521c189 0 277 -45 281 -168h-192c-5 33 -12 64 -92 64c-40 0 -73 -17 -73 -44c0 -25 24 -41 71 -49l136 -22c120 -19 162 -66 162 -152c0 -111 -102 -169 -306 -169c-191 0 -270 57 -277 176h198c1 -48 24 -72 87 -72c67 0 100 19 100 55c0 27 -25 42 -73 51
c-82 15 -163 22 -206 39c-56 22 -90 62 -90 123c0 109 97 168 274 168zM101 722h158l75 -78l75 78h158l-129 -140h-207z" />
    <glyph glyph-name="scedilla" unicode="&#x15f;" horiz-adv-x="667" 
d="M332 521c189 0 277 -45 281 -168h-192c-6 55 -42 64 -95 64c-35 0 -70 -17 -70 -44c0 -25 24 -41 71 -49l142 -23c123 -20 156 -73 156 -151c0 -100 -83 -158 -252 -167l-39 -38l2 -2c12 4 29 7 44 7c57 0 107 -33 107 -79c0 -56 -60 -82 -157 -82c-37 0 -88 6 -129 19
l22 53c32 -11 63 -16 94 -16c29 0 48 11 48 31c0 19 -22 30 -51 30c-15 0 -30 -2 -43 -6l-24 29l52 52c-165 5 -250 52 -257 176h198c2 -47 23 -72 87 -72c67 0 100 19 100 55c0 26 -24 43 -72 51c-83 14 -173 24 -213 42c-48 21 -84 55 -84 120c0 109 98 168 274 168z" />
    <glyph glyph-name="scommaaccent" unicode="&#x219;" horiz-adv-x="667" 
d="M332 521c189 0 277 -45 281 -168h-192c-5 33 -12 64 -92 64c-40 0 -73 -17 -73 -44c0 -25 24 -41 71 -49l136 -22c120 -19 162 -66 162 -152c0 -111 -102 -169 -306 -169c-191 0 -270 57 -277 176h198c1 -48 24 -72 87 -72c67 0 100 19 100 55c0 27 -25 42 -73 51
c-82 15 -163 22 -206 39c-56 22 -90 62 -90 123c0 109 97 168 274 168zM263 -50h182l-132 -160h-118z" />
    <glyph glyph-name="germandbls" unicode="&#xdf;" horiz-adv-x="889" 
d="M464 741c82 0 149 -10 200 -29c83 -31 125 -86 125 -146c0 -63 -39 -104 -131 -135c-63 -21 -87 -34 -87 -55c0 -26 36 -42 103 -64c118 -39 179 -82 179 -164c0 -120 -94 -167 -269 -167c-160 0 -257 40 -257 167h192c5 -47 23 -63 68 -63c43 0 68 19 68 50
c0 36 -33 55 -117 79c-137 39 -159 95 -159 153c0 73 40 115 135 147c65 22 89 34 89 58c0 31 -42 53 -129 53c-140 0 -207 -82 -207 -243v-382h-192v395c0 219 129 346 389 346z" />
    <glyph glyph-name="tcaron" unicode="&#x165;" horiz-adv-x="519" 
d="M331 674v-172h162v-122h-162v-162c0 -81 22 -102 87 -102c17 0 43 2 75 6v-122c-52 -9 -92 -12 -129 -12c-152 0 -225 62 -225 176v216h-123v122h123v102zM432 722h182l-122 -160h-118z" />
    <glyph glyph-name="tcommaaccent" unicode="&#x163;" horiz-adv-x="519" 
d="M331 674v-172h162v-122h-162v-162c0 -81 22 -102 87 -102c17 0 43 2 75 6v-122c-52 -9 -92 -12 -129 -12c-152 0 -225 62 -225 176v216h-123v122h123v102zM195 -50h182l-132 -160h-118z" />
    <glyph glyph-name="uni021B" unicode="&#x21b;" horiz-adv-x="519" 
d="M331 674v-172h162v-122h-162v-162c0 -81 22 -102 87 -102c17 0 43 2 75 6v-122c-52 -9 -92 -12 -129 -12c-152 0 -225 62 -225 176v216h-123v122h123v102zM195 -50h182l-132 -160h-118z" />
    <glyph glyph-name="tbar" unicode="&#x167;" horiz-adv-x="519" 
d="M331 674v-172h162v-122h-162v-48h147v-122h-147c0 -69 21 -94 86 -94c17 0 44 2 76 6v-122c-52 -9 -92 -12 -129 -12c-162 0 -225 69 -225 181v41h-123v122h123v48h-123v122h123v102z" />
    <glyph glyph-name="thorn" unicode="&#xfe;" horiz-adv-x="815" 
d="M81 722h192v-297h2c52 68 122 96 217 96c166 0 279 -108 279 -273c0 -163 -113 -267 -284 -267c-86 0 -157 26 -214 85v-258h-192v914zM422 97c88 0 145 66 145 151c0 90 -53 157 -146 157c-87 0 -148 -62 -148 -150c0 -95 60 -158 149 -158z" />
    <glyph glyph-name="ugrave" unicode="&#xf9;" horiz-adv-x="815" 
d="M81 502h192v-260c0 -83 41 -133 122 -133c87 0 147 72 147 168v225h192v-408c0 -15 1 -57 4 -94h-186c-1 5 -4 64 -4 90h-2c-50 -67 -125 -109 -213 -109c-167 0 -252 88 -252 233v288zM195 722h210l112 -140h-158z" />
    <glyph glyph-name="uacute" unicode="&#xfa;" horiz-adv-x="815" 
d="M81 502h192v-260c0 -83 41 -133 122 -133c87 0 147 72 147 168v225h192v-408c0 -15 1 -57 4 -94h-186c-1 5 -4 64 -4 90h-2c-50 -67 -125 -109 -213 -109c-167 0 -252 88 -252 233v288zM411 722h210l-164 -140h-158z" />
    <glyph glyph-name="ucircumflex" unicode="&#xfb;" horiz-adv-x="815" 
d="M81 502h192v-260c0 -83 41 -133 122 -133c87 0 147 72 147 168v225h192v-408c0 -15 1 -57 4 -94h-186c-1 5 -4 64 -4 90h-2c-50 -67 -125 -109 -213 -109c-167 0 -252 88 -252 233v288zM304 722h207l130 -140h-158l-75 78l-75 -78h-158z" />
    <glyph glyph-name="utilde" unicode="&#x169;" horiz-adv-x="815" 
d="M81 502h192v-260c0 -83 41 -133 122 -133c87 0 147 72 147 168v225h192v-408c0 -15 1 -57 4 -94h-186c-1 5 -4 64 -4 90h-2c-50 -67 -125 -109 -213 -109c-167 0 -252 88 -252 233v288zM444 695c24 -6 46 -10 57 -10c27 0 38 7 54 37h80c-4 -93 -47 -140 -127 -140
c-32 0 -87 13 -134 25c-21 5 -46 12 -66 12c-25 0 -36 -6 -53 -37h-80c4 93 47 140 127 140c35 0 94 -15 142 -27z" />
    <glyph glyph-name="udieresis" unicode="&#xfc;" horiz-adv-x="815" 
d="M81 502h192v-260c0 -83 41 -133 122 -133c87 0 147 72 147 168v225h192v-408c0 -15 1 -57 4 -94h-186c-1 5 -4 64 -4 90h-2c-50 -67 -125 -109 -213 -109c-167 0 -252 88 -252 233v288zM196 722h158v-140h-158v140zM462 722h158v-140h-158v140z" />
    <glyph glyph-name="umacron" unicode="&#x16b;" horiz-adv-x="815" 
d="M81 502h192v-260c0 -83 41 -133 122 -133c87 0 147 72 147 168v225h192v-408c0 -15 1 -57 4 -94h-186c-1 5 -4 64 -4 90h-2c-50 -67 -125 -109 -213 -109c-167 0 -252 88 -252 233v288zM191 701h428v-98h-428v98z" />
    <glyph glyph-name="ubreve" unicode="&#x16d;" horiz-adv-x="815" 
d="M81 502h192v-260c0 -83 41 -133 122 -133c87 0 147 72 147 168v225h192v-408c0 -15 1 -57 4 -94h-186c-1 5 -4 64 -4 90h-2c-50 -67 -125 -109 -213 -109c-167 0 -252 88 -252 233v288zM206 722h86c17 -39 42 -62 113 -62s96 23 113 62h86c-19 -106 -86 -148 -200 -148
c-113 0 -180 44 -198 148z" />
    <glyph glyph-name="uring" unicode="&#x16f;" horiz-adv-x="815" 
d="M81 502h192v-260c0 -83 41 -133 122 -133c87 0 147 72 147 168v225h192v-408c0 -15 1 -57 4 -94h-186c-1 5 -4 64 -4 90h-2c-50 -67 -125 -109 -213 -109c-167 0 -252 88 -252 233v288zM547 650c0 -70 -43 -105 -142 -105s-142 34 -142 105c0 68 49 105 142 105
s142 -37 142 -105zM405 595c33 0 56 24 56 55c0 32 -24 55 -56 55c-33 0 -56 -24 -56 -55s23 -55 56 -55z" />
    <glyph glyph-name="uhungarumlaut" unicode="&#x171;" horiz-adv-x="815" 
d="M81 502h192v-260c0 -83 41 -133 122 -133c87 0 147 72 147 168v225h192v-408c0 -15 1 -57 4 -94h-186c-1 5 -4 64 -4 90h-2c-50 -67 -125 -109 -213 -109c-167 0 -252 88 -252 233v288zM270 722h210l-164 -140h-158zM578 722h210l-164 -140h-158z" />
    <glyph glyph-name="uogonek" unicode="&#x173;" horiz-adv-x="815" 
d="M81 502h192v-260c0 -83 41 -133 122 -133c88 0 147 73 147 168v225h192v-408c0 -15 1 -58 4 -94h-41c-73 -43 -110 -79 -110 -114c0 -24 19 -41 53 -41c17 0 40 3 60 10l17 -49c-37 -11 -86 -17 -121 -17c-91 0 -131 28 -131 77c0 51 51 101 135 134h-48
c-3 39 -4 69 -4 90h-2c-50 -67 -125 -109 -213 -109c-169 0 -252 90 -252 234v287z" />
    <glyph glyph-name="wacute" unicode="&#x1e83;" horiz-adv-x="1185" 
d="M15 502h216l119 -374h2l132 374h237l134 -374h2l129 374h184l-212 -502h-225l-140 386h-2l-139 -386h-225zM605 722h210l-164 -140h-158z" />
    <glyph glyph-name="wcircumflex" unicode="&#x175;" horiz-adv-x="1185" 
d="M15 502h216l119 -374h2l132 374h237l134 -374h2l129 374h184l-212 -502h-225l-140 386h-2l-139 -386h-225zM489 722h207l130 -140h-158l-75 78l-75 -78h-158z" />
    <glyph glyph-name="wdieresis" unicode="&#x1e85;" horiz-adv-x="1185" 
d="M15 502h216l119 -374h2l132 374h237l134 -374h2l129 374h184l-212 -502h-225l-140 386h-2l-139 -386h-225zM381 722h158v-140h-158v140zM647 722h158v-140h-158v140z" />
    <glyph glyph-name="wgrave" unicode="&#x1e81;" horiz-adv-x="1185" 
d="M15 502h216l119 -374h2l132 374h237l134 -374h2l129 374h184l-212 -502h-225l-140 386h-2l-139 -386h-225zM376 722h210l112 -140h-158z" />
    <glyph glyph-name="yacute" unicode="&#xfd;" horiz-adv-x="741" 
d="M15 502h224l144 -345l154 345h189l-358 -694h-204l109 192zM374 722h210l-164 -140h-158z" />
    <glyph glyph-name="ycircumflex" unicode="&#x177;" horiz-adv-x="741" 
d="M15 502h224l144 -345l154 345h189l-358 -694h-204l109 192zM279 722h207l130 -140h-158l-75 78l-75 -78h-158z" />
    <glyph glyph-name="ydieresis" unicode="&#xff;" horiz-adv-x="741" 
d="M15 502h224l144 -345l154 345h189l-358 -694h-204l109 192zM159 722h158v-140h-158v140zM425 722h158v-140h-158v140z" />
    <glyph glyph-name="ygrave" unicode="&#x1ef3;" horiz-adv-x="741" 
d="M15 502h224l144 -345l154 345h189l-358 -694h-204l109 192zM164 722h210l112 -140h-158z" />
    <glyph glyph-name="zacute" unicode="&#x17a;" horiz-adv-x="667" 
d="M77 502h513v-134l-315 -250v-2h340v-116h-563v148l302 236v2h-277v116zM332 722h210l-164 -140h-158z" />
    <glyph glyph-name="zcaron" unicode="&#x17e;" horiz-adv-x="667" 
d="M77 502h513v-134l-315 -250v-2h340v-116h-563v148l302 236v2h-277v116zM101 722h158l75 -78l75 78h158l-129 -140h-207z" />
    <glyph glyph-name="zdotaccent" unicode="&#x17c;" horiz-adv-x="667" 
d="M77 502h513v-134l-315 -250v-2h340v-116h-563v148l302 236v2h-277v116zM250 722h158v-140h-158v140z" />
    <glyph glyph-name="grave.cap" 
d="M-28 913h210l112 -140h-158z" />
    <glyph glyph-name="acute" unicode="&#xb4;" 
d="M188 722h210l-164 -140h-158z" />
    <glyph glyph-name="acute.cap" 
d="M188 913h210l-164 -140h-158z" />
    <glyph glyph-name="circumflex" unicode="&#x2c6;" 
d="M81 722h207l130 -140h-158l-75 78l-75 -78h-158z" />
    <glyph glyph-name="circumflex.cap" 
d="M81 913h207l130 -140h-158l-75 78l-75 -78h-158z" />
    <glyph glyph-name="caron" unicode="&#x2c7;" 
d="M-48 722h158l75 -78l75 78h158l-129 -140h-207z" />
    <glyph glyph-name="caron.cap" 
d="M-48 913h158l75 -78l75 78h158l-129 -140h-207z" />
    <glyph glyph-name="caron.alt" 
d="M124 722h182l-122 -160h-118z" />
    <glyph glyph-name="tilde" unicode="&#x2dc;" 
d="M224 695c24 -6 46 -10 57 -10c27 0 38 7 54 37h80c-4 -93 -47 -140 -127 -140c-32 0 -87 13 -134 25c-21 5 -46 12 -66 12c-25 0 -36 -6 -53 -37h-80c4 93 47 140 127 140c35 0 94 -15 142 -27z" />
    <glyph glyph-name="tilde.cap" 
d="M228 885c24 -6 42 -9 53 -9c27 0 39 8 54 37h80c-4 -93 -47 -140 -127 -140c-32 0 -87 13 -134 25c-21 5 -46 12 -66 12c-25 0 -36 -6 -53 -37h-80c4 93 47 140 127 140c35 0 98 -16 146 -28z" />
    <glyph glyph-name="dieresis" unicode="&#xa8;" 
d="M-27 722h158v-140h-158v140zM239 722h158v-140h-158v140z" />
    <glyph glyph-name="dieresis.cap" 
d="M-27 913h158v-140h-158v140zM239 913h158v-140h-158v140z" />
    <glyph glyph-name="macron" unicode="&#xaf;" 
d="M-29 701h428v-98h-428v98z" />
    <glyph glyph-name="macron.cap" 
d="M-29 892h428v-98h-428v98z" />
    <glyph glyph-name="uni02C9" unicode="&#x2c9;" 
d="M-29 701h428v-98h-428v98z" />
    <glyph glyph-name="breve" unicode="&#x2d8;" 
d="M-14 722h86c17 -39 42 -62 113 -62s96 23 113 62h86c-19 -106 -86 -148 -200 -148c-113 0 -180 44 -198 148z" />
    <glyph glyph-name="breve.cap" 
d="M-14 913h86c17 -39 42 -62 113 -62s96 23 113 62h86c-19 -106 -86 -148 -200 -148c-113 0 -180 44 -198 148z" />
    <glyph glyph-name="ring" unicode="&#x2da;" 
d="M327 650c0 -70 -43 -105 -142 -105s-142 34 -142 105c0 68 49 105 142 105s142 -37 142 -105zM185 595c33 0 56 24 56 55c0 32 -24 55 -56 55c-33 0 -56 -24 -56 -55s23 -55 56 -55z" />
    <glyph glyph-name="ring.cap" 
d="M327 834c0 -71 -43 -105 -142 -105s-142 34 -142 105c0 68 49 105 142 105s142 -37 142 -105zM185 779c33 0 56 24 56 55s-24 55 -56 55c-33 0 -56 -24 -56 -55s24 -55 56 -55z" />
    <glyph glyph-name="hungarumlaut" unicode="&#x2dd;" 
d="M34 722h210l-164 -140h-158zM342 722h210l-164 -140h-158z" />
    <glyph glyph-name="hungarumlaut.cap" 
d="M34 913h210l-164 -140h-158zM342 913h210l-164 -140h-158z" />
    <glyph glyph-name="dotaccent" unicode="&#x2d9;" 
d="M106 722h158v-140h-158v140z" />
    <glyph glyph-name="dotaccent.cap" 
d="M106 913h158v-140h-158v140z" />
    <glyph glyph-name="cedilla" unicode="&#xb8;" 
d="M168 9h74l-67 -64l2 -2c12 4 29 7 44 7c57 0 107 -33 107 -79c0 -56 -60 -82 -157 -82c-37 0 -91 6 -129 19l22 53c30 -10 65 -16 94 -16s48 10 48 31c0 18 -20 30 -51 30c-16 0 -31 -2 -43 -6l-24 29z" />
    <glyph glyph-name="ogonek" unicode="&#x2db;" 
d="M171 0h97c-75 -44 -110 -80 -110 -114c0 -23 18 -41 53 -41c17 0 39 3 60 10l17 -49c-37 -11 -88 -17 -121 -17c-91 0 -131 28 -131 77c0 50 50 101 135 134z" />
    <glyph glyph-name="commaaccent" 
d="M124 -50h182l-132 -160h-118z" />
    <glyph glyph-name="commaaccent.alt" 
d="M184 741h118l-68 -160h-182z" />
    <glyph glyph-name="ellipsis" unicode="&#x2026;" horiz-adv-x="1000" 
d="M74 154h186v-154h-186v154zM407 154h186v-154h-186v154zM740 154h186v-154h-186v154z" />
    <glyph glyph-name="uni00AD" unicode="&#xad;" horiz-adv-x="444" 
d="M66 331h312v-128h-312v128z" />
    <glyph glyph-name="exclamdown" unicode="&#xa1;" horiz-adv-x="520" 
d="M167 530h186v-154h-186v154zM181 317h158l32 -509h-222z" />
    <glyph glyph-name="questiondown" unicode="&#xbf;" horiz-adv-x="741" 
d="M306 530h186v-154h-186v154zM309 317h180c-6 -75 -6 -101 -24 -128c-19 -28 -67 -60 -118 -94c-49 -32 -84 -66 -84 -97c0 -48 62 -75 155 -75c57 0 135 11 184 30v-140c-69 -15 -148 -24 -215 -24c-208 0 -328 69 -328 199c0 55 27 101 75 143c24 21 51 38 89 59
s57 36 68 53s17 41 18 74z" />
    <glyph glyph-name="quoteleft" unicode="&#x2018;" 
d="M176 722h146l-82 -240h-192z" />
    <glyph glyph-name="quoteright" unicode="&#x2019;" 
d="M130 722h192l-128 -240h-146z" />
    <glyph glyph-name="quotedblleft" unicode="&#x201c;" horiz-adv-x="667" 
d="M199 722h146l-82 -240h-192zM450 722h146l-82 -240h-192z" />
    <glyph glyph-name="quotedblright" unicode="&#x201d;" horiz-adv-x="667" 
d="M153 722h192l-128 -240h-146zM404 722h192l-128 -240h-146z" />
    <glyph glyph-name="quotesinglbase" unicode="&#x201a;" 
d="M130 154h192l-128 -240h-146z" />
    <glyph glyph-name="quotedblbase" unicode="&#x201e;" horiz-adv-x="667" 
d="M153 154h192l-128 -240h-146zM404 154h192l-128 -240h-146z" />
    <glyph glyph-name="guilsinglleft" unicode="&#x2039;" 
d="M156 462h166l-117 -195l117 -195h-166l-122 195z" />
    <glyph glyph-name="guilsinglright" unicode="&#x203a;" 
d="M48 462h166l122 -195l-122 -195h-166l117 195z" />
    <glyph glyph-name="guillemotleft" unicode="&#xab;" horiz-adv-x="667" 
d="M170 462h166l-117 -195l117 -195h-166l-122 195zM429 462h166l-117 -195l117 -195h-166l-122 195z" />
    <glyph glyph-name="guillemotright" unicode="&#xbb;" horiz-adv-x="667" 
d="M72 462h166l122 -195l-122 -195h-166l117 195zM331 462h166l122 -195l-122 -195h-166l117 195z" />
    <glyph glyph-name="endash" unicode="&#x2013;" horiz-adv-x="500" 
d="M0 325h500v-116h-500v116z" />
    <glyph glyph-name="emdash" unicode="&#x2014;" horiz-adv-x="1000" 
d="M0 325h1000v-116h-1000v116z" />
    <glyph glyph-name="bullet" unicode="&#x2022;" horiz-adv-x="500" 
d="M431 361c0 -102 -83 -181 -181 -181s-181 79 -181 181c0 104 85 181 181 181c98 0 181 -79 181 -181z" />
    <glyph glyph-name="periodcentered" unicode="&#xb7;" 
d="M305 241c0 -66 -54 -120 -120 -120s-120 54 -120 120c0 68 56 120 120 120s120 -52 120 -120z" />
    <glyph glyph-name="uni2219" unicode="&#x2219;" 
d="M305 241c0 -66 -54 -120 -120 -120s-120 54 -120 120c0 68 56 120 120 120s120 -52 120 -120z" />
    <glyph glyph-name="dagger" unicode="&#x2020;" horiz-adv-x="668" 
d="M238 722h192v-164h187v-140h-187v-418h-192v418h-187v140h187v164z" />
    <glyph glyph-name="daggerdbl" unicode="&#x2021;" horiz-adv-x="668" 
d="M241 722h186v-144h190v-134h-190v-166h190v-134h-190v-144h-186v144h-190v134h190v166h-190v134h190v144z" />
    <glyph glyph-name="section" unicode="&#xa7;" horiz-adv-x="741" 
d="M621 691v-134c-73 34 -188 62 -247 62c-47 0 -65 -12 -65 -35c0 -19 23 -35 68 -48l132 -38c129 -37 167 -81 167 -135c0 -57 -35 -96 -138 -129v-2c67 -12 123 -75 123 -132c0 -101 -84 -154 -267 -154c-103 0 -204 24 -296 54v140c82 -41 197 -72 267 -72
c68 0 86 13 86 41c0 21 -17 36 -61 47l-133 32c-159 38 -192 96 -192 146c0 64 43 106 154 140v2c-84 29 -120 67 -120 122c0 91 73 143 252 143c76 0 150 -12 270 -50zM411 290c20 6 61 29 61 59c0 26 -28 42 -85 58c-27 8 -45 13 -49 13c-12 -2 -69 -26 -69 -60
c0 -27 41 -46 80 -56c30 -8 50 -14 62 -14z" />
    <glyph glyph-name="paragraph" unicode="&#xb6;" horiz-adv-x="620" 
d="M258 722h320v-757h-134v653h-69v-653h-134v408c-144 0 -223 63 -223 171c0 121 76 178 240 178z" />
    <glyph glyph-name="brokenbar" unicode="&#xa6;" horiz-adv-x="222" 
d="M44 741h134v-293h-134v293zM44 274h134v-293h-134v293z" />
    <glyph glyph-name="copyright" unicode="&#xa9;" horiz-adv-x="800" 
d="M400 741c214 0 380 -174 380 -380s-166 -380 -380 -380s-380 174 -380 380s166 380 380 380zM148 361c0 -144 110 -258 252 -258s252 114 252 258c0 142 -108 258 -253 258c-139 0 -251 -112 -251 -258zM403 572c95 0 163 -55 179 -151h-98c-8 40 -35 59 -78 59
c-56 0 -89 -44 -89 -119c0 -70 36 -119 88 -119c41 0 75 20 79 65h104c-16 -97 -87 -157 -183 -157c-117 0 -204 86 -204 211c0 124 80 211 202 211z" />
    <glyph glyph-name="registered" unicode="&#xae;" horiz-adv-x="800" 
d="M400 741c206 0 380 -167 380 -380c0 -214 -174 -380 -380 -380s-380 166 -380 380s174 380 380 380zM148 361c0 -144 110 -258 252 -258s252 114 252 258c0 148 -113 258 -253 258c-139 0 -251 -113 -251 -258zM250 564h154c113 0 166 -35 166 -122
c0 -61 -33 -100 -86 -106l80 -158h-99l-77 153h-46v-153h-92v386zM342 405h74c33 0 56 11 56 43c0 31 -26 42 -63 42h-67v-85z" />
    <glyph glyph-name="trademark" unicode="&#x2122;" horiz-adv-x="1000" 
d="M27 722h344v-92h-105v-320h-134v320h-105v92zM459 722h170l80 -239h2l80 239h170v-412h-122v230h-2l-75 -230h-104l-75 230h-2v-230h-122v412z" />
    <glyph glyph-name="currency" unicode="&#xa4;" horiz-adv-x="740" 
d="M168 608l60 -59c39 31 89 48 142 48s105 -17 142 -48l60 59l59 -59l-60 -57c31 -41 47 -91 47 -143c0 -53 -16 -103 -47 -143l60 -57l-59 -59l-60 59c-38 -31 -89 -48 -142 -48s-106 18 -142 48l-60 -59l-59 59l60 57c-31 39 -47 90 -47 143c0 52 16 102 47 143l-60 57z
M370 211c73 0 126 61 126 138c0 79 -54 138 -126 138s-126 -59 -126 -138c0 -78 54 -138 126 -138z" />
    <glyph glyph-name="Euro" unicode="&#x20ac;" horiz-adv-x="740" 
d="M428 717c184 0 298 -74 299 -207h-203c-7 41 -46 65 -101 65c-69 0 -107 -37 -126 -105h240l-35 -89h-219v-53h198l-35 -89h-151c13 -75 64 -115 128 -115c55 0 98 28 101 73h203c-7 -138 -93 -216 -327 -216c-168 0 -280 94 -311 258h-88l35 89h43c0 19 0 37 1 53h-79
l35 89h55c33 161 148 247 337 247z" />
    <glyph glyph-name="cent" unicode="&#xa2;" horiz-adv-x="740" 
d="M431 519l38 114h58l-40 -121c127 -25 193 -92 204 -188h-198c-6 35 -21 58 -44 72l-100 -301c9 -3 21 -4 33 -4c65 0 109 33 111 97h204c-15 -136 -135 -207 -327 -207c-20 0 -37 1 -58 3l-38 -115h-58l42 125c-139 35 -214 124 -214 255c0 87 30 154 90 201
s143 71 248 71c17 0 33 -1 49 -2zM299 119l96 291c-4 1 -9 1 -14 1c-83 0 -133 -64 -133 -159c0 -55 15 -102 51 -133z" />
    <glyph glyph-name="sterling" unicode="&#xa3;" horiz-adv-x="740" 
d="M437 741c180 0 270 -61 275 -185h-204c-2 45 -27 69 -74 69c-59 0 -87 -48 -87 -137v-46h167v-134h-167v-168h359v-140h-639v140h82v168h-97v134h97v41c0 65 9 110 27 147c36 73 109 111 261 111z" />
    <glyph glyph-name="florin" unicode="&#x192;" horiz-adv-x="740" 
d="M529 741c30 0 37 0 134 -10l-19 -110c-9 0 -42 4 -62 4c-82 0 -98 -46 -104 -123h156l-17 -122h-157l-62 -382c-23 -142 -78 -189 -244 -190c-21 0 -77 3 -124 7l19 109l39 1c99 3 107 25 123 129l51 326h-149l18 122h149c9 75 17 112 28 137c30 66 71 102 221 102z" />
    <glyph glyph-name="yen" unicode="&#xa5;" horiz-adv-x="740" 
d="M12 722h216l152 -308l153 308h195l-190 -328h104v-98h-161l-23 -39v-32h184v-98h-184v-127h-176v127h-184v98h184v32l-23 39h-161v98h104z" />
    <glyph glyph-name="ordfeminine" unicode="&#xaa;" horiz-adv-x="482" 
d="M234 717c152 0 206 -46 206 -130v-138c0 -17 2 -35 3 -52h-137v49h-2c-23 -39 -72 -59 -140 -59c-88 0 -145 36 -145 97c0 73 59 110 206 110h81c0 43 -27 55 -72 55c-40 0 -56 -14 -57 -30h-134c2 60 75 98 191 98zM159 490c0 -19 13 -30 52 -30c57 0 94 26 95 66h-45
c-84 0 -102 -15 -102 -36z" />
    <glyph glyph-name="ordmasculine" unicode="&#xba;" horiz-adv-x="530" 
d="M265 717c152 0 239 -64 239 -162c0 -104 -84 -168 -239 -168c-153 0 -239 62 -239 165c0 98 82 165 239 165zM166 552c0 -58 38 -91 99 -91s99 34 99 91c0 55 -37 91 -100 91c-59 0 -98 -34 -98 -91z" />
    <glyph glyph-name="onesuperior" unicode="&#xb9;" horiz-adv-x="481" 
d="M228 706h111v-421h-134v304c-53 -30 -71 -36 -129 -53v104c37 10 83 29 152 66z" />
    <glyph glyph-name="twosuperior" unicode="&#xb2;" horiz-adv-x="481" 
d="M239 717c127 0 206 -50 206 -134c0 -80 -96 -156 -233 -204v-2h233v-92h-409v92l107 57c115 61 162 104 162 146c0 33 -25 51 -60 51c-40 0 -65 -18 -68 -55h-134c0 92 69 141 196 141z" />
    <glyph glyph-name="threesuperior" unicode="&#xb3;" horiz-adv-x="481" 
d="M237 717c129 0 205 -47 205 -116c0 -50 -34 -84 -114 -97v-2c81 -7 123 -45 123 -104c0 -80 -78 -124 -211 -124c-151 0 -210 47 -210 140h140c0 -37 20 -54 67 -54c43 0 74 18 74 46c0 35 -20 53 -80 53h-28v86h32c39 0 67 16 67 46c0 28 -29 40 -66 40
c-31 0 -55 -13 -59 -42h-134c2 83 67 128 194 128z" />
    <glyph glyph-name="fraction" unicode="&#x2044;" horiz-adv-x="222" 
d="M277 753h110l-442 -808h-110z" />
    <glyph glyph-name="uni2215" unicode="&#x2215;" horiz-adv-x="222" 
d="M277 753h110l-442 -808h-110z" />
    <glyph glyph-name="onehalf" unicode="&#xbd;" horiz-adv-x="1111" 
d="M654 753h110l-442 -808h-110zM223 706h111v-421h-134v304c-53 -30 -71 -36 -129 -53v104c37 10 83 29 152 66zM834 432c127 0 206 -50 206 -134c0 -80 -96 -156 -233 -204v-2h233v-92h-409v92l107 57c115 61 162 104 162 146c0 33 -25 51 -60 51c-40 0 -65 -18 -68 -55
h-134c0 92 69 141 196 141z" />
    <glyph glyph-name="onethird" unicode="&#x2153;" horiz-adv-x="1111" 
d="M650 753h110l-442 -808h-110zM219 706h111v-421h-134v304c-53 -30 -71 -36 -129 -53v104c37 10 83 29 152 66zM830 431c129 0 205 -47 205 -116c0 -50 -34 -84 -114 -97v-2c81 -7 123 -45 123 -104c0 -80 -78 -124 -211 -124c-151 0 -210 47 -210 140h140
c0 -37 20 -54 67 -54c43 0 74 18 74 46c0 35 -20 53 -80 53h-28v86h32c39 0 67 16 67 46c0 28 -29 40 -66 40c-31 0 -55 -13 -59 -42h-134c2 83 67 128 194 128z" />
    <glyph glyph-name="onequarter" unicode="&#xbc;" horiz-adv-x="1111" 
d="M813 421h160v-252h76v-86h-76v-83h-128v83h-244v105zM843 335l-144 -164v-2h146v166h-2zM214 706h111v-421h-134v304c-53 -30 -71 -36 -129 -53v104c37 10 83 29 152 66zM675 753h110l-442 -808h-110z" />
    <glyph glyph-name="oneeighth" unicode="&#x215b;" horiz-adv-x="1111" 
d="M854 435c117 0 190 -42 190 -121c0 -51 -32 -81 -75 -96c64 -17 86 -51 86 -103c0 -82 -70 -126 -201 -126c-132 0 -201 45 -201 126c0 51 26 85 87 104c-49 16 -76 50 -76 95c0 79 73 121 190 121zM793 304c0 -31 26 -43 61 -43s61 12 61 43c0 30 -26 43 -61 43
c-32 0 -61 -11 -61 -43zM782 126c0 -32 27 -50 72 -50c44 0 72 18 72 50s-28 50 -73 50c-40 0 -71 -15 -71 -50zM207 706h111v-421h-134v304c-53 -30 -71 -36 -129 -53v104c37 10 83 29 152 66zM668 753h110l-442 -808h-110z" />
    <glyph glyph-name="twothirds" unicode="&#x2154;" horiz-adv-x="1111" 
d="M725 753h110l-442 -808h-110zM245 717c127 0 206 -50 206 -134c0 -80 -96 -156 -233 -204v-2h233v-92h-409v92l107 57c115 61 162 104 162 146c0 33 -25 51 -60 51c-40 0 -65 -18 -68 -55h-134c0 92 69 141 196 141zM855 431c129 0 205 -47 205 -116
c0 -50 -34 -84 -114 -97v-2c81 -7 123 -45 123 -104c0 -80 -78 -124 -211 -124c-151 0 -210 47 -210 140h140c0 -37 20 -54 67 -54c43 0 74 18 74 46c0 35 -20 53 -80 53h-28v86h32c39 0 67 16 67 46c0 28 -29 40 -66 40c-31 0 -55 -13 -59 -42h-134c2 83 67 128 194 128z
" />
    <glyph glyph-name="threequarters" unicode="&#xbe;" horiz-adv-x="1111" 
d="M836 421h160v-252h76v-86h-76v-83h-128v83h-244v105zM866 335l-144 -164v-2h146v166h-2zM246 717c129 0 205 -47 205 -116c0 -50 -34 -84 -114 -97v-2c81 -7 123 -45 123 -104c0 -80 -78 -124 -211 -124c-151 0 -210 47 -210 140h140c0 -37 20 -54 67 -54
c43 0 74 18 74 46c0 35 -20 53 -80 53h-28v86h32c39 0 67 16 67 46c0 28 -29 40 -66 40c-31 0 -55 -13 -59 -42h-134c2 83 67 128 194 128zM738 753h110l-442 -808h-110z" />
    <glyph glyph-name="threeeighths" unicode="&#x215c;" horiz-adv-x="1111" 
d="M877 435c117 0 190 -41 190 -121c0 -51 -33 -82 -75 -96c63 -17 86 -51 86 -103c0 -82 -70 -126 -201 -126c-132 0 -201 45 -201 126c0 51 26 85 87 104c-49 16 -76 49 -76 95c0 80 74 121 190 121zM816 304c0 -31 26 -43 61 -43s61 12 61 43c0 30 -26 43 -62 43
c-31 0 -60 -11 -60 -43zM805 126c0 -32 27 -50 72 -50c44 0 72 18 72 50c0 31 -26 50 -73 50c-40 0 -71 -16 -71 -50zM239 717c129 0 205 -47 205 -116c0 -50 -34 -84 -114 -97v-2c81 -7 123 -45 123 -104c0 -80 -78 -124 -211 -124c-151 0 -210 47 -210 140h140
c0 -37 20 -54 67 -54c43 0 74 18 74 46c0 35 -20 53 -80 53h-28v86h32c39 0 67 16 67 46c0 28 -29 40 -66 40c-31 0 -55 -13 -59 -42h-134c2 83 67 128 194 128zM731 753h110l-442 -808h-110z" />
    <glyph glyph-name="fiveeighths" unicode="&#x215d;" horiz-adv-x="1111" 
d="M710 753h110l-442 -808h-110zM78 711h326v-95h-213l-7 -77c27 20 59 32 98 32c89 0 156 -55 156 -145c0 -96 -73 -150 -194 -150c-131 0 -190 48 -190 133v3h129c3 -30 24 -49 55 -49c44 0 71 24 71 59c0 36 -25 62 -64 62c-28 0 -49 -13 -59 -37h-122zM856 435
c117 0 190 -41 190 -121c0 -51 -33 -82 -75 -96c64 -17 86 -52 86 -103c0 -82 -70 -126 -201 -126c-132 0 -201 45 -201 126c0 51 26 85 87 104c-49 16 -76 50 -76 95c0 80 73 121 190 121zM795 304c0 -31 26 -43 61 -43s61 12 61 43c0 30 -26 43 -62 43
c-31 0 -60 -11 -60 -43zM784 126c0 -31 27 -50 72 -50c44 0 72 18 72 50c0 31 -26 50 -73 50c-40 0 -71 -16 -71 -50z" />
    <glyph glyph-name="seveneighths" unicode="&#x215e;" horiz-adv-x="1111" 
d="M691 753h110l-442 -808h-110zM73 708h372v-99l-186 -325h-151l203 324h-238v100zM837 435c117 0 190 -42 190 -121c0 -51 -33 -82 -75 -96c64 -17 86 -52 86 -103c0 -82 -70 -126 -201 -126s-201 44 -201 126c0 51 26 85 87 104c-49 16 -76 50 -76 95
c0 80 73 121 190 121zM776 304c0 -31 26 -43 61 -43s61 12 61 43c0 30 -26 43 -62 43c-32 0 -60 -12 -60 -43zM765 126c0 -32 27 -50 72 -50c44 0 72 18 72 50c0 31 -26 50 -73 50c-40 0 -71 -16 -71 -50z" />
    <glyph glyph-name="perthousand" unicode="&#x2030;" horiz-adv-x="1333" 
d="M655 722h116l-546 -746h-116zM214 717c129 0 201 -60 201 -183c0 -116 -76 -183 -201 -183c-124 0 -201 66 -201 183c0 123 72 183 201 183zM135 534c0 -73 24 -109 79 -109s79 37 79 109c0 76 -24 109 -80 109c-49 0 -78 -27 -78 -109zM669 347c129 0 201 -60 201 -183
c0 -116 -76 -183 -201 -183s-201 67 -201 183c0 123 72 183 201 183zM1119 347c129 0 201 -60 201 -183c0 -117 -77 -183 -201 -183c-125 0 -201 67 -201 183c0 123 72 183 201 183zM590 164c0 -73 24 -109 79 -109s79 36 79 109c0 77 -24 109 -80 109
c-48 0 -78 -26 -78 -109zM1040 164c0 -75 26 -109 79 -109s79 34 79 109c0 77 -25 109 -79 109c-49 0 -79 -26 -79 -109z" />
    <glyph glyph-name="minus" unicode="&#x2212;" horiz-adv-x="600" 
d="M47 320h506v-134h-506v134z" />
    <glyph glyph-name="plusminus" unicode="&#xb1;" horiz-adv-x="600" 
d="M233 506h134v-106h186v-134h-186v-106h-134v106h-186v134h186v106zM47 134h506v-134h-506v134z" />
    <glyph glyph-name="multiply" unicode="&#xd7;" horiz-adv-x="600" 
d="M58 401l94 94l148 -149l148 149l94 -94l-149 -148l149 -148l-94 -94l-148 149l-148 -149l-94 94l149 148z" />
    <glyph glyph-name="divide" unicode="&#xf7;" horiz-adv-x="600" 
d="M300 554c48 0 89 -40 89 -89c0 -48 -40 -89 -89 -89s-89 41 -89 89c0 49 41 89 89 89zM47 320h506v-134h-506v134zM300 130c48 0 89 -40 89 -89c0 -48 -40 -89 -89 -89s-89 41 -89 89c0 49 41 89 89 89z" />
    <glyph glyph-name="notequal" unicode="&#x2260;" horiz-adv-x="600" 
d="M387 542l97 -48l-28 -52h97v-134h-170l-60 -110h230v-134h-303l-53 -99l-97 49l27 50h-80v134h153l60 110h-213v134h285z" />
    <glyph glyph-name="approxequal" unicode="&#x2248;" horiz-adv-x="600" 
d="M495 477l36 -108c-45 -67 -80 -88 -125 -88c-39 0 -69 17 -102 35s-70 35 -115 35c-36 0 -63 -25 -84 -72l-36 108c33 63 75 88 125 88c35 0 75 -18 138 -46c30 -14 57 -24 75 -24c29 0 53 17 88 72zM495 237l36 -108c-44 -65 -80 -88 -125 -88c-35 0 -71 17 -104 36
s-68 34 -113 34c-36 0 -63 -24 -84 -72l-36 108c32 61 73 88 125 88c37 0 83 -21 145 -49c30 -14 53 -21 68 -21c29 0 53 17 88 72z" />
    <glyph glyph-name="lessequal" unicode="&#x2264;" horiz-adv-x="600" 
d="M553 644v-134l-336 -107l336 -107v-134l-506 177v128zM47 134h506v-134h-506v134z" />
    <glyph glyph-name="greaterequal" unicode="&#x2265;" horiz-adv-x="600" 
d="M47 644l506 -177v-128l-506 -177v134l336 107l-336 107v134zM47 134h506v-134h-506v134z" />
    <glyph glyph-name="logicalnot" unicode="&#xac;" horiz-adv-x="600" 
d="M47 442h506v-316h-134v182h-372v134z" />
    <glyph glyph-name="Delta" unicode="&#x2206;" horiz-adv-x="718" 
d="M250 680h223l233 -591v-89h-694v88zM357 569h-4c-16 -41 -31 -82 -48 -122l-137 -319h370l-141 334c-9 22 -35 91 -40 107z" />
    <glyph glyph-name="uni0394" unicode="&#x394;" horiz-adv-x="718" 
d="M250 680h223l233 -591v-89h-694v88zM357 569h-4c-16 -41 -31 -82 -48 -122l-137 -319h370l-141 334c-9 22 -35 91 -40 107z" />
    <glyph glyph-name="Omega" unicode="&#x2126;" horiz-adv-x="830" 
d="M420 701c226 0 361 -155 361 -309c0 -104 -44 -187 -131 -249v-4h142v-139h-345v107c99 73 140 154 140 245c0 108 -68 203 -170 203c-99 0 -174 -91 -174 -202c0 -94 59 -202 141 -246v-107h-348v139h139v4c-77 49 -128 137 -128 233c0 179 159 325 373 325z" />
    <glyph glyph-name="uni03A9" unicode="&#x3a9;" horiz-adv-x="830" 
d="M420 701c226 0 361 -155 361 -309c0 -104 -44 -187 -131 -249v-4h142v-139h-345v107c99 73 140 154 140 245c0 108 -68 203 -170 203c-99 0 -174 -91 -174 -202c0 -94 59 -202 141 -246v-107h-348v139h139v4c-77 49 -128 137 -128 233c0 179 159 325 373 325z" />
    <glyph glyph-name="mu" unicode="&#xb5;" horiz-adv-x="815" 
d="M81 502h192v-260c0 -83 41 -133 122 -133c92 0 147 77 147 168v225h192v-408c0 -15 1 -57 4 -94h-186c-2 28 -4 56 -4 90h-2c-52 -68 -123 -109 -180 -109c-44 0 -78 16 -91 39h-2v-212h-192v694z" />
    <glyph glyph-name="uni03BC" unicode="&#x3bc;" horiz-adv-x="815" 
d="M81 502h192v-260c0 -83 41 -133 122 -133c92 0 147 77 147 168v225h192v-408c0 -15 1 -57 4 -94h-186c-2 28 -4 56 -4 90h-2c-52 -68 -123 -109 -180 -109c-44 0 -78 16 -91 39h-2v-212h-192v694z" />
    <glyph glyph-name="pi" unicode="&#x3c0;" horiz-adv-x="732" 
d="M40 520h652v-136h-81v-190c0 -53 11 -72 38 -72c15 0 30 5 43 11v-113c-37 -20 -78 -30 -121 -30c-96 0 -139 58 -139 145v249h-143v-384h-179v384h-70v136z" />
    <glyph glyph-name="degree" unicode="&#xb0;" horiz-adv-x="400" 
d="M200 717c78 0 143 -63 143 -143c0 -81 -65 -143 -143 -143s-143 63 -143 143s65 143 143 143zM119 574c0 -46 37 -81 81 -81s81 35 81 81c0 44 -36 81 -81 81c-44 0 -81 -36 -81 -81z" />
    <glyph glyph-name="afii61289" unicode="&#x2113;" horiz-adv-x="641" 
d="M343 725c113 0 187 -74 187 -189c0 -36 -6 -68 -19 -97c-28 -60 -61 -100 -206 -215v-4c0 -44 29 -71 76 -71c43 0 85 25 135 85l89 -86c-59 -100 -150 -159 -270 -159c-117 0 -178 47 -209 140c-11 -7 -27 -16 -48 -28l-50 104l93 61v186c0 171 81 273 222 273zM305 493
v-99c49 49 79 93 79 143c0 39 -13 67 -34 67c-28 0 -45 -38 -45 -111z" />
    <glyph glyph-name="estimated" unicode="&#x212e;" horiz-adv-x="990" 
d="M912 350h-676c-4 0 -6 -1 -6 -6v-192c0 -10 2 -25 8 -31c55 -69 145 -109 254 -109c120 0 201 51 273 119h73c-82 -99 -171 -146 -343 -146c-266 0 -418 171 -418 367c0 197 156 385 416 385c321 0 419 -208 419 -387zM758 377v198c0 10 -4 19 -11 27
c-70 88 -184 109 -257 109c-82 0 -177 -31 -250 -107c-7 -6 -10 -17 -10 -28v-199c0 -4 2 -5 6 -5h517c3 0 5 1 5 5z" />
    <glyph glyph-name="eng" unicode="&#x14b;" horiz-adv-x="815" 
d="M482 521c169 0 252 -90 252 -233v-162h1v-94c0 -153 -60 -224 -234 -224c-21 0 -60 2 -93 3v119h23c81 0 111 17 111 106v224c0 83 -41 133 -122 133c-85 0 -147 -69 -147 -170v-223h-192v408c0 13 0 57 -4 94h186c0 -6 4 -59 4 -90h2c51 67 125 109 213 109z" />
    <glyph glyph-name="Eng" unicode="&#x14a;" horiz-adv-x="963" 
d="M85 722h276l329 -520h2v520h186v-722h-1c-9 -148 -83 -212 -229 -212c-20 0 -59 2 -91 3v119h8c80 0 114 25 123 90h-88l-327 520h-2v-520h-186v722z" />
    <glyph glyph-name="infinity" unicode="&#x221e;" horiz-adv-x="810" 
d="M224 440c57 0 112 -26 183 -95c76 77 128 95 188 95c98 0 167 -74 167 -175c0 -99 -73 -177 -176 -177c-59 0 -111 27 -182 95c-77 -76 -125 -95 -188 -95c-98 0 -168 74 -168 177c0 99 75 175 176 175zM161 265c0 -40 27 -71 64 -71c32 0 64 21 111 70
c-49 51 -77 70 -108 70c-36 0 -67 -30 -67 -69zM475 266c52 -55 79 -72 108 -72c36 0 66 32 66 71s-25 69 -64 69c-32 0 -66 -23 -110 -68z" />
    <glyph glyph-name="partialdiff" unicode="&#x2202;" horiz-adv-x="670" 
d="M293 769c81 0 153 -34 208 -92c67 -71 108 -183 108 -298c0 -103 -20 -184 -59 -248c-55 -90 -146 -142 -260 -142c-155 0 -240 106 -240 223c0 144 93 247 241 247c77 0 136 -28 167 -75h1c0 22 0 43 -3 64c-18 113 -86 198 -183 198c-57 0 -119 -14 -155 -37l-44 103
c58 37 140 57 219 57zM202 211c0 -64 35 -100 104 -100c72 0 126 62 138 158c-15 45 -58 73 -118 73c-75 0 -124 -52 -124 -131z" />
    <glyph glyph-name="integral" unicode="&#x222b;" horiz-adv-x="406" 
d="M330 780c28 0 53 -4 66 -8l-16 -109c-11 3 -27 5 -40 5c-57 0 -70 -52 -70 -173c0 -58 3 -119 9 -183s9 -128 9 -194c0 -183 -64 -278 -191 -278c-29 0 -68 5 -87 13l19 112c12 -4 30 -6 42 -6c50 0 73 47 73 151c0 69 -3 136 -9 202c-6 67 -9 131 -9 192
c0 189 72 276 204 276z" />
    <glyph glyph-name="radical" unicode="&#x221a;" horiz-adv-x="607" 
d="M499 800h128l-223 -890h-134l-158 404l-77 -29l-25 75l193 79l95 -266c14 -39 21 -69 30 -100h2c6 35 11 61 15 77z" />
    <glyph glyph-name="summation" unicode="&#x2211;" horiz-adv-x="704" 
d="M32 770h635v-132h-422v-4l181 -313l-190 -314v-5h458v-132h-676v84l222 360l-208 352v104z" />
    <glyph glyph-name="product" unicode="&#x220f;" horiz-adv-x="820" 
d="M73 770h674v-900h-161v768h-352v-768h-161v900z" />
    <glyph glyph-name="lozenge" unicode="&#x25ca;" horiz-adv-x="656" 
d="M262 700h131l215 -375l-215 -365h-131l-214 365zM327 573h-2c-11 -20 -21 -41 -32 -61c-35 -63 -69 -123 -104 -184l117 -200c11 -18 14 -24 22 -41h3c5 11 12 23 18 34l117 200l-114 204c-11 20 -18 32 -25 48z" />
    <glyph glyph-name="uniF8FF" unicode="&#xf8ff;" horiz-adv-x="512" 
d="M0 718h512v-718h-512v718zM50 50h412v617h-412v-617zM383 478c0 -78 -50 -102 -91 -147c-13 -15 -20 -29 -20 -66v-32h-49v39c0 104 109 128 109 202c0 48 -35 85 -76 85s-74 -27 -82 -95l-50 8c9 96 64 137 135 137c72 0 124 -51 124 -131zM217 117v67h61v-67h-61z" />
    <glyph glyph-name="uni20B9" unicode="&#x20b9;" horiz-adv-x="740" 
d="M728 600h-154c15 -16 24 -33 29 -53h125v-98h-120c-11 -124 -111 -165 -235 -165h-45c108 -98 205 -187 314 -284h-278c-99 93 -189 187 -288 281v112h212c58 0 107 -2 116 56h-328v98h326c-14 45 -59 53 -113 53h-213v98h652v-98z" />
    <glyph glyph-name="uni20BA" unicode="&#x20ba;" horiz-adv-x="740" 
d="M42 355v106l99 42v195h198v-109l229 99v-106l-229 -99v-57l229 99v-106l-229 -99v-185h30c107 0 137 106 137 204v14h205c0 -227 -110 -353 -337 -353h-233v235l-99 -42v106l99 42v56z" />
    <glyph glyph-name="uni1E9E" unicode="&#x1e9e;" horiz-adv-x="1053" 
d="M94 0v454c0 235 218 287 453 287c93 0 242 -9 336 -22c-1 -42 -2 -83 -2 -124c-61 -1 -197 -22 -197 -84c0 -45 96 -79 157 -108c102 -48 176 -93 176 -203c0 -168 -155 -219 -323 -219c-171 0 -330 48 -330 219h210c3 -65 56 -81 120 -81c55 0 113 9 113 62
c0 51 -72 85 -135 115c-103 49 -198 97 -198 187c0 70 72 112 148 130c-34 2 -63 3 -84 3c-126 0 -231 -33 -231 -160v-456h-213z" />
    <glyph glyph-name="uni20BC" unicode="&#x20bc;" horiz-adv-x="958" 
d="M578 455v-385h-198v385c-137 -46 -177 -282 -177 -415v-40h-198v62c0 251 119 487 375 526v110h198v-110c257 -39 375 -275 375 -526v-62h-197v40c0 132 -40 369 -178 415z" />
    <glyph glyph-name="uni20BD" unicode="&#x20bd;" horiz-adv-x="740" 
d="M130 0v122h-106v109h106v56h-106v109h106v302h349c148 0 252 -54 252 -202c0 -149 -103 -209 -253 -209h-150v-55h257v-109h-257v-123h-198zM328 573v-177h77c77 0 125 12 125 89s-48 88 -125 88h-77z" />
    </font>
</defs>
</svg>
